<?xml version="1.0" standalone="no"?>
<!DOCTYPE svg PUBLIC "-//W3C//DTD SVG 20010904//EN"
 "http://www.w3.org/TR/2001/REC-SVG-20010904/DTD/svg10.dtd">
<svg version="1.0" xmlns="http://www.w3.org/2000/svg"
 width="1024.000000pt" height="1024.000000pt" viewBox="0 0 1024.000000 1024.000000"
 preserveAspectRatio="xMidYMid meet">

<g transform="translate(0.000000,1024.000000) scale(0.100000,-0.100000)"
fill="#fff" stroke="none">
<path d="M3140 9830 c-47 -10 -97 -19 -112 -20 -15 0 -30 -5 -34 -12 -9 -14
31 -48 58 -48 29 0 13 -17 -43 -46 -28 -14 -49 -30 -46 -37 7 -23 66 -19 113
8 48 28 124 58 131 51 3 -2 -32 -39 -77 -82 -71 -68 -79 -80 -65 -90 23 -17
47 -8 103 40 71 61 138 98 169 94 46 -5 38 -27 -19 -52 -63 -28 -91 -56 -86
-88 3 -20 8 -23 48 -22 25 0 78 8 117 18 66 15 79 15 140 1 38 -8 91 -14 118
-12 l50 2 7 -410 c7 -457 14 -536 51 -651 14 -43 38 -146 52 -229 42 -236 79
-385 146 -590 57 -175 62 -197 63 -280 1 -121 -14 -148 -110 -215 -42 -29 -91
-73 -109 -99 -68 -93 -83 -233 -41 -375 18 -60 25 -116 30 -216 8 -201 53
-344 197 -631 48 -98 99 -217 99 -234 0 -2 -35 -8 -77 -14 -43 -6 -94 -14
-113 -17 -253 -37 -577 -140 -1094 -345 -61 -25 -126 -58 -126 -64 0 -3 17 3
38 13 147 75 726 273 962 330 132 32 140 33 140 22 0 -5 -12 -10 -26 -10 -15
0 -52 -9 -83 -19 -31 -11 -150 -50 -266 -86 -205 -66 -519 -186 -680 -260 -44
-20 -127 -57 -184 -82 -116 -49 -301 -141 -301 -148 0 -6 39 9 87 34 36 18
261 111 367 152 27 10 56 24 65 32 15 13 40 24 59 28 4 0 15 5 25 10 9 5 17 7
17 4 0 -3 -20 -15 -45 -26 -48 -21 -62 -35 -20 -19 54 21 85 41 79 52 -4 6 -3
8 4 4 6 -3 37 5 69 20 67 30 194 76 303 109 41 12 113 37 160 54 221 83 528
181 611 196 31 6 36 4 47 -20 7 -14 12 -30 12 -34 0 -5 -28 -16 -62 -25 -35
-10 -90 -26 -123 -36 -71 -21 -216 -65 -265 -79 l-35 -11 38 6 c28 4 37 2 32
-6 -5 -8 -2 -9 11 -1 39 20 112 43 209 66 55 12 109 26 120 30 11 5 18 5 15 2
-3 -3 -71 -33 -150 -67 -143 -61 -341 -161 -410 -207 -43 -29 -27 -30 20 -2
120 74 501 247 600 273 24 7 25 7 5 -9 -11 -10 -53 -32 -94 -51 -41 -19 -72
-37 -68 -40 3 -3 14 -1 24 5 39 20 147 40 166 29 10 -5 25 -7 34 -4 22 9 -74
-94 -143 -153 -32 -27 -97 -87 -144 -132 l-85 -81 80 68 c44 37 91 79 105 94
14 15 39 35 55 45 17 10 55 41 85 69 52 49 53 49 23 11 -17 -22 -52 -60 -78
-85 -26 -25 -51 -54 -56 -65 -9 -17 -8 -18 3 -5 23 27 112 96 103 80 -4 -8 10
1 31 20 98 89 107 95 96 75 -5 -11 -39 -48 -75 -82 -36 -35 -61 -63 -56 -63 5
0 49 38 98 85 50 47 93 85 96 85 3 0 -15 -25 -40 -55 -24 -30 -66 -88 -93
-128 -52 -78 -73 -114 -47 -82 35 44 159 185 162 185 8 0 -21 -44 -51 -78 -18
-21 -43 -55 -55 -77 -26 -45 -33 -52 62 59 23 27 54 69 68 93 34 58 57 79 31
28 -11 -22 -30 -65 -42 -95 -12 -30 -27 -63 -32 -73 -5 -11 -7 -21 -5 -24 3
-2 28 39 57 91 43 80 70 120 70 104 0 -10 -38 -109 -43 -115 -4 -3 -7 -13 -7
-22 0 -23 39 45 65 113 30 79 39 57 14 -34 -11 -40 -18 -75 -15 -77 7 -7 30
51 51 130 10 37 20 67 23 67 2 0 2 -48 -1 -107 l-6 -108 15 95 c27 180 34 186
30 30 -3 -96 -1 -128 4 -95 5 28 9 73 10 100 2 73 18 28 21 -60 2 -48 4 -58 6
-30 3 22 9 45 15 52 7 9 8 47 5 106 l-7 92 24 -83 c14 -46 26 -85 28 -88 2 -2
3 27 1 64 -3 77 -1 75 27 -28 20 -74 20 -74 14 -20 -4 30 -15 81 -25 114 -11
32 -19 61 -19 65 0 15 46 -70 66 -124 13 -33 23 -55 23 -50 1 12 -26 140 -35
169 -7 21 -7 21 16 1 34 -31 91 -112 132 -189 21 -39 38 -68 38 -65 0 12 -48
134 -85 212 -20 44 -35 81 -32 83 2 2 31 -24 64 -58 33 -35 81 -85 108 -113
l47 -50 -36 50 c-80 110 -126 176 -126 181 0 11 91 -58 105 -80 8 -12 29 -33
47 -45 33 -24 33 -24 -4 15 -21 22 -38 43 -38 47 0 12 56 -21 95 -54 19 -17
35 -28 35 -25 0 9 -58 59 -137 119 -35 27 -62 51 -59 54 8 8 92 -25 149 -59
87 -51 44 -6 -57 60 l-51 33 43 -6 c24 -3 70 -16 103 -30 68 -27 69 -18 3 21
-24 14 -44 27 -44 29 0 3 232 -52 295 -70 27 -9 45 -11 40 -6 -14 13 -154 68
-249 97 l-81 24 125 -4 c139 -5 224 -21 380 -71 57 -19 106 -33 107 -31 13 13
-285 117 -378 132 -23 4 -36 11 -32 17 3 6 1 7 -5 3 -18 -11 -135 5 -123 17
17 17 173 27 257 17 130 -16 273 -22 246 -10 -13 5 -63 13 -110 17 -78 6 -83
8 -47 14 22 5 78 8 125 8 79 1 140 -4 345 -29 44 -5 104 -12 133 -15 29 -3 65
-7 80 -10 15 -2 9 1 -13 9 -22 7 -78 16 -125 20 -47 4 -132 13 -190 21 l-105
14 100 -5 c159 -8 333 -13 295 -8 -19 2 -87 11 -150 19 -63 8 -178 18 -255 22
l-140 7 125 12 c249 25 691 9 1025 -35 39 -5 113 -12 165 -16 91 -6 307 -42
264 -44 -11 -1 -65 6 -120 14 -96 14 -172 19 -163 11 2 -2 24 -7 49 -11 25 -4
61 -15 80 -24 45 -23 93 -40 148 -53 24 -5 41 -12 39 -15 -3 -2 -34 2 -69 10
-115 27 -179 39 -184 34 -3 -3 37 -15 88 -27 130 -30 249 -62 244 -67 -2 -2
-25 1 -52 7 -59 14 -442 76 -584 96 -57 8 -138 20 -180 28 -41 8 -106 17 -145
19 -38 3 -59 3 -45 0 14 -2 102 -17 195 -33 347 -59 406 -70 512 -94 59 -14
140 -36 178 -50 77 -27 77 -34 -1 -12 -74 22 -296 67 -302 62 -2 -3 9 -8 24
-12 62 -14 213 -57 299 -84 50 -16 115 -34 145 -40 30 -6 65 -13 78 -16 44 -9
21 13 -30 29 -29 9 -42 15 -28 12 14 -2 43 -6 65 -9 l40 -6 -30 15 -30 16 33
-6 c17 -3 47 -8 65 -11 31 -5 31 -5 9 8 -12 8 -19 18 -15 23 4 4 3 5 -4 2 -6
-4 -22 -3 -35 2 -18 8 -7 10 46 10 75 1 84 10 16 16 -52 5 -69 18 -20 14 107
-8 129 11 35 30 l-50 9 73 0 c40 -1 75 1 78 4 3 3 -21 13 -53 21 l-58 15 60
-5 c44 -3 56 -2 45 6 -8 6 -24 11 -35 12 -11 1 -4 5 15 9 l35 7 -26 10 c-14 6
-77 19 -140 28 -63 8 -127 18 -144 20 -55 9 -219 24 -375 35 -85 6 -202 18
-260 25 -199 27 -703 74 -825 76 l-60 2 70 9 c85 12 593 4 725 -11 332 -38
286 -32 440 -56 58 -9 168 -30 245 -45 77 -16 158 -32 180 -36 22 -3 65 -13
95 -20 64 -17 70 -17 70 -5 0 5 -12 12 -27 14 -16 2 15 3 67 1 67 -2 83 -1 55
5 -31 6 -34 9 -15 11 14 1 -3 8 -40 15 l-65 13 77 1 c64 1 76 4 72 16 -3 8
-20 17 -37 19 -18 3 -73 12 -122 20 -81 14 -202 23 -530 41 -55 3 -129 8 -165
10 -36 3 -173 12 -305 20 -132 9 -248 18 -259 21 -10 4 -109 6 -220 7 -157 0
-188 2 -141 9 66 10 730 13 810 4 28 -3 108 -8 179 -12 77 -4 123 -10 115 -15
-11 -7 -10 -9 4 -9 9 0 17 4 17 10 0 6 9 6 23 1 12 -5 60 -12 107 -16 47 -3
135 -13 197 -21 88 -11 123 -12 160 -3 26 6 77 15 113 20 50 6 32 7 -75 5 -77
-2 -171 0 -210 4 l-70 8 90 -2 c84 -2 332 18 342 28 10 9 -113 16 -422 24
l-320 9 375 3 c206 1 367 4 358 7 -10 2 -109 10 -220 17 l-203 13 160 2 c276
4 266 18 -15 22 -362 5 -438 5 -585 -3 l-130 -7 120 16 c86 11 223 15 479 16
198 1 346 5 330 8 -16 4 -60 7 -99 8 -38 1 -88 6 -110 10 -39 8 -38 9 21 10
85 1 155 12 148 22 -12 20 -426 9 -614 -16 -25 -3 -31 -2 -20 5 8 5 35 10 60
11 25 1 59 5 75 10 19 5 -2 6 -56 3 -57 -4 -89 -2 -94 5 -4 8 34 11 127 12 73
0 196 7 273 14 l140 14 -120 -4 c-66 -3 -151 -7 -190 -10 -88 -6 -74 2 25 15
l75 9 -85 -5 c-191 -10 -260 -17 -260 -28 0 -7 -22 -11 -57 -11 -32 0 -200
-19 -373 -43 -406 -55 -482 -64 -486 -59 -7 6 430 91 521 101 22 2 90 11 150
19 118 17 171 23 280 32 113 9 239 26 245 32 3 3 -15 3 -40 -1 -25 -3 -110
-10 -190 -16 -80 -6 -176 -15 -215 -20 -38 -5 -164 -21 -280 -35 -115 -15
-297 -42 -404 -61 -107 -19 -196 -32 -198 -30 -7 7 208 58 487 116 145 30 254
57 235 59 -5 1 -89 -13 -185 -30 -96 -16 -197 -34 -225 -39 -95 -16 -310 -62
-334 -71 -13 -5 -26 -8 -28 -5 -6 6 68 29 216 67 68 18 119 35 113 37 -15 5
-273 -59 -462 -115 -184 -54 -206 -59 -161 -38 19 8 119 43 223 76 104 33 188
62 186 65 -9 8 -531 -147 -662 -197 -27 -10 -51 -17 -53 -15 -4 3 136 64 235
101 40 15 72 29 70 31 -12 11 -266 -80 -445 -159 l-102 -45 -53 38 c-103 74
-146 164 -127 263 11 61 82 212 137 292 56 80 192 216 272 270 68 47 154 75
225 75 22 0 85 -7 140 -15 184 -29 318 -44 595 -70 151 -14 330 -34 397 -45
68 -11 133 -18 145 -15 13 3 97 14 188 26 202 25 408 65 676 130 112 27 222
50 244 51 37 1 45 -3 83 -46 33 -37 58 -53 117 -75 41 -15 102 -46 135 -68 33
-23 72 -47 86 -53 15 -7 33 -23 40 -36 18 -34 29 -30 29 10 0 19 2 41 5 48 3
8 -8 34 -24 58 -16 25 -28 46 -26 48 20 20 102 -77 143 -170 22 -50 63 -98 83
-98 8 0 10 13 6 43 l-5 42 19 -37 c15 -28 26 -38 44 -38 14 0 25 6 25 13 0 6
-18 55 -40 107 -22 51 -38 95 -37 97 2 1 22 -14 47 -33 24 -19 54 -37 66 -40
32 -8 59 -1 59 16 0 8 -6 14 -12 13 -7 -2 -13 2 -13 7 0 6 -4 10 -9 10 -5 0
-23 12 -39 28 -62 57 -94 81 -165 123 -39 23 -89 55 -111 71 -44 31 -371 140
-479 159 -38 6 -83 8 -100 4 -18 -4 -230 -11 -472 -15 -389 -7 -450 -11 -530
-29 -109 -25 -150 -25 -280 -6 -55 9 -170 25 -257 35 -149 19 -269 40 -313 56
-11 4 -76 33 -145 64 -69 32 -154 68 -190 80 -89 29 -210 42 -293 32 l-67 -8
-41 40 c-79 81 -111 192 -89 316 16 95 19 103 35 90 7 -6 37 -14 66 -17 32 -4
70 -16 92 -31 94 -62 207 -33 314 82 67 71 93 138 93 240 0 55 -3 61 -37 94
-21 20 -30 33 -20 29 12 -5 17 -1 17 12 0 11 -6 21 -12 23 -8 3 -3 13 14 29
18 17 27 37 29 64 2 22 7 43 12 46 5 4 6 12 2 19 -6 9 -9 9 -16 -1 -16 -26
-20 0 -4 30 16 32 4 44 -15 14 -9 -14 -9 -11 -4 16 6 33 5 34 -10 18 -10 -9
-15 -21 -12 -26 3 -5 -3 -7 -15 -4 -12 4 -25 0 -30 -8 -13 -21 -11 -69 4 -69
8 0 7 -4 -3 -10 -13 -9 -12 -12 4 -25 26 -20 37 -19 43 4 8 31 31 34 31 4 0
-15 -3 -20 -8 -13 -5 8 -16 -3 -34 -31 -14 -24 -27 -39 -27 -34 -1 6 -3 15 -4
20 0 6 -9 27 -19 48 -15 30 -21 35 -32 26 -11 -9 -14 -7 -14 10 0 11 3 21 8
21 4 0 12 11 18 23 8 18 7 26 -3 36 -18 16 -8 30 17 24 20 -5 20 -3 -5 53 -91
206 -321 343 -515 306 -121 -22 -233 -90 -270 -163 -25 -48 -44 -58 -128 -70
-86 -12 -99 -25 -84 -77 17 -55 16 -60 -19 -78 -23 -12 -30 -20 -26 -36 3 -11
0 -27 -8 -34 -7 -8 -11 -23 -8 -34 4 -14 -3 -30 -22 -50 -29 -31 -36 -70 -15
-95 7 -8 49 -34 94 -59 156 -85 164 -116 88 -337 -54 -158 -89 -223 -128 -241
-33 -15 -40 -6 -65 83 -24 88 -53 140 -128 234 -31 39 -64 82 -73 96 -26 41
-82 210 -129 386 -39 147 -42 168 -45 313 -3 170 -15 242 -73 450 -21 74 -55
207 -76 295 -61 263 -71 294 -118 341 -36 34 -60 46 -157 77 -234 74 -376 90
-520 57z m221 -14 c79 -6 333 -73 400 -107 45 -23 58 -38 64 -80 5 -30 4 -32
-6 -12 -19 36 -101 55 -121 28 -5 -6 -8 -5 -8 4 0 10 -3 11 -13 2 -8 -6 -16
-8 -20 -5 -3 3 -14 1 -26 -5 -16 -9 -22 -8 -30 6 -10 17 -10 17 -11 1 0 -11
-5 -15 -15 -12 -8 4 -15 2 -15 -2 0 -5 -12 -10 -27 -11 -16 0 -55 -8 -88 -17
-33 -8 -75 -15 -93 -16 -19 0 -39 -8 -49 -20 -10 -11 -23 -20 -30 -20 -18 0
-16 40 2 42 8 0 21 1 28 2 6 1 16 7 20 14 4 6 16 12 26 12 28 0 143 38 165 55
18 13 17 15 -10 39 -16 14 -36 26 -45 26 -8 0 -26 10 -39 23 -24 21 -32 22
-202 22 -98 0 -178 3 -178 8 0 4 15 7 33 8 17 0 59 6 92 13 33 7 74 12 90 10
17 -2 64 -6 106 -8z m129 -101 c7 -9 8 -15 2 -15 -5 0 -12 7 -16 15 -3 8 -4
15 -2 15 2 0 9 -7 16 -15z m359 -205 c7 0 87 -310 141 -547 12 -51 12 -56 1
-49 -5 3 -12 25 -15 48 -4 24 -11 50 -17 58 -9 12 -10 12 -5 -3 3 -10 9 -37
13 -60 3 -23 10 -44 14 -47 14 -10 29 -133 30 -255 1 -145 16 -211 19 -90 l3
80 7 -85 c9 -100 34 -206 101 -428 58 -194 78 -234 158 -330 68 -82 91 -122
115 -201 22 -74 19 -99 -3 -33 -10 29 -22 56 -26 60 -5 4 -5 -2 -1 -13 4 -11
10 -33 12 -50 l5 -30 -16 30 -15 30 4 -35 5 -35 -14 30 -14 30 -2 -30 c-1 -17
-3 -23 -6 -12 -6 25 -23 21 -23 -5 0 -19 -2 -20 -10 -8 -8 12 -10 10 -10 -8 0
-13 -4 -20 -10 -17 -6 3 -13 -1 -16 -9 -3 -9 -10 -16 -16 -16 -16 0 -97 -60
-139 -103 -36 -37 -40 -39 -35 -17 17 75 24 153 16 180 -5 19 -5 28 1 25 5 -4
9 11 8 32 0 30 -2 34 -9 18 -8 -18 -9 -17 -9 7 -1 15 -6 39 -11 54 -6 15 -8
29 -5 32 3 3 10 -9 16 -27 6 -18 13 -30 16 -27 2 2 -5 24 -16 48 -11 25 -27
77 -36 117 -10 40 -19 71 -21 68 -4 -4 17 -107 33 -162 12 -45 -16 2 -30 50
-12 37 -16 43 -17 25 -2 -21 -3 -20 -11 10 -5 19 -14 55 -19 80 -9 43 -9 42
-6 -20 4 -69 -5 -59 -22 25 -19 88 -35 145 -43 145 -4 0 0 -21 8 -47 8 -27 17
-59 19 -73 2 -14 -9 14 -25 63 -16 48 -41 153 -55 235 -29 164 -33 180 -71
272 -22 53 -29 89 -36 200 -11 171 -11 704 0 750 8 29 9 31 11 10 1 -23 2 -23
10 -5 l9 20 1 -20 c1 -12 4 -15 7 -7 3 7 0 19 -7 26 -7 9 -7 16 -1 20 5 3 12
0 14 -6 3 -7 4 2 2 20 -3 27 -1 31 10 22 11 -9 13 -7 9 12 l-5 23 10 -22 c6
-13 14 -23 20 -23z m168 -672 c-3 -7 -5 -2 -5 12 0 14 2 19 5 13 2 -7 2 -19 0
-25z m10 -40 c-3 -8 -6 -5 -6 6 -1 11 2 17 5 13 3 -3 4 -12 1 -19z m10 -85
c-2 -16 -4 -5 -4 22 0 28 2 40 4 28 2 -13 2 -35 0 -50z m1084 15 c7 -12 13
-38 15 -58 1 -19 5 -51 9 -70 l6 -35 -14 30 c-14 29 -14 26 -12 -44 2 -52 0
-70 -7 -58 -5 10 -7 25 -4 35 3 9 1 24 -5 32 -8 11 -9 0 -4 -40 9 -75 14 -180
8 -155 l-6 20 -8 -20 -8 -20 -1 20 c0 14 -6 8 -19 -20 -11 -22 -20 -33 -20
-25 -1 13 -3 13 -10 1 -13 -20 -44 -24 -37 -5 13 32 16 48 5 27 -7 -13 -18
-23 -26 -23 -7 0 -13 -5 -13 -11 0 -5 5 -7 10 -4 6 3 5 -6 -2 -20 -7 -15 -14
-22 -16 -16 -2 6 -8 8 -14 5 -6 -4 -9 -3 -6 2 2 5 10 24 17 42 9 22 16 30 21
22 5 -9 9 -8 13 2 10 27 -24 15 -39 -14 -16 -31 -30 -39 -19 -10 12 31 -13 -1
-44 -58 -34 -62 -42 -61 -10 1 33 65 15 56 -20 -10 -17 -33 -36 -63 -42 -66
-5 -4 -6 -11 -3 -17 4 -7 2 -8 -5 -4 -6 4 -14 0 -17 -8 -3 -9 -10 -14 -14 -11
-5 3 -14 -3 -20 -12 -11 -17 -11 -17 -6 0 3 9 9 25 13 35 4 9 -6 4 -21 -13
-20 -22 -26 -25 -21 -11 6 19 5 19 -15 1 -15 -14 -20 -15 -20 -4 0 11 -2 11
-10 -1 -7 -11 -10 -12 -10 -2 0 9 -7 11 -20 7 -11 -4 -20 -2 -20 4 0 6 -7 8
-15 5 -17 -7 -123 24 -131 38 -8 13 45 67 76 80 23 9 24 10 8 22 -10 7 -18 16
-18 20 0 10 39 7 62 -5 31 -17 33 -3 4 41 -39 59 -33 107 10 75 45 -34 61 -4
19 35 -25 24 -35 16 -12 -10 6 -8 2 -6 -10 4 -13 11 -23 29 -23 41 0 20 7 23
61 29 89 10 104 19 136 78 43 80 162 146 265 147 39 1 49 -3 59 -21z m13 -314
c3 -8 2 -12 -4 -9 -6 3 -10 10 -10 16 0 14 7 11 14 -7z m516 -63 c0 -5 3 -16
6 -25 4 -11 1 -16 -10 -16 -11 0 -15 8 -14 25 2 23 18 37 18 16z m-359 -68
c11 -15 11 -16 -1 -5 -21 18 -51 15 -77 -10 -25 -24 -32 -9 -7 16 21 21 68 20
85 -1z m-109 -46 c4 -6 8 -16 8 -22 0 -5 -4 -5 -8 2 -4 7 -22 14 -39 17 -23 5
-33 2 -37 -11 -8 -20 12 -35 41 -30 12 2 24 0 25 -5 2 -5 16 -6 31 -3 22 6 27
13 27 38 0 23 3 28 11 20 6 -6 8 -24 5 -40 -6 -26 -13 -31 -54 -40 l-47 -10
40 -2 c51 -1 82 20 106 73 10 22 19 33 19 23 0 -31 -29 -76 -60 -92 -45 -23
-200 -16 -200 10 0 7 15 31 33 54 27 35 36 40 62 36 16 -3 33 -11 37 -18z
m368 -16 c0 -4 -7 -16 -15 -27 -8 -10 -15 -29 -15 -41 0 -24 -16 -31 -22 -11
-6 18 3 58 13 58 5 0 9 9 9 20 0 13 5 18 15 14 8 -4 15 -9 15 -13z m-62 -98
c9 -17 9 -22 -3 -27 -11 -4 -15 2 -15 26 0 34 2 34 18 1z m82 22 c0 -3 -9 -14
-20 -25 -11 -11 -22 -20 -25 -20 -10 0 -5 26 7 38 12 12 38 17 38 7z m-5 -57
c-6 -22 -5 -22 9 -4 14 17 16 18 22 2 3 -9 1 -23 -6 -31 -14 -17 -35 -20 -24
-4 4 7 0 9 -12 5 -11 -3 -26 -1 -34 4 -13 8 -13 10 2 10 10 0 22 9 28 20 14
27 23 25 15 -2z m-85 -33 c0 -8 -7 -15 -15 -15 -8 0 -15 -4 -15 -10 0 -5 -7
-10 -15 -10 -16 0 -21 29 -5 31 6 1 14 2 19 3 5 0 13 4 17 9 11 10 14 9 14 -8z
m70 -45 c0 -5 -2 -10 -4 -10 -3 0 -8 5 -11 10 -3 6 -1 10 4 10 6 0 11 -4 11
-10z m-50 -9 c0 -10 -30 -24 -37 -17 -3 3 -2 9 2 15 8 13 35 15 35 2z m-534
-23 c-19 -29 -48 -98 -41 -98 2 0 11 15 19 33 8 17 26 46 41 62 l27 30 -20
-35 c-11 -19 -29 -63 -40 -97 -12 -35 -35 -83 -51 -107 -33 -47 -38 -62 -19
-50 7 4 8 3 4 -5 -4 -6 -11 -9 -16 -6 -4 3 -25 -19 -46 -47 -21 -29 -64 -84
-96 -122 -52 -63 -67 -86 -53 -86 6 0 102 123 139 177 16 24 36 48 44 55 9 7
-4 -15 -28 -50 -77 -107 -111 -162 -101 -162 5 0 19 15 31 33 21 32 22 32 16
5 -8 -38 2 -35 20 5 14 31 15 31 11 5 -6 -39 1 -35 23 15 14 30 20 36 20 20 0
-12 -4 -33 -10 -47 -14 -38 -4 -32 20 12 l21 37 -5 -35 -5 -35 25 45 c23 42
24 43 18 13 -7 -40 3 -43 17 -5 10 25 12 26 19 7 7 -17 9 -16 10 10 l2 30 8
-30 c7 -28 8 -29 10 -5 2 23 3 22 11 -8 5 -18 14 -30 19 -27 6 4 10 1 10 -4 0
-6 -6 -11 -12 -11 -10 0 -9 -3 1 -9 7 -5 11 -14 7 -19 -8 -13 28 -34 40 -24 5
4 6 3 2 -2 -4 -5 0 -15 10 -23 15 -11 13 -12 -11 -3 -43 15 -46 11 -7 -10 27
-15 31 -19 15 -20 l-20 -1 20 -9 c11 -5 14 -9 7 -9 -10 -1 -10 -6 -2 -21 13
-24 17 -24 -124 10 -48 12 -90 20 -92 17 -6 -6 189 -57 221 -58 l30 0 -32 -14
c-17 -7 -84 -48 -148 -89 -165 -108 -158 -105 -253 -99 -139 10 -244 -29 -351
-131 l-64 -61 30 45 c28 41 50 90 41 90 -3 0 -19 -20 -38 -45 -19 -25 -40 -45
-47 -45 -7 0 -13 -9 -13 -21 0 -11 -4 -17 -10 -14 -5 3 -10 -2 -11 -12 0 -16
-1 -16 -9 2 l-9 20 -2 -20 c-1 -11 -1 -29 0 -40 2 -20 2 -20 -13 0 -15 19 -15
18 -17 -20 -1 -34 -3 -28 -19 40 -10 44 -37 126 -60 183 l-41 103 36 42 c42
50 168 162 226 203 36 25 53 29 142 34 l100 6 33 38 c22 25 49 82 80 167 26
71 48 129 49 129 2 0 1 -19 -1 -42 -3 -40 -3 -41 5 -10 13 49 24 53 17 7 l-6
-40 15 35 c16 36 16 31 0 -50 -5 -29 -1 -24 25 28 17 34 33 62 35 62 2 0 -5
-25 -16 -56 -11 -31 -18 -58 -15 -61 2 -2 7 6 11 19 12 39 186 298 201 298 2
0 -2 -10 -10 -22z m434 7 c0 -8 -4 -15 -10 -15 -5 0 -10 7 -10 15 0 8 5 15 10
15 6 0 10 -7 10 -15z m0 -46 c0 -11 -4 -17 -10 -14 -5 3 -10 13 -10 21 0 8 5
14 10 14 6 0 10 -9 10 -21z m-633 -141 c-3 -8 -6 -5 -6 6 -1 11 2 17 5 13 3
-3 4 -12 1 -19z m-709 -113 c-3 -3 -9 2 -12 12 -6 14 -5 15 5 6 7 -7 10 -15 7
-18z m201 -252 c-35 -25 -100 -80 -143 -122 -78 -74 -79 -75 -45 -26 52 75
111 131 176 164 82 42 85 38 12 -16z m916 -143 c3 -5 -1 -10 -9 -10 -27 0
-178 -83 -269 -148 -48 -34 -91 -62 -96 -62 -5 0 -14 7 -21 15 -7 8 -8 15 -3
15 6 0 65 36 132 80 152 98 248 138 266 110z m295 -14 c77 -14 198 -60 319
-121 111 -56 200 -74 640 -131 l203 -27 137 26 c125 24 167 26 521 33 624 12
587 14 722 -28 193 -61 257 -85 291 -111 18 -14 64 -39 102 -56 65 -30 86 -55
28 -33 -15 5 -50 18 -76 27 -37 13 -47 21 -42 34 5 13 4 14 -6 4 -7 -7 -17
-13 -22 -13 -4 0 -5 6 -1 13 5 8 2 8 -9 -2 -12 -10 -17 -10 -17 -2 0 8 -8 10
-20 6 -12 -4 -20 -2 -20 6 0 9 -4 8 -15 -1 -12 -10 -15 -10 -15 0 0 7 -7 10
-15 6 -8 -3 -15 -1 -15 4 0 5 -13 7 -30 5 -16 -2 -30 1 -30 6 0 5 -8 9 -17 9
-15 0 -14 -2 3 -14 10 -8 15 -18 11 -22 -4 -5 -11 -4 -15 1 -4 6 -18 19 -32
30 -14 11 -2 -5 25 -34 28 -29 77 -71 109 -92 54 -35 56 -39 31 -39 -15 0 -58
17 -94 37 -36 21 -79 44 -96 53 -17 9 -29 22 -29 32 1 10 -3 15 -9 11 -6 -4
-8 0 -5 8 3 9 -3 26 -14 40 l-20 24 16 -30 17 -30 -25 29 c-14 17 -23 33 -20
38 3 4 0 8 -6 8 -7 0 -24 8 -38 19 -47 32 -81 38 -150 25 -36 -7 -74 -11 -84
-9 -10 2 -22 -4 -28 -13 -8 -14 -10 -14 -11 -2 0 8 -5 4 -9 -10 l-8 -25 -2 25
-2 25 -8 -25 c-8 -24 -8 -24 -9 -2 -2 35 -21 26 -22 -10 l-2 -33 -7 35 -7 35
-3 -30 c-2 -30 -2 -30 -10 -5 l-8 25 -2 -25 c-2 -25 -2 -25 -15 5 l-14 30 -1
-37 c0 -50 -20 -60 -21 -11 -1 38 -1 38 -9 8 -7 -29 -8 -29 -10 -5 -2 24 -3
24 -10 -5 l-8 -30 -2 30 c-3 25 -4 23 -10 -15 l-7 -45 -2 45 -3 45 -13 -40
-13 -40 -2 35 -3 35 -7 -40 -7 -40 -3 35 c-1 22 -4 28 -7 16 -4 -15 -7 -16
-14 -5 -6 10 -9 5 -9 -16 0 -16 -5 -37 -11 -45 -7 -11 -8 -4 -4 25 3 22 2 34
-1 28 -9 -19 -34 -16 -34 5 0 14 -2 15 -10 2 -5 -8 -10 -28 -10 -43 0 -16 -4
-26 -10 -22 -6 3 -7 18 -4 33 4 21 3 24 -5 12 -10 -13 -11 -13 -12 0 0 8 -7 2
-14 -15 -14 -30 -14 -30 -16 -5 -1 23 -2 23 -9 -5 l-8 -30 -2 35 -2 35 -8 -30
-8 -30 -2 30 -3 30 -7 -35 -7 -35 -3 30 c-2 30 -2 30 -10 5 l-8 -25 -2 25 -2
25 -8 -25 -8 -25 -2 25 c-2 24 -3 23 -10 -5 l-8 -30 -2 30 -3 30 -7 -35 -7
-35 -2 33 c-1 21 -5 31 -12 27 -6 -4 -8 -13 -6 -19 3 -7 1 -19 -4 -27 -6 -10
-9 -6 -10 16 l-1 30 -8 -30 -8 -30 -1 30 -2 30 -15 -30 -14 -30 5 28 c7 37 -3
34 -20 -5 l-14 -33 -1 35 0 35 -18 -35 -17 -35 -6 30 c-5 22 -7 24 -8 8 -2
-33 -21 -39 -21 -6 l-1 28 -14 -30 c-13 -30 -13 -30 -15 -5 -1 23 -2 23 -10 5
-5 -11 -9 -15 -9 -10 -1 6 -6 3 -11 -5 -8 -13 -10 -12 -10 4 0 15 -3 16 -15 6
-11 -9 -15 -9 -15 -1 0 7 -5 9 -10 6 -31 -19 -152 -24 -158 -6 -2 6 -8 9 -13
6 -5 -3 -18 -1 -30 6 -17 9 -24 8 -31 -2 -7 -10 -8 -7 -4 11 l5 25 -20 -24
c-10 -13 -19 -21 -19 -18 0 3 -3 13 -7 23 -4 12 -3 15 5 10 7 -4 12 -2 12 3 0
6 -7 11 -15 11 -8 0 -15 -9 -15 -19 0 -11 -4 -22 -9 -25 -5 -4 -7 8 -5 26 l4
33 -19 -35 c-20 -35 -30 -25 -11 11 17 31 1 22 -21 -13 l-20 -33 6 35 6 35
-20 -32 c-23 -36 -38 -45 -21 -12 6 11 9 25 7 32 -2 7 -12 -3 -21 -21 -10 -19
-20 -32 -23 -29 -2 3 0 14 6 25 22 41 10 46 -15 7 -23 -37 -26 -31 -10 20 7
19 6 19 -6 2 -29 -41 -40 -53 -35 -37 17 57 16 62 -3 27 -12 -22 -24 -37 -27
-34 -2 3 1 15 7 27 6 12 9 24 7 27 -3 3 -13 -9 -22 -27 -20 -40 -29 -34 -14 9
17 47 4 49 -15 1 -14 -36 -31 -57 -22 -27 3 6 7 26 10 42 4 24 1 21 -15 -14
-23 -52 -36 -50 -14 2 19 46 4 49 -17 4 -9 -19 -23 -34 -31 -34 -13 0 -13 5 4
25 33 43 21 48 -21 7 l-40 -39 12 32 c8 21 15 27 20 19 4 -7 8 -9 8 -5 0 3 3
15 6 25 5 15 4 15 -5 3 -9 -12 -11 -12 -11 -1 0 8 -13 -3 -30 -24 -35 -44 -39
-38 -8 14 l21 36 -31 -29 c-34 -31 -39 -29 -21 7 7 16 2 13 -16 -8 l-26 -30
11 28 c15 43 12 46 -10 10 -11 -18 -22 -33 -25 -33 -3 0 2 15 11 33 l16 32
-38 -35 c-21 -19 -31 -26 -21 -14 9 11 17 27 17 35 -1 8 -11 1 -25 -16 -14
-16 -25 -25 -25 -18 0 6 5 15 10 18 18 11 10 26 -10 20 -11 -3 -20 -2 -20 3 0
6 -9 8 -21 5 -12 -3 -25 0 -29 7 -4 7 -26 13 -48 14 -34 1 -38 3 -29 15 10 12
9 14 -5 8 -21 -7 -23 3 -5 23 6 8 3 7 -9 -3 -29 -24 -41 -21 -18 5 l19 21 -30
-19 -30 -18 20 24 c21 24 7 21 -30 -9 -13 -10 -16 -11 -7 -1 20 24 13 34 -10
14 l-21 -19 19 30 18 30 -23 -20 -24 -20 12 25 12 25 -20 -22 c-27 -32 -37
-29 -16 5 l18 27 -33 -30 -33 -30 23 35 24 35 -25 -21 c-37 -32 -57 -41 -35
-16 11 12 16 25 13 28 -4 4 -16 -4 -28 -17 -11 -13 -17 -18 -13 -10 5 11 3 13
-9 8 -46 -19 -49 -17 -12 7 22 14 33 26 25 26 -9 0 -20 -4 -25 -9 -12 -11 -85
-42 -85 -36 0 3 14 12 31 20 17 9 29 19 26 21 -3 3 -20 -2 -38 -12 -43 -22
-91 -35 -84 -24 7 11 -50 2 -77 -11 -31 -16 -33 -9 -4 10 17 11 33 18 38 15 7
-5 68 23 68 31 0 6 -32 -6 -47 -18 -9 -6 -13 -6 -13 3 0 7 -19 1 -47 -16 -35
-20 -44 -22 -33 -9 14 17 14 17 -17 1 -36 -18 -44 -29 -15 -20 14 5 15 4 2 -5
-9 -6 -18 -7 -24 -1 -6 6 -18 2 -33 -12 -13 -12 -23 -18 -23 -13 0 4 -10 0
-22 -11 l-22 -19 17 27 c26 41 21 41 -19 0 l-36 -37 23 35 23 35 -23 -20 c-13
-11 -27 -29 -32 -40 l-8 -20 -1 20 -1 20 -10 -20 c-8 -17 -9 -16 -5 8 3 28 3
28 -15 8 -11 -11 -19 -28 -19 -38 -1 -17 -2 -17 -15 1 -14 19 -15 18 -16 -15
-1 -31 -2 -31 -8 -9 -7 24 -8 24 -16 -10 l-9 -35 -3 33 c-3 18 -8 30 -14 27
-9 -6 -56 32 -48 38 74 61 228 156 293 183 127 52 220 62 346 40z m-1431 -169
c22 -45 43 -100 49 -122 14 -56 22 -182 24 -370 l1 -160 13 98 c25 191 88 317
211 427 132 118 344 154 445 76 78 -59 156 -245 163 -385 l4 -86 -15 50 c-62
208 -94 284 -94 225 0 -11 5 -20 11 -20 7 0 9 -11 6 -30 -5 -24 -4 -28 10 -23
10 4 14 2 10 -5 -4 -6 4 -51 19 -101 31 -108 27 -147 -5 -46 -27 86 -52 148
-65 156 -5 4 -6 14 -3 23 4 10 1 16 -8 16 -17 0 -20 -21 -6 -36 11 -11 67
-179 77 -229 11 -60 -3 -39 -32 48 -31 95 -72 181 -104 217 l-22 25 16 -25 c9
-13 16 -32 16 -42 0 -10 5 -18 10 -18 6 0 10 -8 10 -18 0 -10 4 -22 9 -27 10
-11 71 -205 71 -226 -1 -18 -32 52 -55 121 -26 80 -45 114 -57 102 -6 -6 -4
-21 8 -43 17 -34 74 -213 74 -233 0 -6 -14 22 -30 61 -16 40 -27 80 -24 88 4
8 1 15 -6 15 -6 0 -10 6 -8 12 3 7 -1 19 -9 26 -7 7 -13 23 -13 34 0 12 -3 19
-6 15 -6 -6 -64 55 -64 68 0 5 10 0 22 -11 12 -10 18 -13 14 -6 -4 7 -1 15 8
18 17 7 10 34 -9 34 -9 0 -11 -8 -8 -22 5 -19 3 -21 -7 -11 -9 9 -19 9 -32 2
-19 -10 -19 -11 -1 -24 10 -8 14 -15 8 -15 -5 0 -3 -4 5 -10 8 -5 12 -12 8
-15 -9 -9 -48 17 -48 32 0 26 -27 11 -119 -65 -80 -66 -101 -89 -143 -162 -48
-85 -88 -194 -88 -244 0 -43 -19 -30 -23 17 -2 25 -5 8 -6 -43 -5 -138 -16
-160 -24 -48 -4 54 -5 108 -3 120 40 189 75 284 128 353 l31 40 -38 -35 c-51
-47 -88 -133 -115 -264 -19 -93 -22 -129 -17 -235 7 -143 27 -270 62 -380 13
-41 23 -77 21 -78 -11 -11 -108 271 -130 376 -26 128 -43 174 -31 86 17 -129
56 -346 69 -390 9 -27 14 -51 12 -52 -8 -8 -48 122 -82 262 -20 83 -40 157
-45 165 -7 11 -8 8 -4 -10 36 -181 57 -281 65 -309 5 -19 8 -36 6 -38 -5 -6
-74 180 -96 259 -22 79 -119 350 -120 333 0 -6 16 -66 36 -134 19 -68 33 -125
31 -127 -11 -11 -84 232 -106 353 -6 28 -25 82 -43 120 l-33 68 -6 -55 c-4
-40 -6 -46 -8 -20 -1 19 -10 68 -21 109 -25 94 -25 162 0 242 26 85 51 120
135 184 39 30 71 54 73 54 2 1 20 -36 41 -82z m3258 -209 c-3 -8 -6 -5 -6 6
-1 11 2 17 5 13 3 -3 4 -12 1 -19z m983 -173 c0 -30 -25 -34 -40 -6 -8 16 -6
20 8 24 31 8 32 7 32 -18z m-3635 -44 c-3 -6 -11 -8 -17 -5 -6 4 -5 9 3 15 16
10 23 4 14 -10z m59 -2 c-3 -5 -10 -7 -15 -3 -5 3 -7 10 -3 15 3 5 10 7 15 3
5 -3 7 -10 3 -15z m-104 -10 c0 -5 -4 -9 -10 -9 -5 0 -10 7 -10 16 0 8 5 12
10 9 6 -3 10 -10 10 -16z m70 -9 c0 -5 -5 -10 -11 -10 -5 0 -7 5 -4 10 3 6 8
10 11 10 2 0 4 -4 4 -10z m60 -11 c0 -5 -4 -9 -10 -9 -5 0 -10 7 -10 16 0 8 5
12 10 9 6 -3 10 -10 10 -16z m-170 1 c0 -5 -4 -10 -10 -10 -5 0 -10 5 -10 10
0 6 5 10 10 10 6 0 10 -4 10 -10z m-30 -20 c0 -5 -4 -10 -10 -10 -5 0 -10 5
-10 10 0 6 5 10 10 10 6 0 10 -4 10 -10z m168 -15 c-3 -3 -9 2 -12 12 -6 14
-5 15 5 6 7 -7 10 -15 7 -18z m-225 -28 c-17 -17 -33 -41 -35 -52 -2 -11 -9
-19 -14 -18 -11 2 -64 -93 -64 -113 0 -6 -7 -18 -16 -25 -15 -12 -16 -11 -9
11 22 73 76 169 115 204 50 45 67 40 23 -7z m273 18 c9 -37 0 -40 -13 -5 -6
17 -7 30 -2 30 5 0 11 -11 15 -25z m22 -80 c-3 -3 -9 2 -12 12 -6 14 -5 15 5
6 7 -7 10 -15 7 -18z m22 -60 c0 -5 -5 -3 -10 5 -5 8 -10 20 -10 25 0 6 5 3
10 -5 5 -8 10 -19 10 -25z m-355 -5 c3 -5 -1 -10 -10 -10 -9 0 -13 5 -10 10 3
6 8 10 10 10 2 0 7 -4 10 -10z m-30 -60 c8 -13 -5 -13 -25 0 -13 8 -13 10 2
10 9 0 20 -4 23 -10z m2515 -290 c-43 -10 -222 -40 -238 -40 -25 0 -11 15 16
16 27 1 73 8 147 23 22 5 56 9 75 9 l35 0 -35 -8z m-2673 -67 c-3 -10 -5 -4
-5 12 0 17 2 24 5 18 2 -7 2 -21 0 -30z m2373 27 c0 -6 -25 -9 -57 -8 l-58 1
55 7 c30 4 56 7 58 8 1 1 2 -2 2 -8z m37 4 c-3 -3 -12 -4 -19 -1 -8 3 -5 6 6
6 11 1 17 -2 13 -5z m-170 -20 c-3 -3 -12 -4 -19 -1 -8 3 -5 6 6 6 11 1 17 -2
13 -5z m-980 -40 c-3 -3 -12 -4 -19 -1 -8 3 -5 6 6 6 11 1 17 -2 13 -5z m1533
-4 c-293 -14 -585 -22 -580 -16 4 3 103 8 220 12 118 4 217 8 219 10 2 2 70 3
150 2 l146 -1 -155 -7z m-617 -27 c-7 -2 -21 -2 -30 0 -10 3 -4 5 12 5 17 0
24 -2 18 -5z m617 -139 c36 -3 67 -8 69 -10 13 -12 -17 -10 -139 6 -128 18
-89 20 70 4z m140 -20 c0 -2 -13 -4 -30 -4 -16 0 -30 4 -30 8 0 5 14 7 30 4
17 -2 30 -6 30 -8z m60 -10 c0 -2 -11 -4 -25 -4 -14 0 -25 4 -25 9 0 4 11 6
25 3 14 -2 25 -6 25 -8z m63 -11 c-7 -2 -21 -2 -30 0 -10 3 -4 5 12 5 17 0 24
-2 18 -5z m85 -20 c-10 -2 -28 -2 -40 0 -13 2 -5 4 17 4 22 1 32 -1 23 -4z
m135 -10 c-13 -2 -33 -2 -45 0 -13 2 -3 4 22 4 25 0 35 -2 23 -4z m-340 -70
c-7 -2 -21 -2 -30 0 -10 3 -4 5 12 5 17 0 24 -2 18 -5z m60 -10 c-7 -2 -21 -2
-30 0 -10 3 -4 5 12 5 17 0 24 -2 18 -5z m95 -10 c-10 -2 -28 -2 -40 0 -13 2
-5 4 17 4 22 1 32 -1 23 -4z m55 -10 c-7 -2 -19 -2 -25 0 -7 3 -2 5 12 5 14 0
19 -2 13 -5z m-3508 -123 c3 -6 -1 -7 -9 -4 -18 7 -21 14 -7 14 6 0 13 -4 16
-10z m-30 -10 c3 -6 -1 -7 -9 -4 -18 7 -21 14 -7 14 6 0 13 -4 16 -10z m3352
-16 c-3 -3 -12 -4 -19 -1 -8 3 -5 6 6 6 11 1 17 -2 13 -5z m43 -14 c8 -5 11
-10 5 -10 -5 0 -17 5 -25 10 -8 5 -10 10 -5 10 6 0 17 -5 25 -10z"/>
<path d="M3951 8915 c0 -11 6 -45 14 -75 8 -30 15 -91 16 -135 0 -44 4 -100 9
-125 5 -28 6 7 3 95 -2 77 -9 149 -14 160 -5 11 -13 38 -18 60 -5 22 -9 31
-10 20z"/>
<path d="M3953 8770 c0 -30 2 -43 4 -27 2 15 2 39 0 55 -2 15 -4 2 -4 -28z"/>
<path d="M3901 8114 c0 -11 3 -14 6 -6 3 7 2 16 -1 19 -3 4 -6 -2 -5 -13z"/>
<path d="M3911 8074 c0 -11 3 -14 6 -6 3 7 2 16 -1 19 -3 4 -6 -2 -5 -13z"/>
<path d="M4131 7894 c0 -11 3 -14 6 -6 3 7 2 16 -1 19 -3 4 -6 -2 -5 -13z"/>
<path d="M4151 7814 c0 -11 3 -14 6 -6 3 7 2 16 -1 19 -3 4 -6 -2 -5 -13z"/>
<path d="M4083 7810 c2 -8 13 -53 23 -99 10 -47 20 -79 22 -73 5 17 -26 153
-39 172 -10 13 -10 13 -6 0z"/>
<path d="M4131 7764 c0 -11 3 -14 6 -6 3 7 2 16 -1 19 -3 4 -6 -2 -5 -13z"/>
<path d="M4848 8649 c-12 -6 -18 -21 -17 -42 1 -24 3 -26 6 -9 3 17 11 22 36
22 34 0 63 -16 110 -58 15 -14 27 -22 27 -17 0 16 -53 77 -84 96 -35 21 -53
23 -78 8z"/>
<path d="M4815 8528 c-39 -14 -40 -15 -25 -33 14 -16 118 -20 155 -6 18 7 17
10 -14 26 -44 22 -79 26 -116 13z"/>
<path d="M5031 8353 c-1 -6 -4 -20 -7 -30 -5 -17 -5 -17 6 0 6 10 9 23 6 30
-3 9 -5 9 -5 0z"/>
<path d="M5051 8344 c0 -11 3 -14 6 -6 3 7 2 16 -1 19 -3 4 -6 -2 -5 -13z"/>
<path d="M4823 8267 c-4 -6 -1 -7 7 -2 9 6 10 2 5 -16 -4 -13 -12 -28 -18 -34
-7 -7 -8 -4 -4 8 4 11 3 16 -4 12 -6 -4 -8 -13 -5 -20 3 -8 -2 -19 -10 -25 -8
-7 -14 -16 -14 -21 0 -13 49 40 65 71 8 16 15 31 15 33 0 8 -31 3 -37 -6z"/>
<path d="M4586 7460 c-25 -19 -33 -30 -23 -30 9 0 31 13 49 30 43 38 25 38
-26 0z"/>
<path d="M4670 7413 c-52 -6 -56 -19 -5 -15 25 2 45 8 45 13 0 5 -1 8 -2 7 -2
0 -19 -3 -38 -5z"/>
<path d="M5028 7353 c7 -3 16 -2 19 1 4 3 -2 6 -13 5 -11 0 -14 -3 -6 -6z"/>
<path d="M5365 7149 c-16 -11 -23 -19 -15 -19 16 1 56 27 49 34 -2 2 -17 -5
-34 -15z"/>
<path d="M5120 7105 c-7 -9 -11 -17 -9 -20 3 -2 10 5 17 15 14 24 10 26 -8 5z"/>
<path d="M3950 7082 c0 -5 7 -9 15 -9 8 0 12 4 9 9 -3 4 -9 8 -15 8 -5 0 -9
-4 -9 -8z"/>
<path d="M3860 7050 c-9 -6 -10 -10 -3 -10 6 0 15 5 18 10 8 12 4 12 -15 0z"/>
<path d="M3991 7044 c0 -11 3 -14 6 -6 3 7 2 16 -1 19 -3 4 -6 -2 -5 -13z"/>
<path d="M4566 7025 c4 -8 8 -15 10 -15 2 0 4 7 4 15 0 8 -4 15 -10 15 -5 0
-7 -7 -4 -15z"/>
<path d="M4625 7030 c4 -6 11 -8 16 -5 14 9 11 15 -7 15 -8 0 -12 -5 -9 -10z"/>
<path d="M4500 7020 c0 -5 7 -10 15 -10 8 0 15 5 15 10 0 6 -7 10 -15 10 -8 0
-15 -4 -15 -10z"/>
<path d="M4726 7011 c-4 -7 -5 -15 -2 -18 9 -9 19 4 14 18 -4 11 -6 11 -12 0z"/>
<path d="M3935 7000 c-4 -6 -3 -16 3 -22 6 -6 12 -6 17 2 4 6 3 16 -3 22 -6 6
-12 6 -17 -2z"/>
<path d="M4015 6999 c-8 -12 0 -22 19 -25 9 -1 12 5 9 17 -6 21 -18 25 -28 8z"/>
<path d="M4442 6984 c10 -10 20 -16 22 -13 3 3 -5 11 -17 18 -21 13 -21 12 -5
-5z"/>
<path d="M4770 6970 c0 -5 5 -10 11 -10 5 0 7 5 4 10 -3 6 -8 10 -11 10 -2 0
-4 -4 -4 -10z"/>
<path d="M4560 6960 c0 -5 5 -10 10 -10 6 0 10 5 10 10 0 6 -4 10 -10 10 -5 0
-10 -4 -10 -10z"/>
<path d="M3830 6941 c5 -11 15 -23 21 -27 6 -3 3 5 -6 20 -20 30 -30 35 -15 7z"/>
<path d="M4700 6950 c0 -5 5 -10 11 -10 5 0 7 5 4 10 -3 6 -8 10 -11 10 -2 0
-4 -4 -4 -10z"/>
<path d="M4050 6939 c0 -6 -7 -9 -15 -5 -18 6 -19 1 -4 -25 5 -11 17 -111 25
-222 8 -111 17 -206 19 -212 8 -16 -3 348 -11 375 -4 14 -7 42 -8 63 0 20 -1
37 -3 37 -2 0 -3 -5 -3 -11z"/>
<path d="M4803 6933 c-21 -7 -15 -23 8 -23 11 0 17 -4 14 -10 -3 -5 -1 -10 4
-10 14 0 13 11 -2 31 -7 9 -18 14 -24 12z"/>
<path d="M3950 6910 c0 -5 5 -10 10 -10 6 0 10 5 10 10 0 6 -4 10 -10 10 -5 0
-10 -4 -10 -10z"/>
<path d="M4360 6912 c0 -5 7 -16 16 -23 14 -12 16 -11 13 5 -4 20 -29 35 -29
18z"/>
<path d="M4751 6904 c0 -11 3 -14 6 -6 3 7 2 16 -1 19 -3 4 -6 -2 -5 -13z"/>
<path d="M4630 6900 c0 -5 5 -10 10 -10 6 0 10 5 10 10 0 6 -4 10 -10 10 -5 0
-10 -4 -10 -10z"/>
<path d="M4486 6892 c-3 -6 -1 -14 5 -17 15 -10 25 3 12 16 -7 7 -13 7 -17 1z"/>
<path d="M3820 6843 c18 -24 35 -43 37 -43 7 0 -35 56 -54 71 -9 8 -2 -5 17
-28z"/>
<path d="M4310 6860 c0 -11 6 -20 14 -20 8 0 16 -6 19 -12 2 -7 7 -10 11 -7 4
4 -4 18 -18 32 -24 24 -26 24 -26 7z"/>
<path d="M3990 6843 c0 -12 5 -25 10 -28 13 -8 13 15 0 35 -8 12 -10 11 -10
-7z"/>
<path d="M4253 6818 c-71 -105 -113 -248 -112 -373 l1 -70 8 50 c18 112 40
213 58 266 24 68 61 142 76 151 6 4 8 10 4 13 -3 4 -19 -13 -35 -37z"/>
<path d="M4785 6850 c-3 -5 -2 -10 4 -10 5 0 13 5 16 10 3 6 2 10 -4 10 -5 0
-13 -4 -16 -10z"/>
<path d="M4281 6803 c-10 -26 -10 -27 4 -9 8 11 15 23 15 28 0 15 -7 8 -19
-19z"/>
<path d="M4410 6799 c-29 -21 -17 -25 19 -5 13 7 20 16 15 19 -5 3 -21 -3 -34
-14z"/>
<path d="M4620 6810 c0 -5 7 -10 15 -10 8 0 15 5 15 10 0 6 -7 10 -15 10 -8 0
-15 -4 -15 -10z"/>
<path d="M3946 6788 c35 -41 44 -49 44 -41 -1 11 -47 63 -56 63 -4 0 1 -10 12
-22z"/>
<path d="M4017 6760 c7 -53 9 -57 15 -32 3 10 -1 32 -8 48 -12 28 -13 27 -7
-16z"/>
<path d="M4287 6750 c-32 -38 -93 -140 -84 -140 3 0 19 24 35 53 17 28 44 67
61 85 17 18 31 35 31 38 0 10 -11 1 -43 -36z"/>
<path d="M4915 6739 c8 -28 17 -54 21 -58 4 -3 4 2 1 11 -3 9 -9 33 -13 52 -3
20 -10 38 -14 41 -5 3 -2 -18 5 -46z"/>
<path d="M4250 6755 c-7 -9 -11 -17 -9 -20 3 -2 10 5 17 15 14 24 10 26 -8 5z"/>
<path d="M4722 6739 c-12 -18 -11 -20 5 -17 10 2 19 11 21 21 5 23 -10 21 -26
-4z"/>
<path d="M4404 6714 c-18 -14 -18 -15 4 -4 12 6 22 13 22 15 0 8 -5 6 -26 -11z"/>
<path d="M4225 6709 c-4 -6 -5 -12 -2 -15 2 -3 7 2 10 11 7 17 1 20 -8 4z"/>
<path d="M4315 6709 c-4 -6 -5 -12 -2 -15 2 -3 7 2 10 11 7 17 1 20 -8 4z"/>
<path d="M4032 6660 c0 -19 2 -27 5 -17 2 9 2 25 0 35 -3 9 -5 1 -5 -18z"/>
<path d="M4379 6673 c-13 -16 -12 -17 4 -4 9 7 17 15 17 17 0 8 -8 3 -21 -13z"/>
<path d="M3974 6619 c3 -14 15 -86 26 -160 12 -74 25 -143 30 -154 5 -11 16
-44 25 -73 25 -78 28 -57 6 39 -10 46 -31 143 -46 214 -15 72 -32 137 -37 145
-7 11 -8 8 -4 -11z"/>
<path d="M4281 6414 c0 -11 3 -14 6 -6 3 7 2 16 -1 19 -3 4 -6 -2 -5 -13z"/>
<path d="M4271 6378 c0 -9 -4 -25 -7 -35 -5 -17 -5 -17 6 0 6 10 9 25 7 35 -4
15 -5 15 -6 0z"/>
<path d="M4021 6274 c0 -11 3 -14 6 -6 3 7 2 16 -1 19 -3 4 -6 -2 -5 -13z"/>
<path d="M5647 8513 c-4 -3 -7 -18 -7 -32 0 -14 -5 -33 -11 -41 -8 -11 -9 -8
-4 15 6 28 5 29 -8 11 -14 -20 -12 -56 4 -56 13 0 29 36 29 65 0 14 4 24 9 21
4 -3 6 -18 4 -33 -4 -22 -2 -25 6 -13 6 8 11 22 11 31 0 19 -24 42 -33 32z"/>
<path d="M6983 6243 c9 -2 23 -2 30 0 6 3 -1 5 -18 5 -16 0 -22 -2 -12 -5z"/>
<path d="M6795 6220 c-49 -10 -106 -20 -125 -21 -25 -1 -29 -3 -12 -6 23 -4
302 36 302 43 0 9 -82 1 -165 -16z"/>
<path d="M7515 5850 c25 -11 122 -11 155 0 16 5 -10 8 -75 8 -64 0 -93 -2 -80
-8z"/>
<path d="M6128 5743 c6 -2 18 -2 25 0 6 3 1 5 -13 5 -14 0 -19 -2 -12 -5z"/>
<path d="M6828 5693 c7 -3 16 -2 19 1 4 3 -2 6 -13 5 -11 0 -14 -3 -6 -6z"/>
<path d="M6768 5613 c7 -3 16 -2 19 1 4 3 -2 6 -13 5 -11 0 -14 -3 -6 -6z"/>
<path d="M6575 5574 c44 -14 103 -32 130 -40 81 -26 376 -137 372 -140 -5 -5
-153 40 -253 76 -45 17 -85 30 -90 30 -16 -1 109 -51 211 -85 55 -18 111 -38
125 -44 39 -19 204 -59 214 -53 5 3 -15 13 -45 23 -30 10 -43 16 -29 13 14 -3
52 -7 85 -11 l60 -5 -34 26 c-19 14 -39 26 -45 26 -5 0 -7 2 -4 5 3 3 18 1 34
-5 26 -10 27 -9 14 4 -17 17 -156 59 -251 76 -35 6 -167 37 -294 67 -263 64
-314 73 -200 37z"/>
<path d="M6210 5517 c3 -3 77 -32 165 -65 148 -55 518 -213 512 -218 -2 -3
-318 104 -371 125 -16 6 -30 10 -32 8 -10 -10 535 -227 579 -231 27 -2 35 0
28 7 -14 14 -14 30 -1 22 6 -3 10 -1 10 4 0 6 10 11 23 12 l22 0 -21 9 c-40
16 -36 28 8 24 24 -2 36 -1 28 2 -8 4 -43 19 -76 35 -67 30 -152 57 -380 118
-121 32 -387 114 -483 149 -9 3 -14 3 -11 -1z m851 -364 c12 -16 12 -17 -1 -7
-8 6 -22 14 -30 17 -13 5 -12 6 1 6 9 1 23 -7 30 -16z"/>
<path d="M6668 5513 c7 -3 16 -2 19 1 4 3 -2 6 -13 5 -11 0 -14 -3 -6 -6z"/>
<path d="M7068 5493 c7 -3 16 -2 19 1 4 3 -2 6 -13 5 -11 0 -14 -3 -6 -6z"/>
<path d="M7225 5449 c104 -30 130 -35 121 -21 -3 5 -31 14 -63 21 -32 7 -71
17 -87 22 -16 5 -38 9 -50 8 -12 0 24 -14 79 -30z"/>
<path d="M6865 5402 c77 -26 146 -51 153 -55 6 -5 12 -4 12 2 0 5 19 1 43 -9
23 -10 60 -21 82 -24 22 -3 56 -10 75 -16 19 -5 44 -10 55 -9 11 0 -2 7 -30
14 -180 48 -212 56 -230 59 -11 2 -67 19 -125 39 -58 19 -121 38 -140 41 -19
4 28 -15 105 -42z"/>
<path d="M3698 5403 c7 -3 16 -2 19 1 4 3 -2 6 -13 5 -11 0 -14 -3 -6 -6z"/>
<path d="M4139 5373 c-13 -16 -12 -17 4 -4 16 13 21 21 13 21 -2 0 -10 -8 -17
-17z"/>
<path d="M3650 5340 c-19 -11 -31 -19 -27 -20 11 0 67 29 67 35 0 7 -1 7 -40
-15z"/>
<path d="M5015 5340 c10 -11 20 -20 23 -20 3 0 -3 9 -13 20 -10 11 -20 20 -23
20 -3 0 3 -9 13 -20z"/>
<path d="M6392 5345 c20 -8 52 -20 70 -29 18 -8 89 -40 158 -71 139 -64 277
-114 328 -121 18 -2 43 -9 54 -15 16 -9 19 -8 16 3 -6 19 -81 53 -221 99 -67
22 -149 51 -182 64 -170 66 -226 85 -242 84 -10 0 -1 -7 19 -14z"/>
<path d="M6252 5301 c49 -23 92 -41 98 -41 15 0 301 -143 296 -148 -3 -2 -65
23 -138 57 -141 66 -157 61 -23 -7 160 -81 323 -152 361 -157 37 -4 38 -3 19
12 -20 15 -20 15 3 10 20 -5 21 -3 10 10 -11 14 -10 16 15 11 33 -6 36 5 5 19
-140 62 -636 250 -713 269 -11 3 19 -13 67 -35z"/>
<path d="M3198 5281 c-52 -24 -62 -37 -13 -17 22 10 44 21 50 27 12 12 7 11
-37 -10z"/>
<path d="M3288 5261 c-63 -25 -288 -134 -284 -138 2 -2 68 26 147 63 79 36
158 72 174 79 44 20 18 17 -37 -4z"/>
<path d="M3505 5270 c-3 -6 1 -7 9 -4 18 7 21 14 7 14 -6 0 -13 -4 -16 -10z"/>
<path d="M6490 5276 c0 -2 7 -7 16 -10 8 -3 12 -2 9 4 -6 10 -25 14 -25 6z"/>
<path d="M3705 5237 c-81 -44 -165 -100 -165 -110 0 -4 15 3 33 17 19 15 37
26 41 26 5 0 22 10 38 22 17 11 53 34 82 49 28 16 47 29 41 29 -5 0 -37 -15
-70 -33z"/>
<path d="M7095 5260 c6 -10 113 -42 126 -38 6 2 -21 13 -60 24 -39 12 -68 18
-66 14z"/>
<path d="M6560 5240 c19 -11 42 -19 50 -19 8 0 -3 9 -24 19 -51 26 -72 25 -26
0z"/>
<path d="M2814 5094 c-570 -289 -722 -371 -789 -429 -29 -25 -29 -26 -5 -20
14 4 54 20 89 36 35 16 66 27 68 25 4 -4 -91 -72 -194 -138 -24 -15 -43 -30
-43 -34 0 -15 173 100 235 156 41 37 305 178 441 235 61 25 120 52 130 60 28
21 -275 -108 -390 -166 -54 -27 -100 -48 -102 -46 -7 7 17 22 131 82 61 32
148 79 195 105 47 26 193 102 325 169 132 66 235 121 229 121 -7 0 -151 -70
-320 -156z"/>
<path d="M3838 5161 c-58 -43 -112 -84 -120 -92 -60 -67 -68 -80 -23 -38 28
25 96 81 153 123 87 66 112 87 100 86 -2 0 -51 -36 -110 -79z"/>
<path d="M3918 5171 c-40 -32 -84 -72 -98 -87 -32 -36 -3 -15 60 43 25 23 59
52 75 64 41 31 50 39 43 39 -4 0 -40 -27 -80 -59z"/>
<path d="M6336 5194 c27 -14 90 -48 140 -75 97 -52 247 -113 304 -123 27 -5
21 0 -25 19 -33 14 -80 36 -105 49 -25 13 -63 29 -85 36 -22 7 -88 37 -147 66
-107 54 -174 77 -82 28z"/>
<path d="M6650 5206 c0 -3 19 -14 43 -24 23 -11 80 -36 126 -57 79 -35 181
-68 188 -61 4 4 -134 66 -147 66 -13 0 -148 52 -202 78 -5 2 -8 1 -8 -2z"/>
<path d="M4149 5173 l-24 -28 28 24 c25 23 32 31 24 31 -2 0 -14 -12 -28 -27z"/>
<path d="M6055 5193 c17 -17 211 -130 236 -138 38 -12 190 -88 185 -92 -2 -2
-32 10 -67 28 -35 17 -87 40 -116 50 -29 11 -77 28 -107 38 -30 11 -65 25 -78
31 -19 10 -21 10 -10 -1 7 -8 29 -20 50 -29 51 -21 148 -78 162 -96 7 -8 -27
7 -76 33 -79 41 -86 43 -64 19 13 -15 43 -35 65 -45 22 -10 47 -26 55 -37 12
-14 9 -14 -14 4 -16 12 -34 22 -40 22 -16 1 -92 40 -150 78 -28 18 -55 32 -60
32 -6 0 1 -8 16 -18 54 -36 108 -77 108 -84 0 -18 -35 -5 -83 31 -80 60 -108
69 -47 15 63 -55 195 -185 165 -162 -11 8 -64 52 -118 97 -55 45 -112 88 -128
96 -30 16 -40 32 -14 21 23 -9 18 0 -12 20 -24 15 -26 15 -14 1 7 -9 9 -17 3
-17 -5 0 -14 6 -20 13 -6 7 -33 28 -59 46 l-48 33 42 -39 c23 -21 86 -77 140
-124 54 -48 114 -103 133 -124 19 -20 72 -61 117 -91 45 -30 85 -59 88 -64 4
-6 12 -10 18 -10 7 1 -1 12 -18 25 -41 34 -23 31 28 -3 23 -16 49 -32 57 -37
26 -14 -44 57 -75 76 -17 11 -23 19 -15 19 9 0 31 -13 50 -28 36 -30 73 -52
86 -52 4 0 -19 25 -52 55 l-59 55 68 -45 c82 -54 105 -58 51 -10 l-39 36 53
-26 c61 -30 67 -19 15 26 -35 29 -29 32 7 5 8 -7 32 -20 53 -29 l39 -18 -52
51 c-29 28 -50 54 -46 57 3 3 15 -2 26 -12 11 -10 20 -15 20 -11 0 3 12 -1 28
-11 22 -14 20 -9 -13 26 -31 34 -35 41 -15 30 14 -7 34 -14 44 -16 11 -2 25
-8 33 -14 9 -8 13 -8 13 0 0 11 -72 61 -89 61 -5 0 -13 5 -16 11 -4 5 10 3 32
-6 93 -40 134 -55 129 -46 -10 16 -81 52 -342 176 -137 65 -253 120 -259 123
-7 3 -7 2 0 -5z m130 -213 c3 -5 2 -10 -4 -10 -5 0 -13 5 -16 10 -3 6 -2 10 4
10 5 0 13 -4 16 -10z m-30 -30 c10 -11 16 -20 13 -20 -3 0 -13 9 -23 20 -10
11 -16 20 -13 20 3 0 13 -9 23 -20z m116 -16 c9 -11 2 -9 -18 6 -18 13 -33 25
-33 27 0 8 38 -17 51 -33z m-35 -15 c3 -6 -5 -3 -20 6 -14 10 -26 19 -26 22 0
7 39 -17 46 -28z"/>
<path d="M6285 5182 c14 -14 195 -117 274 -156 65 -33 179 -71 187 -63 3 2
-19 14 -47 27 -29 12 -136 62 -238 111 -102 50 -181 86 -176 81z"/>
<path d="M3648 5150 c-27 -17 -48 -32 -48 -35 0 -3 23 9 50 26 28 17 50 33 50
35 0 6 -2 5 -52 -26z"/>
<path d="M3440 5160 c-9 -6 -10 -10 -3 -10 6 0 15 5 18 10 8 12 4 12 -15 0z"/>
<path d="M5645 5163 c25 -26 159 -135 241 -196 51 -37 97 -74 104 -82 7 -8 35
-27 61 -42 27 -14 47 -28 45 -31 -7 -6 -97 50 -173 109 -35 27 -69 49 -75 49
-14 0 111 -114 127 -116 18 -3 75 -46 75 -57 0 -5 -19 6 -42 25 l-43 33 24
-40 23 -40 -43 43 c-24 24 -84 70 -134 103 -89 59 -80 46 28 -40 30 -25 68
-61 83 -80 28 -35 27 -35 -26 9 -30 25 -80 65 -110 88 -30 23 -82 62 -115 88
l-60 46 64 -61 c35 -34 113 -102 173 -153 154 -131 143 -132 -26 -4 -55 41
-124 88 -155 105 -31 16 -85 56 -120 88 -68 61 -69 49 -4 -27 46 -54 124 -161
182 -250 37 -56 38 -60 11 -30 -73 80 -129 150 -172 216 -26 38 -57 79 -70 89
l-23 20 21 -25 c12 -14 51 -70 87 -125 36 -55 80 -120 98 -145 l34 -45 -37 29
c-21 16 -38 31 -38 35 0 4 -33 42 -72 86 -40 44 -83 94 -96 110 -13 17 -20 23
-16 15 15 -30 69 -106 119 -167 46 -57 101 -143 92 -143 -3 0 -23 24 -45 53
-22 28 -73 88 -114 133 -40 44 -110 123 -154 175 -45 52 -94 108 -108 124 -32
35 88 -143 153 -230 25 -33 101 -143 168 -245 153 -232 159 -240 123 -158 -17
37 -30 70 -30 73 0 14 22 -9 46 -46 33 -53 49 -50 19 4 -37 63 -30 69 10 9 20
-28 41 -52 48 -52 8 0 9 3 1 8 -6 4 -14 21 -18 37 l-7 30 40 -40 c53 -51 53
-38 -1 23 -37 41 -38 43 -8 17 19 -17 46 -39 59 -50 l24 -20 -17 33 c-10 19
-12 32 -6 32 6 0 8 5 5 10 -4 6 -11 7 -17 4 -6 -4 -8 -2 -4 4 3 5 0 13 -6 15
-7 3 -8 6 -3 6 6 0 24 -12 40 -27 17 -15 25 -23 18 -18 -21 14 -25 1 -5 -17
18 -16 19 -16 30 9 7 14 9 23 4 20 -4 -2 -23 9 -42 26 l-35 30 38 -26 c20 -15
37 -24 37 -20 0 3 7 1 15 -6 9 -7 18 -10 21 -8 5 5 -20 27 -62 55 -15 10 -13
10 11 1 17 -7 37 -18 46 -25 24 -20 34 -15 14 7 -10 11 -13 20 -7 20 6 0 14
-4 17 -10 3 -5 13 -10 21 -10 12 0 13 4 3 23 -10 19 -8 19 18 -5 46 -43 52
-33 8 13 -43 45 -33 43 28 -4 56 -43 45 -21 -20 40 l-58 55 53 -39 c30 -21 58
-37 64 -35 5 1 7 -2 4 -7 -4 -5 -1 -13 5 -17 8 -4 9 -3 5 4 -4 7 -1 12 6 12 7
0 -9 21 -37 46 l-50 46 65 -49 c93 -70 102 -73 45 -14 -27 28 -46 51 -41 51 4
0 19 -14 33 -31 14 -16 32 -28 39 -25 8 3 14 1 14 -3 0 -5 8 -12 17 -15 15 -6
15 -5 -1 13 -10 11 -22 18 -27 16 -4 -3 -11 0 -15 6 -5 8 -3 9 6 4 10 -6 12
-4 6 11 -6 17 -5 17 16 -3 13 -11 34 -24 48 -28 21 -5 19 -3 -9 15 -45 29 -33
36 15 9 36 -20 38 -20 22 -2 -10 11 -18 24 -18 30 0 6 -7 16 -15 23 -9 7 -13
15 -10 18 7 7 -16 33 -24 28 -4 -3 -27 11 -51 31 -25 19 -128 91 -230 159
-102 68 -207 140 -235 161 -27 20 -45 32 -40 26z m440 -403 c10 -11 16 -20 13
-20 -3 0 -13 9 -23 20 -10 11 -16 20 -13 20 3 0 13 -9 23 -20z m-55 -26 c0 -2
-9 0 -20 6 -11 6 -20 13 -20 16 0 2 9 0 20 -6 11 -6 20 -13 20 -16z m121 -1
c13 -16 12 -17 -3 -4 -10 7 -18 15 -18 17 0 8 8 3 21 -13z m-316 -163 c10 -11
16 -20 13 -20 -3 0 -13 9 -23 20 -10 11 -16 20 -13 20 3 0 13 -9 23 -20z"/>
<path d="M6210 5164 c0 -2 22 -15 49 -29 27 -13 65 -35 84 -48 42 -29 321
-167 336 -167 15 0 14 17 -1 24 -7 3 -2 3 12 0 20 -5 23 -4 13 7 -7 7 -20 13
-30 14 -25 3 -44 11 -158 66 -120 58 -305 139 -305 133z"/>
<path d="M3729 5143 c-13 -16 -12 -17 4 -4 16 13 21 21 13 21 -2 0 -10 -8 -17
-17z"/>
<path d="M3569 5093 c-13 -16 -12 -17 4 -4 16 13 21 21 13 21 -2 0 -10 -8 -17
-17z"/>
<path d="M5187 4978 c36 -62 111 -200 166 -307 95 -183 145 -261 170 -261 6 0
0 12 -14 26 -24 26 -24 26 -1 15 12 -6 23 -16 23 -21 1 -6 2 -15 3 -22 0 -6 7
-13 14 -16 15 -5 1 35 -30 88 -19 31 -16 30 32 -18 29 -29 55 -50 58 -48 2 3
-14 26 -36 53 -39 47 -93 122 -329 461 -63 89 -116 162 -118 162 -2 0 25 -51
62 -112z"/>
<path d="M2670 5060 c-8 -5 -10 -10 -5 -10 6 0 17 5 25 10 8 5 11 10 5 10 -5
0 -17 -5 -25 -10z"/>
<path d="M3779 5023 l-24 -28 28 24 c25 23 32 31 24 31 -2 0 -14 -12 -28 -27z"/>
<path d="M2520 5010 c-8 -5 -10 -10 -5 -10 6 0 17 5 25 10 8 5 11 10 5 10 -5
0 -17 -5 -25 -10z"/>
<path d="M3770 4975 c-24 -25 -42 -45 -39 -45 3 0 25 20 49 45 24 25 42 45 39
45 -3 0 -25 -20 -49 -45z"/>
<path d="M2415 4960 c-39 -26 -25 -26 17 0 18 11 29 20 23 20 -5 0 -23 -9 -40
-20z"/>
<path d="M3619 4963 c-13 -16 -12 -17 4 -4 9 7 17 15 17 17 0 8 -8 3 -21 -13z"/>
<path d="M2709 4877 c-42 -24 -82 -41 -90 -39 -12 3 -12 2 0 -6 10 -7 -6 -20
-61 -50 -41 -23 -90 -55 -109 -71 -19 -17 -44 -40 -57 -51 -12 -11 -25 -20
-28 -20 -3 0 -33 -20 -67 -44 -34 -24 -109 -72 -167 -106 -106 -63 -159 -100
-145 -100 4 0 19 8 33 19 15 10 70 42 122 71 128 72 246 151 300 202 25 24 72
59 105 79 73 44 237 148 244 154 12 12 -10 2 -80 -38z"/>
<path d="M2540 4857 c-116 -50 -327 -163 -365 -196 -11 -10 -65 -49 -120 -86
-107 -73 -144 -103 -82 -65 51 30 59 19 10 -14 -42 -29 -38 -34 7 -11 27 14
35 26 31 48 0 4 8 7 18 7 11 0 40 16 65 35 26 19 48 35 51 35 2 0 73 44 157
97 84 53 191 116 238 140 100 50 96 54 -10 10z"/>
<path d="M5004 4877 c3 -10 30 -95 60 -190 47 -148 86 -292 86 -315 -1 -18
-22 31 -51 116 -18 50 -34 91 -36 89 -1 -2 6 -46 17 -97 30 -135 19 -142 -22
-15 -42 127 -46 123 -18 -17 12 -55 19 -103 16 -105 -2 -3 -21 47 -42 111 -20
64 -38 115 -40 113 -4 -3 32 -206 41 -232 6 -19 6 -19 -8 -2 -14 17 -34 75
-57 166 -20 76 -19 39 1 -59 11 -52 18 -99 16 -105 -4 -10 -67 177 -102 303
-10 34 -19 61 -22 59 -2 -2 6 -64 16 -138 11 -73 19 -135 17 -136 -2 -2 -13
29 -24 69 -16 54 -20 62 -16 29 6 -41 5 -43 -16 -36 -20 6 -22 4 -17 -16 3
-13 8 -60 11 -104 6 -94 -4 -65 -29 80 -17 97 -32 166 -34 150 -1 -5 6 -73 14
-150 8 -77 14 -151 14 -165 -1 -34 -34 91 -55 211 -9 55 -19 98 -21 95 -5 -4
14 -223 22 -256 4 -17 1 -15 -9 8 -9 19 -24 77 -35 130 l-19 97 -2 -120 c-2
-108 -3 -114 -11 -65 -5 30 -13 107 -18 170 -8 115 -8 114 -11 -95 -1 -115 -6
-223 -10 -240 l-8 -30 -1 28 c0 16 -5 26 -11 22 -6 -4 -11 13 -12 42 l-1 48
-7 -45 -7 -45 -3 45 -3 45 -10 -52 c-9 -48 -26 -72 -28 -40 -1 6 -5 1 -9 -13
-7 -22 -8 -22 -10 -5 -2 13 -6 7 -11 -15 -7 -32 -8 -31 -5 12 4 49 -12 62 -26
23 -4 -11 -6 12 -3 50 10 145 18 420 12 415 -3 -3 -15 -75 -26 -160 -11 -85
-29 -218 -41 -295 -11 -77 -20 -148 -20 -159 0 -19 1 -19 16 2 9 13 20 35 24
50 11 36 3 -65 -16 -188 -14 -88 -36 -162 -95 -315 -21 -56 -23 -76 -25 -280
-1 -245 -10 -292 -89 -475 -71 -164 -98 -247 -160 -495 -73 -296 -100 -359
-237 -561 -87 -128 -175 -291 -215 -399 -26 -71 -43 -197 -44 -318 -1 -115 0
-119 33 -178 18 -33 44 -67 58 -76 26 -15 27 -14 100 61 82 85 116 137 157
239 38 98 46 92 12 -9 -34 -98 -61 -145 -132 -227 -28 -31 -48 -59 -45 -62 2
-3 28 4 58 15 30 11 55 18 57 16 7 -7 -71 -38 -109 -43 -21 -3 -40 -9 -43 -12
-5 -9 108 4 127 14 7 4 1 -4 -14 -19 -20 -19 -39 -26 -70 -28 l-43 -1 50 -7
c28 -4 42 -8 33 -8 -10 -1 -18 -6 -18 -11 0 -5 8 -12 18 -15 9 -3 5 -4 -10 -2
-15 2 -25 -1 -22 -5 3 -5 17 -10 32 -10 20 -1 17 -4 -13 -9 -39 -6 -39 -7 -15
-18 14 -6 18 -11 10 -12 -10 0 -6 -6 10 -16 l25 -15 -25 5 c-22 5 -22 4 5 -10
l30 -15 -27 4 c-34 5 -36 0 -5 -13 20 -8 21 -9 2 -10 l-20 -1 20 -9 20 -9 -20
-1 -20 -1 20 -9 c16 -7 17 -9 3 -9 -17 -1 -19 -16 -5 -39 5 -7 3 -12 -4 -12
-8 0 -8 -4 1 -15 11 -13 7 -15 -28 -15 -22 0 -44 6 -49 13 -20 24 -96 297 -84
297 5 0 -2 21 -14 47 -12 27 -28 59 -34 73 -22 47 -3 -119 25 -225 15 -55 29
-109 31 -121 5 -21 2 -21 -289 -27 -161 -4 -380 -7 -487 -7 -107 0 -192 -2
-190 -4 8 -7 358 -16 669 -17 470 -2 274 -15 -360 -24 -735 -10 -934 -21 -410
-23 569 -3 1100 -14 1100 -24 0 -4 -134 -9 -297 -9 -225 -1 -286 -4 -248 -11
68 -13 3340 -13 3415 0 62 11 -842 18 -1995 16 -374 -1 -653 1 -620 5 33 4
847 8 1810 9 964 1 1753 6 1758 11 15 15 -626 24 -2603 37 -520 3 -947 8 -949
10 -2 2 830 5 1850 6 1020 1 1730 5 1579 9 -151 3 -987 10 -1858 14 l-1583 8
7 21 c3 12 8 126 10 254 2 128 5 236 7 240 2 4 10 25 17 47 7 22 28 72 46 111
45 93 47 172 8 245 l-27 48 28 48 c60 102 319 486 439 648 140 188 216 327
246 447 23 95 40 240 40 355 0 225 56 426 164 596 57 90 60 90 119 21 70 -81
142 -149 275 -262 81 -67 128 -116 162 -167 63 -94 94 -118 220 -178 195 -92
283 -167 505 -433 55 -65 163 -191 240 -279 272 -310 308 -358 562 -742 229
-345 286 -404 570 -586 180 -115 372 -190 417 -165 22 13 55 84 56 120 0 37
-31 71 -209 222 -209 178 -225 207 -241 444 -16 244 -64 301 -225 266 -136
-29 -128 -30 -174 11 -39 36 -84 104 -228 349 -89 151 -107 188 -179 368 -65
165 -116 252 -206 352 -60 67 -222 209 -316 276 -170 122 -233 173 -301 246
-137 145 -183 219 -352 558 -88 176 -165 327 -172 336 -8 10 -5 9 9 -2 32 -27
38 -21 14 13 -29 40 -19 48 13 9 29 -34 43 -40 27 -11 -16 31 -12 36 13 15
l22 -19 -21 25 c-33 38 -165 236 -213 318 -23 39 -43 72 -45 72 -2 0 16 -46
41 -102 25 -57 54 -123 65 -148 10 -24 17 -42 14 -39 -11 11 -108 174 -132
221 -13 27 -26 48 -29 48 -4 0 23 -62 83 -190 16 -36 33 -81 37 -100 l6 -35
-20 42 c-10 23 -40 72 -65 108 -25 37 -46 72 -46 78 0 6 -3 8 -6 5 -3 -3 6
-29 20 -57 15 -28 26 -53 26 -56 0 -22 1 -25 10 -20 5 3 7 0 4 -9 -3 -8 2 -29
11 -46 9 -18 14 -34 12 -36 -7 -7 -105 158 -148 251 -21 44 -39 77 -39 73 0
-12 87 -272 112 -333 14 -33 28 -73 31 -90 12 -58 -50 89 -118 280 -37 105
-74 201 -82 215 -8 14 -12 17 -9 7z m1384 -1830 c68 -67 194 -227 179 -227 -2
0 -30 34 -62 75 -32 42 -112 128 -179 192 -69 67 -100 100 -71 79 28 -20 87
-74 133 -119z m-27 -25 c54 -49 164 -174 134 -153 -11 8 -38 32 -59 55 -22 23
-33 33 -26 23 7 -9 10 -20 7 -23 -3 -3 -10 4 -17 15 -6 12 -7 21 -3 21 13 0
-53 62 -119 112 -38 27 -68 52 -68 54 0 9 108 -65 151 -104z m-160 61 c13 -16
12 -17 -3 -4 -10 7 -18 15 -18 17 0 8 8 3 21 -13z m165 -135 c55 -59 201 -237
218 -265 20 -34 -10 -3 -100 105 -54 64 -136 155 -183 201 -67 67 -75 78 -40
53 25 -16 72 -59 105 -94z m-125 5 c13 -16 12 -17 -3 -4 -10 7 -18 15 -18 17
0 8 8 3 21 -13z m-1814 -35 c-3 -7 -5 -2 -5 12 0 14 2 19 5 13 2 -7 2 -19 0
-25z m-98 -75 c-7 -29 -10 -56 -7 -59 4 -3 12 21 18 53 19 93 29 116 25 57 -4
-49 -18 -114 -49 -224 -8 -30 -14 -56 -12 -58 5 -4 53 127 71 193 11 42 13 45
14 20 1 -47 -25 -136 -80 -274 -54 -135 -61 -172 -12 -64 54 118 80 185 113
291 18 56 35 101 37 98 3 -2 -7 -48 -21 -101 -28 -103 -81 -243 -170 -446 -30
-70 -58 -140 -61 -155 -7 -33 -57 -146 -62 -140 -2 2 6 25 18 52 11 27 23 63
25 81 2 17 9 44 14 59 6 15 9 29 6 31 -4 5 -36 -84 -36 -103 0 -7 -16 -51 -36
-99 -25 -60 -39 -83 -45 -73 -6 9 -9 3 -10 -17 0 -26 -2 -27 -9 -10 l-9 20 -1
-20 c-2 -11 -2 -24 -1 -28 1 -5 -3 -6 -8 -3 -5 3 -7 16 -4 29 4 19 3 20 -7 5
-14 -23 -31 -23 -23 -1 4 11 3 14 -6 9 -6 -4 -25 -5 -41 -1 l-29 6 19 32 c29
50 78 207 121 387 37 154 71 260 134 420 21 53 24 58 20 27 -4 -21 -8 -46 -11
-55 -2 -9 5 1 16 23 21 42 27 35 10 -11 -6 -15 -9 -29 -6 -31 2 -2 11 15 19
39 20 55 21 20 2 -52 -8 -30 -13 -56 -11 -58 6 -5 36 101 37 130 1 18 2 19 6
5 4 -16 7 -15 19 8 8 15 17 46 21 69 6 32 8 36 11 16 2 -14 -2 -49 -9 -77z
m58 45 c-3 -7 -5 -2 -5 12 0 14 2 19 5 13 2 -7 2 -19 0 -25z m-88 -42 c-9 -8
-10 -7 -5 7 3 10 7 28 7 40 2 16 3 14 6 -7 3 -16 -1 -34 -8 -40z m2221 -16
c-12 23 -12 24 4 11 9 -8 15 -20 12 -27 -3 -7 11 -33 30 -58 56 -74 33 -53
-54 49 -90 105 -111 142 -30 55 28 -30 45 -44 38 -30z m-2110 23 c-11 -17 -11
-17 -6 0 3 10 7 26 7 35 1 15 2 15 6 0 2 -10 -1 -25 -7 -35z m50 -78 c-15 -66
-43 -160 -63 -210 -51 -131 -176 -399 -183 -392 -6 5 49 140 117 285 16 35 29
65 29 67 0 2 11 28 24 57 22 47 53 150 86 277 6 23 13 41 15 40 2 -2 -9 -58
-25 -124z m-183 83 c-3 -7 -5 -2 -5 12 0 14 2 19 5 13 2 -7 2 -19 0 -25z
m2163 -140 c0 -6 -18 12 -41 41 -22 28 -44 51 -47 51 -4 0 -15 13 -25 28 -10
15 11 -4 47 -42 36 -37 66 -73 66 -78z m-25 86 c21 -30 48 -63 59 -72 12 -9
27 -26 35 -37 7 -11 -13 7 -45 41 -51 52 -103 124 -91 124 2 0 21 -25 42 -56z
m80 -54 c10 -11 16 -20 13 -20 -3 0 -13 9 -23 20 -10 11 -16 20 -13 20 3 0 13
-9 23 -20z m13 -96 c-4 -3 -12 5 -18 18 -12 22 -12 22 6 6 10 -10 15 -20 12
-24z m56 1 c58 -90 59 -97 2 -22 -20 26 -32 47 -27 47 5 0 16 -11 25 -25z
m-2168 -182 c-8 -15 -15 -25 -16 -21 0 12 23 58 27 54 3 -2 -2 -17 -11 -33z
m-23 -48 c-3 -9 -8 -14 -10 -11 -3 3 -2 9 2 15 9 16 15 13 8 -4z m-48 -105
c-21 -39 -39 -69 -41 -68 -1 2 14 36 33 76 20 40 38 70 41 68 2 -3 -13 -36
-33 -76z m2665 -270 c12 -16 19 -30 16 -30 -2 0 -14 14 -26 30 -12 17 -19 30
-16 30 2 0 14 -13 26 -30z m-10 -35 c7 -9 8 -15 2 -15 -5 0 -12 7 -16 15 -3 8
-4 15 -2 15 2 0 9 -7 16 -15z m60 -23 c-21 -7 -117 -79 -126 -94 -5 -7 10 1
31 18 72 56 102 69 119 55 22 -19 21 -22 -28 -98 -54 -84 -95 -133 -108 -133
-7 0 -7 4 0 13 12 14 -2 47 -14 34 -4 -4 -13 3 -19 16 -10 17 -9 27 2 45 l14
23 -28 -18 c-28 -18 -28 -17 8 32 38 54 135 129 152 118 7 -4 6 -8 -3 -11z
m-3012 -91 c15 -10 36 -29 47 -41 l20 -23 -20 7 c-22 6 -158 25 -189 26 -18 0
-18 1 -1 28 36 57 66 58 143 3z m3068 -53 c-5 -30 -4 -31 9 -14 8 10 19 15 26
10 9 -5 10 -1 6 16 l-6 22 27 -23 c15 -13 28 -24 30 -25 8 -3 -94 -123 -126
-147 -33 -25 -37 -26 -43 -10 -3 10 -2 28 2 41 14 37 10 40 -9 7 -16 -29 -17
-29 -20 -6 -5 35 4 62 39 109 20 28 34 39 39 32 5 -8 9 -7 13 4 11 28 20 17
13 -16z m346 11 l40 -21 -6 -46 c-16 -114 -27 -242 -24 -264 4 -18 10 -11 33
41 40 88 43 62 6 -54 -28 -86 -30 -102 -22 -158 7 -52 9 -56 10 -22 1 43 33
141 52 159 7 8 8 3 2 -19 -4 -16 -8 -91 -7 -165 0 -117 3 -142 22 -189 35 -84
20 -70 -28 27 -50 100 -78 168 -125 302 -86 241 -143 380 -157 380 -4 0 -8 4
-8 9 0 8 114 38 153 40 10 1 36 -8 59 -20z m-3435 -20 c17 -6 39 -22 48 -36
l18 -26 -37 23 c-20 12 -39 20 -42 17 -3 -3 4 -10 15 -16 11 -6 26 -21 32 -34
l12 -22 -23 20 -23 20 7 -20 c4 -11 10 -27 14 -35 3 -8 -9 -2 -26 14 -35 32
-40 27 -17 -17 l14 -28 -27 17 c-26 15 -112 114 -112 128 0 10 109 6 147 -5z
m-123 -63 c41 -49 43 -56 18 -56 -30 0 -144 -48 -169 -72 -13 -12 -23 -19 -23
-15 0 23 115 187 131 187 4 0 24 -20 43 -44z m3298 -78 c-3 -76 -7 -98 -18
-98 -9 0 -14 -11 -14 -32 0 -52 -9 -26 -20 56 -10 77 -10 77 23 126 17 26 32
48 32 47 1 -1 -1 -46 -3 -99z m-67 -84 c4 -34 3 -54 -4 -59 -7 -4 -11 15 -12
57 -1 50 -3 57 -9 33 -4 -16 -8 -48 -9 -70 -2 -69 -16 -72 -41 -9 l-24 57 40
33 c44 38 48 35 59 -42z m-3247 -12 c19 -35 32 -66 29 -69 -3 -3 -15 14 -27
37 -12 23 -24 40 -26 37 -5 -5 19 -70 57 -155 27 -61 24 -61 -27 2 -25 31 -47
56 -50 56 -8 0 14 -36 31 -50 18 -15 65 -103 65 -122 0 -6 -16 15 -36 48 -19
32 -48 73 -63 89 -16 17 -45 55 -66 84 l-38 55 34 28 c53 44 77 36 117 -40z
m-123 -62 c15 -22 29 -57 31 -77 2 -25 0 -32 -7 -23 -7 12 -9 11 -10 -5 0 -11
-3 -15 -5 -8 -3 7 0 21 5 32 6 11 7 22 2 25 -10 7 -20 -39 -23 -103 l-1 -46
-7 45 c-7 42 -7 40 -10 -30 l-4 -75 -6 70 -6 70 -4 -75 c-3 -74 -3 -74 -10
-25 l-7 50 -3 -55 c-2 -51 -3 -53 -10 -20 l-7 35 -3 -40 c-1 -25 -4 -32 -8
-20 -4 17 -7 14 -18 -15 -11 -32 -13 -33 -14 -10 l-2 25 -9 -25 c-6 -17 -7 5
-5 65 4 92 16 139 62 239 29 63 32 63 79 -4z m3575 20 c0 -5 -9 -14 -20 -20
-11 -6 -20 -17 -20 -24 0 -8 -10 -16 -22 -19 -12 -4 -19 -9 -16 -13 4 -3 20 1
36 9 17 8 35 12 40 8 6 -4 -2 -13 -19 -20 -17 -7 -28 -16 -24 -19 3 -3 11 0
17 6 7 7 21 12 32 12 14 0 9 -7 -21 -29 -42 -30 -143 -85 -147 -79 -2 2 -13
20 -25 41 -22 36 -22 39 -7 56 23 25 134 84 145 77 5 -3 14 1 21 9 14 17 30
20 30 5z m-3350 -105 c0 -8 -2 -15 -4 -15 -2 0 -6 7 -10 15 -3 8 -1 15 4 15 6
0 10 -7 10 -15z m3644 -221 c41 -125 42 -131 21 -114 -13 11 -15 10 -9 -6 3
-12 -5 -7 -24 14 -46 52 -61 122 -45 217 7 45 3 53 57 -111z m66 -14 c22 -29
44 -68 50 -86 7 -19 15 -32 19 -29 5 2 19 -7 32 -21 27 -29 160 -114 177 -114
15 0 16 -26 2 -35 -5 -3 -10 -1 -10 5 0 6 -4 9 -10 5 -20 -12 -169 74 -193
112 -5 8 -13 11 -18 7 -21 -13 -67 56 -83 126 -25 110 -25 110 34 30z"/>
<path d="M4302 2760 c0 -14 2 -19 5 -12 2 6 2 18 0 25 -3 6 -5 1 -5 -13z"/>
<path d="M4291 2714 c0 -11 3 -14 6 -6 3 7 2 16 -1 19 -3 4 -6 -2 -5 -13z"/>
<path d="M4246 2395 c-9 -26 -7 -32 5 -12 6 10 9 21 6 23 -2 3 -7 -2 -11 -11z"/>
<path d="M4226 2345 c-9 -26 -7 -32 5 -12 6 10 9 21 6 23 -2 3 -7 -2 -11 -11z"/>
<path d="M4206 2295 c-9 -26 -7 -32 5 -12 6 10 9 21 6 23 -2 3 -7 -2 -11 -11z"/>
<path d="M7009 1923 c-13 -16 -12 -17 4 -4 16 13 21 21 13 21 -2 0 -10 -8 -17
-17z"/>
<path d="M7035 1710 c-4 -12 -5 -24 -2 -27 3 -2 8 5 12 17 4 12 5 24 2 27 -3
2 -8 -5 -12 -17z"/>
<path d="M7310 1845 c-7 -8 -8 -15 -3 -15 6 0 15 -19 20 -42 l11 -43 1 58 c1
58 -7 69 -29 42z"/>
<path d="M7350 1810 c0 -64 71 -407 92 -440 7 -11 8 -8 4 10 -4 14 -10 54 -16
90 -31 218 -42 281 -60 335 l-19 60 -1 -55z"/>
<path d="M7270 1826 c0 -8 4 -17 9 -21 6 -3 26 -54 45 -113 35 -106 73 -202
61 -152 -26 107 -55 202 -74 243 -25 50 -41 68 -41 43z"/>
<path d="M7481 1274 c0 -11 3 -14 6 -6 3 7 2 16 -1 19 -3 4 -6 -2 -5 -13z"/>
<path d="M6549 4876 c13 -16 51 -41 51 -33 0 2 -15 14 -32 27 -21 15 -28 17
-19 6z"/>
<path d="M3199 4859 l-24 -20 28 17 c15 9 27 18 27 20 0 8 -8 4 -31 -17z"/>
<path d="M5377 4815 c9 -22 22 -47 29 -55 6 -8 35 -61 65 -118 37 -70 74 -124
117 -168 44 -46 59 -58 52 -40 -20 54 -45 93 -106 170 -35 44 -79 107 -99 140
-20 34 -45 72 -56 86 l-20 25 18 -40z"/>
<path d="M2997 4731 c-91 -60 -168 -115 -172 -121 -6 -9 327 209 344 226 21
20 -33 -13 -172 -105z"/>
<path d="M2542 4810 c-23 -11 -75 -39 -115 -63 -39 -24 -117 -69 -172 -98 -98
-54 -210 -133 -210 -150 0 -5 -25 -24 -55 -43 -30 -20 -52 -36 -49 -36 13 0
159 87 154 92 -3 3 1 8 10 12 9 3 13 2 10 -4 -4 -6 10 1 31 15 20 14 41 25 46
25 12 0 164 104 251 173 16 12 58 39 95 59 72 40 74 48 4 18z"/>
<path d="M2980 4778 c-47 -28 -108 -66 -136 -84 -56 -38 -74 -43 -53 -16 13
15 12 16 -3 3 -10 -7 -15 -17 -12 -22 3 -5 -1 -9 -9 -9 -8 0 -20 -7 -27 -14
-6 -8 -28 -25 -48 -36 -35 -20 -34 -19 14 27 28 27 51 56 51 65 0 29 -38 6
-292 -172 -55 -39 -122 -86 -150 -105 -55 -38 -203 -184 -167 -166 12 7 22 9
22 6 0 -7 49 24 78 49 19 17 22 18 16 3 -8 -22 18 -23 36 -2 7 8 17 15 23 15
5 0 2 -10 -8 -22 -12 -15 -8 -13 11 5 16 15 69 55 117 90 48 34 127 90 175
124 48 34 166 115 262 179 168 113 199 135 190 134 -3 -1 -43 -24 -90 -52z
m-235 -98 c-9 -14 -156 -124 -240 -179 -102 -67 -99 -65 -91 -52 4 6 33 28 64
50 31 21 71 52 87 68 71 69 205 154 180 113z m-365 -253 c0 -2 -10 -12 -22
-23 l-23 -19 19 23 c18 21 26 27 26 19z m-140 -111 c0 -2 -17 -16 -37 -31
l-38 -27 33 31 c30 29 42 37 42 27z"/>
<path d="M2658 4722 c-70 -37 -142 -82 -160 -99 -18 -17 -69 -57 -113 -88
-107 -77 -206 -157 -200 -163 3 -3 13 2 23 11 27 25 38 21 16 -5 -10 -12 16 5
58 37 42 33 75 61 73 64 -3 2 -13 -3 -23 -12 -10 -10 -22 -17 -27 -17 -4 0 4
9 18 20 14 11 30 20 35 20 5 0 16 7 23 16 12 15 55 46 108 79 9 6 44 27 78 49
35 21 60 43 57 48 -3 4 -2 7 3 6 8 -3 163 90 163 98 0 6 5 8 -132 -64z m-113
-82 c-10 -11 -23 -20 -29 -20 -6 0 0 9 14 20 32 25 38 25 15 0z m-275 -214 c0
-2 -8 -10 -17 -17 -16 -13 -17 -12 -4 4 13 16 21 21 21 13z"/>
<path d="M3279 4688 c-68 -56 -160 -131 -204 -166 -44 -36 -108 -92 -141 -125
-34 -33 -66 -57 -72 -53 -5 3 -16 -2 -23 -12 -13 -16 -12 -16 6 -2 11 8 5 -2
-14 -23 -19 -20 -37 -34 -41 -32 -10 6 -151 -116 -181 -157 -46 -60 -42 -64
11 -11 44 45 70 58 70 37 0 -3 -4 -3 -9 0 -4 3 -16 -3 -25 -13 -20 -22 -14
-27 31 -29 21 -2 35 4 42 15 6 10 11 12 11 6 0 -7 -11 -20 -25 -29 -14 -9 -31
-26 -37 -38 -10 -20 -10 -20 14 2 13 12 28 22 33 22 5 0 20 10 34 23 22 19 23
19 11 2 -8 -11 -27 -35 -44 -52 -41 -45 -27 -41 29 7 71 61 96 68 40 11 -27
-28 -46 -51 -43 -51 4 0 34 23 67 50 34 28 61 45 61 39 0 -7 9 -4 22 7 l21 19
-19 -30 -19 -30 38 33 c56 48 55 39 -3 -28 -29 -33 -47 -60 -42 -60 6 0 25 18
42 40 37 47 49 47 25 1 -22 -44 -10 -38 21 9 34 52 42 45 13 -12 l-21 -43 48
49 c75 75 299 366 281 366 -2 0 -25 -25 -50 -55 -25 -31 -81 -93 -123 -138
-73 -76 -75 -78 -39 -27 21 30 62 82 90 115 29 33 58 71 65 85 7 15 -1 9 -21
-15 -18 -22 -73 -80 -122 -130 -93 -94 -80 -66 31 65 29 34 51 64 49 67 -3 2
-49 -40 -102 -94 -54 -54 -73 -70 -43 -37 126 141 187 239 82 131 -31 -32 -58
-56 -60 -55 -1 2 20 30 49 63 64 75 56 69 -64 -51 -68 -67 -99 -92 -104 -84
-5 9 -4 11 3 6 7 -4 12 -3 12 3 0 6 10 19 22 31 12 11 18 20 13 20 -5 0 11 21
35 46 25 26 35 42 24 35 -12 -6 -33 -23 -46 -38 -14 -16 -49 -50 -78 -78 -48
-44 -50 -45 -19 -10 118 139 202 223 339 343 191 167 185 162 179 162 -3 0
-61 -46 -130 -102z"/>
<path d="M2869 4753 c-13 -16 -12 -17 4 -4 16 13 21 21 13 21 -2 0 -10 -8 -17
-17z"/>
<path d="M5455 4749 c28 -47 129 -194 146 -212 11 -12 34 -42 51 -67 20 -30
28 -37 23 -20 -11 38 -42 85 -128 197 -70 92 -115 142 -92 102z"/>
<path d="M2798 4734 c-38 -20 -36 -28 2 -9 17 9 30 18 30 20 0 7 -1 6 -32 -11z"/>
<path d="M4831 4724 c0 -11 3 -14 6 -6 3 7 2 16 -1 19 -3 4 -6 -2 -5 -13z"/>
<path d="M2479 4657 c-41 -29 -130 -83 -196 -120 -111 -63 -271 -187 -241
-187 7 0 45 13 83 29 79 32 299 192 382 278 28 29 51 53 50 53 -1 0 -36 -24
-78 -53z"/>
<path d="M4061 4631 c-226 -421 -278 -530 -296 -621 -7 -31 -6 -33 8 -21 9 7
19 21 22 32 4 11 11 17 16 14 5 -4 9 -1 9 5 0 6 5 8 10 5 6 -3 10 0 10 8 0 8
14 47 31 88 17 41 51 121 76 179 24 58 52 128 62 155 10 28 30 77 45 109 25
56 30 91 7 47z"/>
<path d="M3757 4523 c-40 -60 -95 -144 -121 -188 -45 -77 -96 -147 -96 -133 0
3 22 42 48 85 67 107 81 137 45 94 -58 -71 -183 -254 -183 -268 0 -5 -16 -39
-36 -77 -19 -38 -33 -70 -31 -72 2 -2 24 23 47 56 24 32 46 58 48 56 2 -2 -9
-27 -23 -56 -43 -85 -27 -73 50 35 13 19 14 18 10 -12 -2 -18 -7 -43 -10 -55
-10 -33 -2 -22 39 52 38 67 41 47 5 -37 -29 -69 -13 -50 30 35 41 78 53 91 26
25 -21 -50 -11 -54 14 -5 28 54 44 62 26 13 -21 -59 -6 -57 33 5 19 30 36 53
39 50 3 -2 -9 -33 -26 -67 -30 -61 -35 -83 -13 -57 23 29 91 179 117 258 15
47 38 106 51 132 58 116 -8 20 -88 -127 -49 -91 -48 -73 2 50 22 54 39 100 37
102 -5 5 -97 -166 -97 -180 0 -7 -6 -22 -14 -33 -13 -17 -14 -14 -5 26 6 25
15 54 20 65 66 151 77 177 62 158 -10 -13 -36 -57 -57 -98 -22 -41 -64 -100
-93 -132 l-54 -58 46 70 c25 39 58 95 72 125 14 30 33 66 43 80 36 51 120 190
116 190 -3 0 -38 -48 -79 -107z m-111 -318 c-27 -46 -41 -59 -29 -27 12 31 45
83 50 78 3 -3 -7 -26 -21 -51z m65 -38 c-10 -9 -11 -8 -5 6 3 10 9 15 12 12 3
-3 0 -11 -7 -18z"/>
<path d="M4822 4600 c0 -19 2 -27 5 -17 2 9 2 25 0 35 -3 9 -5 1 -5 -18z"/>
<path d="M4652 4595 c0 -16 2 -22 5 -12 2 9 2 23 0 30 -3 6 -5 -1 -5 -18z"/>
<path d="M4296 4540 c-4 -25 -24 -81 -45 -125 -21 -44 -48 -109 -61 -144 -13
-36 -25 -60 -27 -54 -3 9 31 124 62 208 l7 20 -14 -20 c-8 -11 -25 -50 -38
-87 -13 -37 -26 -65 -29 -63 -2 3 -10 -9 -17 -27 -6 -18 -21 -56 -32 -83 -24
-59 -41 -167 -20 -125 7 14 15 27 19 30 3 3 12 22 18 43 14 41 24 50 17 15 -3
-13 -7 -45 -10 -73 -5 -42 -4 -46 5 -25 6 14 18 45 25 70 l14 45 -4 -65 c-3
-61 -3 -63 10 -35 7 17 14 39 14 50 1 11 5 29 10 40 6 13 7 -3 4 -45 l-4 -65
13 45 c21 70 28 79 23 32 -5 -48 2 -47 22 1 12 32 12 32 8 -13 -4 -31 -2 -39
4 -25 5 11 10 40 11 65 l2 45 6 -45 7 -45 13 60 c14 60 38 117 27 65 -3 -14
-7 -54 -10 -90 l-6 -65 19 56 c11 31 24 98 30 150 11 105 20 227 14 190 -3
-16 -7 -20 -12 -12 -5 7 -11 -20 -14 -61 -4 -40 -11 -86 -16 -103 l-9 -30 -1
35 c0 19 6 89 14 155 19 153 18 166 -5 80 -45 -163 -59 -201 -59 -169 -1 17 6
72 15 122 8 51 14 98 11 105 -2 6 -7 -8 -11 -33z m-42 -194 c-10 -31 -20 -54
-22 -51 -2 2 4 29 13 60 10 30 20 53 22 51 3 -2 -3 -29 -13 -60z"/>
<path d="M3479 4443 c-62 -71 -156 -173 -209 -228 -84 -87 -132 -147 -165
-205 -5 -9 1 -7 15 5 l24 20 -18 -28 c-26 -42 -15 -42 32 1 47 44 49 44 26 -1
-17 -32 -16 -32 29 11 47 42 73 57 45 25 -43 -49 -33 -61 11 -13 50 55 72 57
28 3 -46 -57 -48 -67 -4 -20 54 56 67 60 37 12 -12 -19 -20 -35 -17 -35 5 0
112 169 120 190 4 11 6 9 6 -6 1 -11 -3 -24 -8 -30 -12 -12 -71 -120 -71 -129
0 -26 61 77 96 164 13 29 33 65 46 80 12 14 2 8 -22 -14 -25 -22 -58 -52 -74
-65 l-28 -25 31 49 c17 28 31 56 31 64 0 8 16 41 36 74 20 32 34 61 32 64 -6
6 -63 -83 -87 -137 -11 -24 -32 -57 -47 -74 -28 -32 -23 -20 21 48 10 15 15
30 11 34 -9 9 38 86 121 196 40 53 72 97 69 97 -2 0 -55 -57 -117 -127z"/>
<path d="M2730 4550 c-9 -6 -10 -10 -3 -10 6 0 15 5 18 10 8 12 4 12 -15 0z"/>
<path d="M4392 4520 c0 -19 2 -27 5 -17 2 9 2 25 0 35 -3 9 -5 1 -5 -18z"/>
<path d="M2737 4485 c-36 -30 -72 -55 -79 -55 -6 0 -23 -11 -38 -25 -17 -16
-30 -21 -39 -16 -11 7 -5 15 22 32 20 13 39 30 42 37 5 14 -2 11 -50 -22 -16
-12 -34 -21 -40 -21 -5 -1 -9 -6 -8 -12 1 -6 -14 -24 -35 -39 -20 -16 -31 -20
-23 -11 24 31 -1 18 -58 -29 -45 -38 -48 -39 -15 -8 22 22 66 59 97 84 31 25
56 49 57 53 0 5 -15 -3 -32 -18 -18 -14 -58 -45 -88 -68 -30 -23 -62 -49 -70
-57 -8 -9 -40 -36 -70 -60 -70 -55 -80 -65 -55 -52 11 5 37 24 58 40 33 27 67
33 67 14 0 -4 -24 -31 -52 -60 l-53 -54 50 27 c28 15 57 32 65 38 8 6 4 -2
-11 -18 -45 -53 -56 -73 -25 -45 15 14 30 24 33 22 2 -2 8 0 11 4 4 4 1 4 -7
-1 -10 -6 -12 -4 -7 4 5 7 11 10 14 7 3 -4 17 4 31 16 16 15 11 5 -14 -27 -34
-44 -35 -47 -8 -21 17 15 36 25 41 22 6 -4 13 -2 17 4 3 5 16 15 28 21 16 8
12 1 -12 -25 -36 -37 -64 -50 -40 -18 11 14 11 15 -1 5 -8 -7 -15 -20 -16 -28
-2 -13 3 -12 29 4 18 11 34 19 37 19 13 -2 141 127 207 209 40 50 77 93 81 95
4 2 20 19 37 38 l30 35 -35 -31 c-53 -47 -117 -94 -126 -94 -5 0 -32 -18 -61
-39 -55 -42 -115 -81 -98 -65 66 66 137 125 151 127 17 2 147 116 133 117 -3
0 -35 -25 -72 -55z m-154 -115 c-44 -37 -95 -72 -88 -60 18 32 71 77 83 72 7
-2 10 -8 5 -12z m116 18 c-2 -2 -17 -14 -34 -28 l-30 -25 24 28 c14 15 29 27
34 27 6 0 8 -1 6 -2z"/>
<path d="M3129 4523 c-13 -16 -12 -17 4 -4 9 7 17 15 17 17 0 8 -8 3 -21 -13z"/>
<path d="M4173 4481 c-11 -34 -22 -59 -25 -56 -3 3 -13 -26 -23 -65 -9 -38
-19 -70 -22 -70 -8 0 6 66 28 139 10 35 19 68 19 74 0 15 -64 -116 -106 -218
-39 -94 -45 -86 -9 12 13 37 23 68 21 70 -1 1 -17 -29 -36 -67 -18 -39 -35
-68 -38 -65 -3 3 -12 -5 -19 -17 -17 -31 -16 -4 1 47 8 22 17 56 20 75 3 19
-5 1 -19 -40 -13 -41 -33 -102 -44 -135 -11 -33 -23 -76 -27 -95 -3 -19 -13
-48 -21 -64 -9 -17 -10 -25 -3 -21 6 4 22 30 36 58 23 50 26 41 8 -28 -3 -11
9 8 27 43 37 72 49 77 19 8 -30 -72 -22 -80 10 -11 23 48 29 55 30 34 0 -15
-7 -44 -15 -65 -14 -36 -14 -37 0 -19 9 11 23 43 31 70 30 103 36 90 19 -43
-2 -19 0 -30 6 -27 5 4 9 21 9 38 0 18 14 66 31 107 51 124 125 377 114 388
-2 2 -12 -24 -22 -57z m-76 -238 c-3 -10 -5 -4 -5 12 0 17 2 24 5 18 2 -7 2
-21 0 -30z"/>
<path d="M2627 4490 c-26 -16 -47 -32 -47 -34 0 -3 23 9 50 26 44 27 57 38 47
38 -2 0 -24 -13 -50 -30z"/>
<path d="M2683 4484 l-28 -25 33 22 c17 13 32 24 32 26 0 8 -11 1 -37 -23z"/>
<path d="M2669 4299 c-105 -105 -188 -194 -184 -197 3 -3 55 43 116 104 124
122 274 284 265 284 -3 0 -92 -86 -197 -191z"/>
<path d="M3079 4463 l-24 -28 28 24 c25 23 32 31 24 31 -2 0 -14 -12 -28 -27z"/>
<path d="M3182 4450 c-13 -16 -19 -30 -14 -30 4 0 16 14 25 30 10 17 16 30 14
30 -2 0 -13 -13 -25 -30z"/>
<path d="M2835 4398 c-171 -151 -336 -319 -295 -298 23 12 391 370 380 370 -3
0 -41 -32 -85 -72z"/>
<path d="M2509 4383 c-13 -15 -12 -15 9 -4 23 12 28 21 13 21 -5 0 -15 -7 -22
-17z"/>
<path d="M3220 4293 c-136 -154 -235 -283 -216 -283 2 0 23 23 45 51 23 29 41
48 41 43 0 -5 14 6 30 24 17 18 30 35 30 37 0 2 34 49 76 105 42 56 74 103 72
105 -1 1 -37 -35 -78 -82z"/>
<path d="M3835 4308 c-10 -43 -58 -165 -96 -241 -36 -72 -37 -81 -4 -37 42 57
133 310 112 310 -3 0 -9 -15 -12 -32z"/>
<path d="M3293 4283 c-37 -45 -69 -91 -46 -68 24 25 94 115 90 115 -3 0 -23
-21 -44 -47z"/>
<path d="M3488 4313 c-19 -23 -61 -93 -55 -93 4 0 43 55 70 97 12 19 3 16 -15
-4z"/>
<path d="M2799 4293 c-13 -16 -12 -17 4 -4 16 13 21 21 13 21 -2 0 -10 -8 -17
-17z"/>
<path d="M2239 4263 c-13 -16 -12 -17 4 -4 9 7 17 15 17 17 0 8 -8 3 -21 -13z"/>
<path d="M2315 4218 l-40 -41 42 34 c24 19 43 37 43 42 0 12 -4 9 -45 -35z"/>
<path d="M3175 4166 c-53 -65 -88 -116 -82 -122 2 -2 20 18 40 44 20 26 50 64
67 84 18 21 30 41 28 46 -1 4 -25 -19 -53 -52z"/>
<path d="M3888 4149 c-16 -33 -28 -68 -28 -78 0 -10 -9 -30 -21 -45 -11 -14
-19 -31 -17 -38 5 -13 47 70 79 155 29 77 21 80 -13 6z"/>
<path d="M2635 4102 c4 -8 -1 -23 -11 -35 -18 -22 -18 -22 6 0 20 19 22 25 11
35 -11 11 -13 10 -6 0z"/>
<path d="M2661 4077 c-13 -21 -12 -21 5 -5 10 10 16 20 13 22 -3 3 -11 -5 -18
-17z"/>
<path d="M2845 4063 l-28 -38 34 32 c18 18 30 35 27 38 -3 3 -18 -11 -33 -32z"/>
<path d="M3049 4013 c-13 -16 -12 -17 4 -4 16 13 21 21 13 21 -2 0 -10 -8 -17
-17z"/>
<path d="M3490 4010 c-6 -11 -8 -20 -6 -20 3 0 10 9 16 20 6 11 8 20 6 20 -3
0 -10 -9 -16 -20z"/>
<path d="M3600 3999 c-7 -11 -10 -23 -7 -25 2 -2 9 7 15 21 14 30 7 33 -8 4z"/>
<path d="M3346 3983 c-6 -14 -5 -15 5 -6 7 7 10 15 7 18 -3 3 -9 -2 -12 -12z"/>
<path d="M2383 553 c32 -2 81 -2 110 0 29 2 3 3 -58 3 -60 0 -84 -1 -52 -3z"/>
<path d="M7668 543 c12 -2 32 -2 45 0 12 2 2 4 -23 4 -25 0 -35 -2 -22 -4z"/>
<path d="M7480 490 c0 -5 4 -10 9 -10 6 0 13 5 16 10 3 6 -1 10 -9 10 -9 0
-16 -4 -16 -10z"/>
<path d="M7943 483 c26 -2 67 -2 90 0 23 2 2 3 -48 3 -49 0 -68 -1 -42 -3z"/>
<path d="M3008 453 c6 -2 18 -2 25 0 6 3 1 5 -13 5 -14 0 -19 -2 -12 -5z"/>
</g>
</svg>
