<?xml version="1.0" standalone="no"?>
<!DOCTYPE svg PUBLIC "-//W3C//DTD SVG 20010904//EN"
 "http://www.w3.org/TR/2001/REC-SVG-20010904/DTD/svg10.dtd">
<svg version="1.0" xmlns="http://www.w3.org/2000/svg"
 width="1024.000000pt" height="1024.000000pt" viewBox="0 0 1024.000000 1024.000000"
 preserveAspectRatio="xMidYMid meet">

<g transform="translate(0.000000,1024.000000) scale(0.100000,-0.100000)"
fill="#fff" stroke="none">
<path d="M4102 9997 c-110 -613 -343 -1747 -421 -2048 -45 -174 -164 -531
-243 -729 -39 -96 -101 -263 -138 -370 -37 -107 -95 -267 -130 -355 -107 -276
-140 -375 -185 -551 -25 -94 -56 -207 -69 -250 -33 -107 -42 -141 -71 -268
-19 -84 -37 -130 -76 -200 -86 -156 -118 -268 -149 -531 -7 -58 -30 -159 -56
-245 -25 -80 -53 -194 -64 -255 -11 -60 -31 -159 -45 -220 -14 -60 -46 -204
-71 -319 -25 -114 -50 -219 -55 -233 -16 -42 -67 -255 -78 -328 -25 -156 -53
-510 -54 -670 0 -247 26 -436 134 -960 33 -159 66 -320 73 -356 l13 -66 -90
-7 c-50 -3 -115 -6 -145 -6 -31 0 -53 -3 -49 -6 5 -5 221 -6 271 -1 10 1 21
-3 23 -9 3 -9 -64 -14 -239 -20 -253 -8 -283 -22 -48 -21 86 0 120 2 95 7 -29
5 -11 8 66 9 77 1 110 -3 125 -13 10 -8 16 -18 12 -22 -4 -4 -137 -10 -295
-14 l-288 -7 292 -1 c279 -2 373 -12 241 -26 -33 -3 -208 -7 -387 -7 -226 -1
-305 -4 -256 -10 39 -5 212 -8 385 -7 178 1 317 -3 320 -8 6 -11 -208 -21
-468 -23 -130 -1 -181 -4 -176 -12 4 -8 100 -9 338 -4 259 6 328 5 320 -5 -8
-8 -95 -15 -285 -21 -151 -5 -278 -11 -284 -14 -5 -2 123 -4 285 -4 166 0 296
-4 298 -9 3 -10 -179 -22 -372 -23 -81 -1 -121 -4 -106 -9 32 -10 266 -11 385
-1 80 7 119 2 103 -14 -3 -3 -106 -10 -229 -16 -123 -6 -226 -13 -229 -16 -3
-3 103 -4 234 -2 185 3 240 1 243 -8 4 -10 -17 -13 -80 -13 -180 0 -423 -14
-387 -22 19 -4 135 -5 258 -1 153 4 222 3 222 -4 0 -7 -56 -14 -147 -18 -293
-15 -338 -24 -93 -19 209 3 278 -2 260 -20 -3 -2 -109 -8 -235 -13 l-230 -8
244 -7 c152 -4 247 -10 254 -17 8 -8 -29 -11 -128 -12 -77 0 -160 -4 -185 -8
-31 -6 16 -9 147 -10 116 -1 194 -5 198 -11 4 -6 -31 -10 -97 -11 -57 -1 -128
-4 -158 -9 -43 -6 -25 -8 85 -9 176 -2 294 -12 250 -22 -16 -4 -68 -8 -115 -9
-60 -2 -28 -5 104 -11 104 -5 300 -21 435 -36 217 -24 278 -27 521 -25 151 2
354 7 450 11 l175 8 -135 2 c-74 1 -155 6 -180 10 -27 5 141 10 410 12 342 2
418 4 305 9 -82 4 -246 8 -364 9 -118 0 -212 4 -208 7 8 8 448 13 1186 14 316
0 572 2 569 5 -3 3 -259 6 -569 7 -310 0 -638 3 -729 7 -180 7 302 15 1525 27
347 4 655 9 685 13 30 3 -224 4 -565 3 -341 -2 -784 0 -985 5 l-365 8 320 6
c176 4 568 7 870 9 303 1 613 6 690 9 81 5 -228 9 -735 11 -1035 3 -1292 11
-726 23 209 4 663 8 1010 9 347 0 600 4 561 8 -38 4 -338 9 -665 10 -327 2
-721 5 -875 9 l-280 6 465 8 c317 6 602 4 895 -4 563 -16 1227 -21 1390 -10
l130 8 -225 3 c-193 2 -212 4 -130 10 52 5 179 11 283 15 103 4 187 11 187 16
0 5 -69 10 -152 11 -84 1 -135 3 -113 4 22 2 144 10 270 19 127 8 248 17 270
19 22 1 -47 3 -154 4 -107 1 -192 4 -189 7 3 3 117 10 254 16 137 6 269 14
294 19 40 8 36 9 -32 7 -46 -1 -80 2 -82 8 -2 5 -5 4 -5 -2 -1 -17 -117 -18
-127 -2 -4 8 8 10 40 8 25 -2 46 -1 46 3 0 5 20 8 43 8 24 0 86 3 138 7 93 7
94 8 39 14 -30 4 -107 8 -170 10 l-115 2 85 8 c47 4 122 7 167 8 45 1 85 6 88
11 4 7 -61 11 -187 12 -185 1 -188 2 -78 8 63 4 147 8 185 9 46 2 63 5 50 10
-21 9 -196 16 -633 27 -144 4 -260 9 -258 11 2 3 208 4 458 4 290 0 445 3 430
9 -13 6 -210 13 -438 17 -291 4 -414 9 -411 17 2 7 102 13 308 16 177 3 248 7
169 8 -74 2 -204 5 -288 6 -83 2 -152 7 -152 12 0 5 79 12 176 16 98 4 182 10
188 12 6 3 -71 3 -170 1 -100 -2 -184 -2 -187 1 -3 3 -3 12 0 20 4 11 34 14
137 15 152 2 148 5 -16 14 -89 5 -118 10 -118 20 0 10 17 15 53 18 l52 3 -52
2 -52 2 -5 53 c-3 28 -8 113 -11 187 -17 394 -42 695 -76 910 -18 118 -55 271
-134 565 -125 462 -121 817 15 1287 47 160 80 248 155 403 44 92 68 128 134
199 116 125 568 781 627 911 36 77 49 179 35 269 -40 272 -248 589 -452 690
-66 32 -86 38 -143 37 -36 0 -100 9 -143 20 -43 12 -112 29 -153 39 -41 9 -92
25 -114 34 -44 18 -104 21 -139 5 -20 -9 -28 -6 -63 28 -21 21 -60 53 -87 70
-121 83 -173 268 -226 813 -54 540 -56 1435 -6 2245 8 132 18 257 21 278 l6
37 -457 -2 -457 -3 -30 -90 c-17 -49 -43 -130 -59 -180 -51 -162 -172 -513
-224 -650 -19 -49 -75 -200 -124 -335 -145 -395 -191 -513 -198 -506 -2 2 5
26 16 54 44 111 320 881 449 1252 58 167 152 448 152 454 0 3 -6 6 -12 6 -8 0
-43 -92 -87 -226 -41 -124 -91 -274 -112 -332 -21 -59 -75 -210 -119 -337 -45
-126 -88 -248 -97 -270 -8 -22 -22 -60 -30 -85 -17 -53 -38 -104 -58 -143 -8
-16 -15 -40 -15 -53 0 -29 -21 -31 -37 -4 -7 11 -27 27 -45 36 -31 15 -30 13
16 -34 42 -44 47 -53 40 -76 -13 -37 -24 -36 -45 4 -11 19 -19 28 -19 20 0
-11 -3 -11 -12 -2 -7 7 -19 12 -27 12 -9 0 1 -16 26 -42 33 -34 42 -50 41 -75
-1 -36 -9 -41 -28 -18 -7 8 -9 15 -4 15 5 0 -18 18 -51 40 -32 21 -61 37 -64
34 -3 -3 25 -34 62 -69 37 -35 67 -68 67 -73 0 -5 -6 -15 -14 -21 -11 -9 -18
-7 -32 11 -11 13 -37 36 -59 53 -22 16 -42 33 -43 37 -2 5 -8 5 -13 2 -11 -6
89 -119 106 -119 5 0 11 -17 12 -37 3 -38 -9 -50 -24 -24 -13 23 -116 96 -126
89 -10 -6 98 -113 114 -113 5 0 9 -13 9 -30 0 -34 -13 -39 -32 -12 -16 22
-117 86 -124 79 -3 -2 18 -27 47 -53 29 -27 61 -57 70 -66 20 -19 15 -48 -7
-48 -8 0 -14 4 -14 9 0 13 -117 101 -124 94 -13 -13 -4 -29 24 -45 17 -9 40
-34 52 -54 12 -21 24 -32 26 -26 4 13 32 4 32 -10 0 -5 -4 -6 -10 -3 -12 8
-13 3 0 -29 12 -33 0 -33 -34 -1 -15 14 -31 25 -36 25 -5 0 -23 14 -40 30 -35
34 -68 42 -49 13 6 -10 37 -40 69 -68 52 -45 81 -85 60 -85 -10 0 -128 79
-135 91 -8 12 -25 11 -25 -2 0 -12 7 -19 78 -77 50 -43 66 -72 38 -72 -7 0
-19 7 -26 15 -10 12 -96 65 -106 65 -2 0 -4 -5 -4 -12 0 -15 80 -88 96 -88 15
0 27 -31 16 -42 -5 -5 -17 1 -27 12 -10 11 -23 20 -30 20 -7 0 -22 9 -35 20
-13 11 -29 20 -37 20 -24 0 -14 -28 17 -47 29 -17 38 -37 21 -47 -4 -3 -11 -2
-15 1 -10 10 -80 33 -84 28 -6 -5 56 -64 66 -64 3 0 8 -5 11 -12 2 -8 -2 -10
-13 -6 -10 4 -15 3 -11 -3 10 -16 -7 -12 -44 11 -42 25 -55 15 -19 -16 15 -13
24 -26 20 -30 -4 -4 -1 -5 6 -3 16 3 40 -27 30 -38 -4 -3 -25 4 -47 17 -41 23
-63 21 -43 -4 7 -8 9 -16 6 -19 -3 -3 2 -5 11 -5 23 3 43 -29 29 -43 -14 -14
-44 -2 -44 16 0 8 -4 14 -10 14 -5 0 -10 -5 -10 -11 0 -6 -6 -7 -12 -2 -8 4
-6 -4 4 -18 15 -24 15 -26 0 -36 -12 -7 -28 -6 -56 3 -52 19 -56 12 -7 -9 40
-18 62 -47 36 -47 -8 0 -30 10 -50 21 -45 27 -57 18 -13 -9 39 -25 66 -62 45
-62 -18 0 -109 31 -123 41 -6 5 -14 6 -17 3 -7 -7 78 -54 99 -54 16 0 20 -45
5 -54 -5 -4 -30 3 -55 14 -25 10 -46 17 -46 13 0 -3 -7 0 -15 7 -12 10 -15 9
-15 -7 0 -13 7 -19 23 -19 12 1 39 -9 59 -21 28 -17 36 -27 31 -40 -4 -10 -8
-12 -11 -5 -2 7 -7 10 -11 8 -7 -5 -64 7 -93 19 -14 6 -18 2 -18 -16 0 -31
-38 -132 -53 -141 -9 -5 -9 -10 1 -20 6 -6 12 -18 12 -26 0 -15 -41 -13 -85 4
-18 7 -18 6 -6 -9 7 -9 21 -17 31 -17 10 0 20 -9 23 -20 3 -12 14 -20 26 -20
12 0 21 -6 21 -13 0 -25 -12 -26 -31 -4 -19 22 -19 22 -34 3 -8 -11 -15 -27
-15 -36 0 -22 -31 -64 -39 -52 -3 6 -19 14 -34 17 -41 11 -33 -11 13 -35 22
-11 40 -23 40 -26 0 -6 -9 -5 -82 14 -34 9 -36 8 -25 -9 6 -10 14 -16 17 -14
3 2 19 -5 36 -16 l29 -19 -37 0 c-21 0 -38 4 -38 10 0 5 -6 7 -14 4 -28 -11
-397 94 -587 168 -137 52 -228 105 -272 157 -33 40 -33 42 -2 126 45 119 115
379 181 670 92 404 384 1896 384 1959 0 3 -12 6 -27 6 l-28 0 -43 -243z m2433
-287 c3 -5 2 -10 -4 -10 -5 0 -13 5 -16 10 -3 6 -2 10 4 10 5 0 13 -4 16 -10z
m-80 -60 c3 -5 1 -10 -4 -10 -6 0 -11 5 -11 10 0 6 2 10 4 10 3 0 8 -4 11 -10z
m85 -30 c0 -5 -4 -10 -10 -10 -5 0 -10 5 -10 10 0 6 5 10 10 10 6 0 10 -4 10
-10z m-150 -51 c0 -5 -4 -9 -10 -9 -5 0 -10 7 -10 16 0 8 5 12 10 9 6 -3 10
-10 10 -16z m66 -16 c-10 -10 -19 5 -10 18 6 11 8 11 12 0 2 -7 1 -15 -2 -18z
m82 -11 c2 -7 -2 -10 -12 -6 -9 3 -16 11 -16 16 0 13 23 5 28 -10z m-153 -32
c3 -5 -1 -10 -10 -10 -9 0 -13 5 -10 10 3 6 8 10 10 10 2 0 7 -4 10 -10z m94
-27 c2 -2 -5 -3 -17 -3 -14 0 -22 6 -22 16 0 14 3 15 18 3 9 -7 19 -15 21 -16z
m-85 -24 c-8 -14 -24 -10 -24 6 0 9 6 12 15 9 8 -4 12 -10 9 -15z m156 -10 c0
-6 -4 -7 -10 -4 -5 3 -10 11 -10 16 0 6 5 7 10 4 6 -3 10 -11 10 -16z m-90
-19 c0 -10 6 -20 13 -23 8 -3 6 -7 -6 -12 -23 -10 -49 12 -29 24 8 4 10 15 6
26 -5 13 -4 16 4 11 7 -4 12 -16 12 -26z m-140 -10 c0 -5 -4 -10 -10 -10 -5 0
-10 5 -10 10 0 6 5 10 10 10 6 0 10 -4 10 -10z m69 1 c9 -6 10 -11 2 -15 -13
-8 -31 1 -31 15 0 11 11 11 29 0z m151 -31 c0 -5 -2 -10 -4 -10 -3 0 -8 5 -11
10 -3 6 -1 10 4 10 6 0 11 -4 11 -10z m-150 -36 c0 -18 -5 -24 -22 -24 -17 0
-19 3 -10 12 7 7 12 20 12 31 0 10 5 15 10 12 6 -3 10 -17 10 -31z m-75 -14
c-3 -5 -10 -10 -16 -10 -5 0 -9 5 -9 10 0 6 7 10 16 10 8 0 12 -4 9 -10z m163
-13 c3 -15 -1 -18 -20 -15 -12 2 -22 7 -20 13 2 5 -5 13 -15 17 -12 5 -7 7 17
5 25 -1 36 -7 38 -20z m-75 -69 c-5 -10 -47 -10 -56 -1 -4 3 0 14 9 24 15 16
17 16 33 1 10 -9 16 -20 14 -24z m-93 11 c0 -5 -7 -9 -15 -9 -15 0 -20 12 -9
23 8 8 24 -1 24 -14z m165 -9 l16 -30 -31 0 c-38 0 -52 27 -25 46 24 18 22 19
40 -16z m-155 -65 c0 -9 -10 -15 -25 -15 -26 0 -29 7 -19 34 7 19 44 3 44 -19z
m230 14 c0 -5 -4 -9 -10 -9 -5 0 -10 7 -10 16 0 8 5 12 10 9 6 -3 10 -10 10
-16z m-153 1 c9 0 13 -8 11 -22 -4 -32 -53 -38 -63 -9 -8 26 3 44 22 37 8 -3
21 -6 30 -6z m-157 -10 c0 -5 -2 -10 -4 -10 -3 0 -8 5 -11 10 -3 6 -1 10 4 10
6 0 11 -4 11 -10z m238 -33 c4 -30 -12 -35 -40 -13 -28 21 -23 45 10 43 21 -2
28 -8 30 -30z m-233 -17 c3 -5 4 -14 0 -20 -8 -13 -35 -1 -35 16 0 16 26 19
35 4z m295 -5 c0 -8 -2 -15 -4 -15 -2 0 -6 7 -10 15 -3 8 -1 15 4 15 6 0 10
-7 10 -15z m-237 -1 c3 -3 28 -7 55 -8 27 -2 54 -6 61 -10 12 -8 15 -42 3 -50
-14 -9 -102 17 -102 31 0 7 -7 13 -15 13 -8 0 -15 -4 -15 -10 0 -5 -4 -10 -10
-10 -5 0 -10 11 -10 25 0 23 18 34 33 19z m181 -57 c23 -32 20 -37 -16 -30
-23 4 -28 11 -28 35 0 35 15 33 44 -5z m-243 -7 c5 0 9 -11 9 -24 0 -20 -4
-24 -22 -21 -12 3 -25 8 -30 13 -13 13 2 44 19 38 8 -3 19 -6 24 -6z m102 -15
c43 -8 81 -15 83 -15 2 0 4 -14 4 -31 l0 -31 -47 7 c-88 13 -118 27 -121 58
-2 15 -2 27 0 27 2 0 38 -7 81 -15z m206 -18 c12 -15 12 -17 -3 -11 -9 3 -16
13 -16 22 0 8 1 13 3 11 1 -2 9 -12 16 -22z m-69 -27 c28 -28 27 -54 -2 -46
-13 3 -26 6 -30 6 -12 0 -9 60 2 60 6 0 19 -9 30 -20z m-232 -18 c1 -5 12 -8
23 -5 31 9 142 -26 161 -50 10 -12 18 -16 18 -9 0 19 23 14 43 -8 18 -22 23
-45 7 -35 -5 3 -10 1 -10 -4 0 -20 -28 -11 -33 10 -3 12 -10 18 -16 15 -6 -4
-7 -14 -4 -22 5 -13 1 -15 -18 -10 -22 7 -22 6 5 -15 16 -13 40 -24 54 -25 26
-3 45 -22 35 -36 -5 -10 -45 0 -53 13 -3 5 -19 4 -35 0 -17 -5 -22 -10 -13
-10 26 -1 61 -51 47 -67 -6 -8 -15 -11 -20 -8 -18 11 -8 -8 14 -26 12 -11 29
-17 38 -14 9 2 23 -4 33 -15 15 -17 15 -19 1 -25 -9 -3 -25 -1 -35 4 -27 15
-27 15 -25 -41 2 -50 16 -72 40 -63 17 7 51 -34 38 -47 -6 -6 -19 -2 -37 12
-20 16 -30 19 -38 11 -15 -15 13 -47 43 -49 25 -2 25 -2 34 -32 8 -25 2 -26
-62 -6 -17 6 -23 3 -23 -9 0 -9 5 -16 10 -16 6 0 10 -11 10 -25 0 -24 -2 -25
-42 -19 -40 5 -42 4 -24 -10 13 -11 17 -22 12 -40 -4 -15 -7 -68 -7 -120 -1
-78 -4 -96 -18 -101 -15 -6 -14 -7 2 -16 19 -11 23 -59 5 -59 -26 0 -40 18
-37 46 1 16 1 72 -1 124 -3 87 -3 91 -10 40 -3 -30 -5 -108 -3 -172 l4 -118
-25 0 c-24 0 -26 3 -27 48 0 26 -4 67 -8 92 l-8 45 -1 -60 c0 -33 3 -97 6
-142 l7 -83 -32 0 c-33 0 -33 1 -34 48 0 26 -5 70 -9 97 -7 38 -8 27 -4 -47
l4 -98 -40 0 -40 0 -2 53 -2 52 -3 -52 c-2 -29 -5 -54 -6 -54 -1 -1 -68 -5
-150 -8 l-147 -6 0 33 c0 29 3 32 29 32 25 0 31 -5 34 -27 3 -16 5 22 4 82 -2
107 -1 110 21 113 21 3 22 0 22 -67 0 -38 5 -73 11 -76 10 -7 7 222 -4 255
-18 54 -16 60 19 60 26 0 32 3 27 16 -4 11 -9 12 -16 5 -17 -17 -47 -13 -47 7
0 9 -3 27 -6 40 -5 16 -2 22 9 22 10 0 13 6 10 21 -4 16 -8 17 -14 7 -6 -9 -9
-2 -9 20 0 17 4 32 9 32 6 0 6 12 0 32 -11 40 -11 38 0 38 8 0 34 -52 38 -78
4 -34 13 -22 8 12 -6 51 -15 80 -29 88 -6 4 -7 10 -3 14 4 4 18 -3 32 -16 29
-27 33 -14 6 21 -10 13 -24 35 -31 48 l-13 24 28 -21 c28 -22 49 -22 27 0 -18
18 -14 27 8 21 16 -4 19 -2 14 11 -3 9 -12 16 -20 16 -19 0 -18 19 1 27 9 3
24 -2 34 -11 10 -9 20 -16 23 -16 13 0 4 51 -11 62 -14 12 -15 11 -2 -5 16
-20 9 -34 -7 -15 -11 14 -15 32 -13 62 1 18 4 17 31 -9 31 -30 42 -17 15 19
-11 14 -12 23 -4 32 7 9 7 19 -1 34 -17 31 -7 34 20 5 41 -44 56 -25 19 26
-22 31 -19 35 13 18 24 -13 35 -5 18 15 -6 9 -14 36 -16 61 -4 43 -3 45 15 36
10 -6 28 -23 39 -38 34 -47 36 -17 3 37 -17 28 -31 54 -31 59 0 11 93 -4 98
-17z m312 -43 c0 -4 -7 -6 -15 -3 -8 4 -15 10 -15 15 0 4 7 6 15 3 8 -4 15
-10 15 -15z m-3 -75 c-9 -9 -28 6 -21 18 4 6 10 6 17 -1 6 -6 8 -13 4 -17z
m11 -82 c2 -7 -3 -12 -12 -12 -9 0 -16 7 -16 16 0 17 22 14 28 -4z m42 -22 c0
-5 -7 -7 -15 -4 -8 4 -15 8 -15 10 0 2 7 4 15 4 8 0 15 -4 15 -10z m-595 -10
c3 -5 1 -10 -4 -10 -6 0 -11 5 -11 10 0 6 2 10 4 10 3 0 8 -4 11 -10z m505
-15 c9 -11 10 -19 3 -26 -14 -14 -43 0 -43 22 0 23 23 25 40 4z m69 -36 c13
-11 22 -21 20 -24 -7 -7 -52 19 -57 33 -6 18 9 14 37 -9z m1 -69 c14 -10 22
-21 19 -24 -9 -9 -59 18 -59 32 0 17 11 15 40 -8z m-17 -59 c15 -6 27 -18 27
-26 0 -13 -5 -12 -29 6 -16 12 -34 18 -40 15 -18 -12 -51 4 -51 24 0 26 22 31
45 9 11 -10 32 -22 48 -28z m25 -94 c5 -24 -15 -21 -28 4 -10 18 -9 20 7 17
10 -2 19 -11 21 -21z m-1162 -83 c-8 -21 -15 -31 -15 -22 -1 18 20 70 26 65 2
-2 -3 -21 -11 -43z m1168 11 c7 -19 -5 -19 -30 0 -19 14 -19 14 2 15 12 0 24
-7 28 -15z m-73 -25 c20 -11 26 -45 10 -54 -15 -10 -55 29 -48 47 7 20 12 21
38 7z m-623 -21 c10 -14 10 -18 -3 -23 -11 -4 -15 1 -15 21 0 14 1 24 3 22 1
-2 8 -11 15 -20z m692 -36 c0 -13 -3 -13 -15 -3 -8 7 -15 19 -15 27 0 13 3 13
15 3 8 -7 15 -19 15 -27z m-120 -90 c0 -40 -3 -73 -7 -73 -23 1 -30 22 -30 98
-1 81 -1 83 18 66 15 -14 19 -31 19 -91z m-608 52 c3 -14 2 -25 -2 -25 -9 0
-20 25 -20 46 0 23 17 7 22 -21z m-481 -6 c-5 -13 -10 -19 -10 -12 -1 15 10
45 15 40 3 -2 0 -15 -5 -28z m514 21 c4 -6 13 -50 21 -98 7 -48 17 -99 20
-114 6 -25 3 -28 -19 -28 -30 0 -38 23 -23 59 8 18 8 25 -2 29 -6 2 -12 13
-12 24 0 14 5 18 15 14 21 -8 19 0 -7 24 -22 21 -22 22 -5 35 18 13 18 15 2
39 -10 14 -13 26 -7 26 6 0 14 -5 17 -10z m640 -42 c1 -31 -3 -38 -18 -38 -11
0 -17 5 -14 13 2 6 -2 25 -10 40 -14 28 -14 28 14 25 25 -3 28 -7 28 -40z m50
2 c3 -5 2 -10 -4 -10 -5 0 -13 5 -16 10 -3 6 -2 10 4 10 5 0 13 -4 16 -10z
m-752 -24 c6 -16 -2 -28 -14 -20 -12 7 -11 34 0 34 5 0 11 -6 14 -14z m703
-41 c9 -23 -3 -45 -21 -39 -20 8 -20 54 0 54 9 0 18 -7 21 -15z m-693 -35 c-8
-31 -23 -34 -23 -6 0 16 6 26 14 26 9 0 12 -7 9 -20z m629 -34 c6 -32 -6 -51
-26 -43 -16 6 -22 47 -9 60 14 14 31 6 35 -17z m67 -33 c1 -7 -8 -13 -19 -13
-14 0 -20 7 -20 24 0 45 37 34 39 -11z m-679 -7 c0 -19 -4 -23 -20 -19 -32 8
-23 38 13 42 4 1 7 -10 7 -23z m-93 -18 c-3 -7 -5 -2 -5 12 0 14 2 19 5 13 2
-7 2 -19 0 -25z m-473 -13 c-4 -8 -8 -15 -10 -15 -2 0 -4 7 -4 15 0 8 4 15 10
15 5 0 7 -7 4 -15z m1176 -20 c0 -18 -5 -25 -19 -25 -11 0 -23 5 -26 10 -11
18 3 40 25 40 15 0 20 -7 20 -25z m64 -1 c10 -26 7 -34 -14 -34 -15 0 -20 7
-20 25 0 28 24 34 34 9z m-664 -19 c0 -20 -5 -25 -25 -25 -20 0 -25 5 -25 25
0 20 5 25 25 25 20 0 25 -5 25 -25z m-86 -16 c-3 -5 -10 -7 -15 -3 -5 3 -7 10
-3 15 3 5 10 7 15 3 5 -3 7 -10 3 -15z m634 -31 c3 -24 0 -28 -22 -28 -22 0
-26 4 -26 31 0 26 3 30 23 27 16 -2 23 -11 25 -30z m-1230 4 c2 -7 -3 -12 -12
-12 -9 0 -16 7 -16 16 0 17 22 14 28 -4z m1267 -7 c0 -10 -6 -20 -12 -22 -8
-3 -13 5 -13 22 0 17 5 25 13 23 6 -3 12 -13 12 -23z m-580 -26 c8 -34 4 -41
-27 -46 -12 -2 -19 -1 -16 2 3 3 2 22 -2 41 -7 31 -6 34 15 34 18 0 25 -7 30
-31z m656 19 c-1 -5 -1 -17 -1 -28 0 -33 -25 -23 -27 11 -2 22 2 30 13 27 8
-2 15 -6 15 -10z m-735 -9 c3 -6 2 -15 -4 -21 -7 -7 -14 -3 -21 11 -10 17 -9
21 3 21 8 0 18 -5 22 -11z m-76 -19 c0 -5 -2 -10 -4 -10 -3 0 -8 5 -11 10 -3
6 -1 10 4 10 6 0 11 -4 11 -10z m-565 -11 c11 -17 -1 -21 -15 -4 -8 9 -8 15
-2 15 6 0 14 -5 17 -11z m1205 -44 c0 -41 -2 -45 -25 -45 -23 0 -25 4 -25 45
0 41 2 45 25 45 23 0 25 -4 25 -45z m-560 25 c0 -5 -7 -10 -16 -10 -8 0 -12 5
-9 10 3 6 10 10 16 10 5 0 9 -4 9 -10z m621 0 c6 0 9 -12 7 -27 -2 -21 -8 -27
-22 -25 -11 2 -15 -1 -11 -7 3 -6 1 -11 -4 -11 -6 0 -11 18 -11 41 0 33 3 40
16 35 9 -3 20 -6 25 -6z m-691 -20 c0 -5 -4 -10 -10 -10 -5 0 -10 5 -10 10 0
6 5 10 10 10 6 0 10 -4 10 -10z m740 -5 c0 -8 -4 -15 -10 -15 -5 0 -10 7 -10
15 0 8 5 15 10 15 6 0 10 -7 10 -15z m68 -24 c3 -16 -1 -22 -10 -19 -7 3 -15
15 -16 27 -3 16 1 22 10 19 7 -3 15 -15 16 -27z m-728 -22 c0 -4 -7 -9 -15
-13 -11 -4 -15 2 -15 27 1 30 1 31 15 13 8 -11 15 -23 15 -27z m-680 22 c0 -6
-4 -13 -10 -16 -5 -3 -10 1 -10 9 0 9 5 16 10 16 6 0 10 -4 10 -9z m595 -31
c3 -5 1 -10 -4 -10 -6 0 -11 5 -11 10 0 6 2 10 4 10 3 0 8 -4 11 -10z m-625
-35 c0 -8 -7 -15 -15 -15 -8 0 -15 7 -15 15 0 8 7 15 15 15 8 0 15 -7 15 -15z
m-93 -21 c3 -8 1 -20 -6 -27 -8 -8 -15 -6 -25 8 -11 15 -11 22 -3 27 18 12 27
9 34 -8z m1224 -9 c153 -20 248 -41 381 -84 122 -40 256 -111 299 -157 23 -26
21 -25 -24 5 -26 18 -73 41 -104 52 -31 10 -63 25 -71 31 -13 11 -14 11 -7 -1
7 -11 2 -13 -26 -8 -26 5 -30 4 -16 -4 9 -6 25 -9 35 -8 9 2 39 -7 66 -19 27
-12 52 -22 56 -22 13 0 122 -92 116 -98 -3 -3 -15 3 -25 12 -22 20 -86 45
-116 45 -11 0 3 -9 30 -19 57 -22 115 -52 116 -60 0 -3 3 -17 5 -31 l4 -26
-132 5 c-205 7 -400 -21 -636 -94 -429 -133 -681 -285 -772 -466 -26 -54 -37
-65 -31 -34 1 5 3 35 5 66 3 62 28 114 91 189 19 24 35 46 35 49 0 13 -64 -56
-96 -103 -19 -27 -34 -46 -34 -42 0 13 31 71 50 92 28 32 56 80 42 71 -7 -4
-31 -30 -52 -58 -22 -27 -40 -47 -40 -43 0 18 37 75 74 114 37 40 38 42 9 22
-17 -11 -43 -35 -57 -51 -13 -17 -28 -30 -32 -30 -11 0 21 43 70 94 55 56 57
73 3 21 -21 -20 -37 -33 -37 -30 0 16 53 86 82 109 18 14 28 26 22 26 -16 0
-104 -79 -104 -93 0 -7 -9 -23 -20 -37 l-20 -25 12 34 c6 19 33 62 59 97 27
35 46 64 44 64 -3 0 -23 -16 -45 -36 -51 -46 -52 -32 -1 24 21 23 33 42 26 42
-7 0 -29 -18 -50 -41 -54 -60 -53 -42 1 21 28 33 41 56 34 58 -7 3 0 12 17 23
37 25 23 25 -18 0 -17 -10 -26 -20 -19 -23 6 -2 -6 -19 -27 -38 -33 -31 -30
-18 5 18 7 8 10 17 7 22 -7 11 69 63 115 79 56 19 235 25 320 11 41 -6 167
-34 279 -61 112 -27 211 -49 220 -48 39 2 -122 54 -350 113 -53 13 -163 32
-244 41 -82 9 -170 21 -195 28 -47 11 -75 27 -49 27 8 0 40 26 69 58 33 34 44
50 27 39 -15 -9 -27 -13 -27 -8 0 6 12 17 28 25 15 8 20 15 12 15 -16 0 -71
-28 -56 -29 5 0 3 -7 -4 -15 -7 -8 -18 -15 -24 -15 -6 0 -3 5 7 11 9 6 15 14
12 19 -10 16 45 40 147 64 57 14 117 27 133 29 74 10 299 5 396 -8z m379 -10
c174 -31 272 -83 305 -162 8 -20 15 -37 15 -39 0 -2 -21 12 -47 32 -108 83
-271 140 -503 177 -14 2 13 5 60 6 47 0 123 -6 170 -14z m-1463 -17 c-3 -8 -6
-5 -6 6 -1 11 2 17 5 13 3 -3 4 -12 1 -19z m-96 -25 c-10 -17 -10 -16 -11 3 0
23 13 41 18 25 2 -6 -1 -18 -7 -28z m-71 2 c10 -12 10 -15 -4 -15 -9 0 -16 7
-16 15 0 8 2 15 4 15 2 0 9 -7 16 -15z m-12 -47 c-6 -18 -28 -21 -28 -4 0 9 7
16 16 16 9 0 14 -5 12 -12z m137 2 c3 -5 1 -10 -4 -10 -6 0 -11 5 -11 10 0 6
2 10 4 10 3 0 8 -4 11 -10z m475 -13 c0 -2 -17 -19 -37 -38 l-38 -34 34 38
c33 34 41 42 41 34z m-550 -17 c0 -5 -4 -10 -10 -10 -5 0 -10 5 -10 10 0 6 5
10 10 10 6 0 10 -4 10 -10z m-109 -53 c-8 -8 -11 -5 -11 9 0 27 14 41 18 19 2
-9 -1 -22 -7 -28z m584 23 c-3 -5 -11 -10 -16 -10 -6 0 -7 5 -4 10 3 6 11 10
16 10 6 0 7 -4 4 -10z m-500 -40 c3 -5 -1 -10 -9 -10 -9 0 -16 5 -16 10 0 6 4
10 9 10 6 0 13 -4 16 -10z m-223 -20 c6 0 9 -3 5 -6 -8 -8 16 -33 26 -27 4 2
7 -3 7 -11 0 -11 -8 -13 -37 -9 -48 7 -54 13 -46 41 3 15 11 21 20 18 8 -3 20
-6 25 -6z m121 -10 c-3 -11 -10 -23 -16 -27 -7 -4 -8 0 -4 11 4 10 7 22 7 27
0 5 4 9 9 9 5 0 7 -9 4 -20z m371 -155 c9 -71 20 -204 26 -295 26 -420 33
-506 55 -670 13 -96 29 -233 35 -305 16 -194 37 -360 60 -471 15 -73 23 -165
30 -349 5 -137 16 -315 25 -395 8 -80 19 -257 25 -395 12 -322 43 -531 141
-945 148 -633 141 -599 135 -685 -21 -284 -20 -311 25 -450 10 -33 34 -125 53
-205 71 -298 170 -576 302 -849 41 -85 73 -155 72 -157 -2 -1 -410 -7 -908
-14 -498 -6 -909 -13 -915 -16 -5 -2 314 -2 710 1 1068 8 1129 8 1133 -3 4
-12 -352 -21 -1323 -32 -430 -5 -789 -12 -798 -16 -24 -9 -22 3 18 163 70 280
124 511 139 593 35 192 54 445 66 905 10 365 25 621 40 682 6 24 33 79 61 122
28 44 65 122 84 174 43 124 41 121 130 207 70 69 113 127 176 236 13 23 52 78
86 123 78 103 148 230 187 340 28 80 30 98 34 256 6 230 -25 439 -89 615 -45
123 -153 276 -282 403 l-80 77 6 128 c6 145 16 185 143 549 68 195 185 473
319 758 56 118 56 119 79 -80z m-309 115 c3 -5 1 -10 -4 -10 -6 0 -11 5 -11
10 0 6 2 10 4 10 3 0 8 -4 11 -10z m450 -10 c-3 -5 -12 -10 -18 -10 -7 0 -6 4
3 10 19 12 23 12 15 0z m-539 -16 c-3 -9 -6 -18 -6 -20 0 -2 -4 -4 -9 -4 -5 0
-7 9 -4 20 3 11 10 20 15 20 6 0 7 -7 4 -16z m-117 -20 c15 -33 8 -40 -23 -26
-16 7 -24 19 -23 32 2 29 32 25 46 -6z m-1137 -45 c28 -22 93 -60 145 -85 96
-46 391 -148 593 -204 63 -17 156 -44 205 -60 50 -16 145 -45 213 -66 67 -20
122 -41 122 -45 0 -4 -27 -88 -61 -186 -33 -98 -63 -186 -66 -197 -5 -16 -13
-17 -67 -12 -34 4 -87 14 -119 22 -159 41 -850 385 -1051 523 -55 38 -77 64
-67 79 6 10 15 7 37 -10 l29 -23 -26 32 -27 32 40 103 c22 57 41 111 41 121 1
9 3 17 4 17 2 0 27 -18 55 -41z m1215 19 c-3 -8 -6 -5 -6 6 -1 11 2 17 5 13 3
-3 4 -12 1 -19z m-98 -57 c-8 -17 -17 -31 -21 -31 -12 0 -10 28 2 35 6 3 10
16 10 28 0 15 3 18 11 10 8 -8 8 -19 -2 -42z m84 24 c-3 -9 -8 -14 -10 -11 -3
3 -2 9 2 15 9 16 15 13 8 -4z m57 -45 c0 -5 -4 -10 -10 -10 -5 0 -10 5 -10 10
0 6 5 10 10 10 6 0 10 -4 10 -10z m1989 -10 c41 -6 79 -14 84 -19 9 -9 28
-142 21 -149 -6 -8 -156 29 -249 62 -113 39 -233 83 -255 94 -38 17 284 27
399 12z m-2200 -112 c-7 -14 -14 -17 -21 -10 -7 7 -6 15 3 25 19 21 31 10 18
-15z m1641 2 c-8 -5 -27 -10 -42 -10 -16 0 -28 -5 -28 -11 0 -7 10 -9 25 -5
32 8 141 -5 124 -15 -8 -4 -57 -21 -109 -39 -100 -34 -135 -49 -127 -56 2 -2
56 9 120 26 64 16 122 30 129 30 11 0 -196 -76 -274 -100 -47 -14 -201 -82
-265 -117 -34 -18 -77 -33 -95 -33 -70 0 -268 -42 -296 -63 -28 -21 -20 2 14
41 115 134 406 281 684 345 77 17 163 22 140 7z m-922 -20 c-7 -10 -14 -17
-17 -15 -4 4 18 35 25 35 2 0 -1 -9 -8 -20z m-748 -40 c0 -5 -7 -10 -16 -10
-8 0 -12 5 -9 10 3 6 10 10 16 10 5 0 9 -4 9 -10z m2345 -30 c9 -14 -23 -24
-150 -49 -151 -29 -332 -74 -318 -78 6 -2 46 5 89 16 44 11 122 27 174 36 52
9 117 23 144 31 27 8 53 14 57 14 5 0 14 -19 20 -42 7 -24 16 -47 21 -52 16
-20 8 -36 -19 -36 -16 0 -71 -13 -123 -29 -52 -15 -131 -36 -175 -46 -61 -13
-75 -20 -60 -26 18 -7 17 -8 -5 -8 -40 -1 -406 -128 -397 -137 2 -2 70 19 151
46 162 55 287 90 322 90 13 0 25 4 28 9 4 5 -13 7 -36 5 -56 -5 -38 3 32 15
30 5 96 20 145 34 111 32 165 37 165 18 0 -5 -17 -12 -37 -15 -100 -17 -224
-49 -229 -58 -4 -6 -3 -8 2 -5 6 3 68 17 139 32 92 18 131 23 139 15 15 -15
-10 -30 -50 -30 -96 0 -412 -104 -670 -220 -417 -187 -653 -371 -768 -599 -29
-55 -73 -199 -86 -276 l-9 -50 4 60 c3 33 7 78 10 100 l4 40 -10 -39 c-15 -62
-22 -57 -14 9 4 33 9 81 11 106 2 25 8 58 14 74 6 15 9 30 6 32 -2 2 -14 -20
-25 -49 -21 -52 -21 -52 -16 -13 4 22 19 68 34 101 16 34 25 67 21 73 -7 13
-16 -6 -41 -84 -7 -22 -17 -44 -22 -50 -15 -19 5 80 30 140 36 87 38 109 4 40
-38 -78 -39 -56 -1 57 17 49 30 92 30 96 -1 12 -24 -32 -27 -51 -2 -10 -12
-35 -24 -55 -20 -37 -20 -37 -3 38 4 20 3 22 -5 10 -17 -23 -13 -2 4 24 17 25
57 157 51 164 -2 2 -11 -20 -20 -50 -15 -49 -55 -132 -56 -116 0 4 8 29 19 55
20 51 21 55 21 77 0 21 92 156 136 200 109 110 419 254 684 318 276 67 667
117 685 88z m-3436 -90 c23 -14 74 -45 114 -70 l71 -45 -49 -12 c-162 -43
-243 -70 -292 -100 -31 -18 -58 -32 -60 -30 -4 4 73 225 101 290 l17 38 28
-23 c15 -13 47 -34 70 -48z m326 -175 c31 -19 199 -112 295 -163 47 -24 86
-46 88 -47 2 -2 -16 -2 -40 0 -39 4 -38 3 12 -8 30 -7 72 -20 92 -30 20 -11
55 -24 76 -30 22 -7 40 -16 41 -22 2 -12 -29 -19 -184 -40 -471 -65 -688 -100
-775 -125 -54 -15 -103 -30 -108 -34 -12 -7 -79 139 -93 204 -14 64 -8 86 35
137 65 75 219 137 415 168 89 13 112 12 146 -10z m3170 -16 c-51 -10 -92 -10
-50 1 17 4 44 8 60 8 25 0 24 -2 -10 -9z m-1335 -27 c-91 -61 -223 -220 -270
-324 -24 -55 -32 -36 -38 89 -5 118 2 142 56 175 46 28 199 77 242 77 l35 0
-25 -17z m1716 -129 c-39 -129 -60 -190 -67 -197 -5 -6 -9 -16 -9 -23 0 -7
-11 -36 -24 -65 -13 -29 -31 -75 -41 -103 -10 -27 -35 -86 -56 -130 -20 -44
-59 -143 -85 -220 -26 -77 -57 -162 -70 -189 -13 -28 -34 -86 -45 -130 -12
-45 -30 -97 -39 -116 -10 -19 -27 -71 -39 -115 -23 -85 -25 -90 -64 -175 -22
-47 -60 -148 -138 -365 -10 -27 -18 -62 -19 -78 0 -15 -22 -93 -49 -175 -26
-81 -54 -181 -61 -222 -6 -41 -17 -84 -24 -95 -27 -44 -65 -231 -67 -327 0
-32 -2 -38 -9 -23 -10 25 -13 18 -35 -90 -9 -44 -32 -130 -51 -190 -19 -61
-41 -148 -49 -194 -8 -46 -18 -88 -23 -95 -5 -6 -19 -54 -31 -106 -28 -122
-130 -456 -157 -517 -8 -17 -14 -36 -14 -43 0 -27 -64 -161 -99 -208 l-38 -51
-27 41 c-26 40 -26 41 -8 62 32 36 50 76 101 226 55 163 113 366 164 580 50
209 201 812 244 970 121 455 167 603 274 875 43 110 94 252 113 315 68 225
232 668 303 820 27 58 64 141 81 185 18 44 41 95 52 113 31 51 119 96 106 55z
m28 -30 c-14 -81 -130 -383 -207 -538 -13 -27 -46 -115 -72 -195 -26 -80 -55
-158 -63 -175 -9 -16 -28 -73 -43 -125 -38 -132 -119 -359 -164 -460 -70 -159
-142 -386 -234 -745 -21 -82 -45 -170 -54 -195 -8 -25 -24 -95 -36 -155 -19
-101 -38 -179 -40 -164 -4 30 43 278 63 330 13 36 32 101 41 145 9 43 31 131
50 194 19 63 45 156 59 205 34 123 117 359 148 420 14 28 35 82 47 120 13 39
40 115 61 170 21 55 41 118 45 140 4 22 18 67 32 100 13 33 47 125 74 205 28
80 66 179 84 220 19 41 54 125 79 185 24 61 56 139 71 175 15 35 33 91 39 122
6 32 14 58 19 58 4 0 5 -17 1 -37z m76 5 c26 4 30 1 30 -19 1 -22 2 -23 14 -6
18 24 45 21 56 -5 5 -13 9 -17 9 -10 1 6 10 12 21 12 17 0 18 -3 9 -26 -13
-35 -6 -41 11 -9 8 15 19 24 28 20 7 -3 18 -5 23 -5 5 0 9 -10 9 -22 1 -21 2
-21 11 -5 16 27 39 21 40 -10 0 -27 1 -27 9 -5 10 24 59 32 61 10 0 -10 2 -10
6 0 5 14 49 16 57 3 4 -5 2 -21 -4 -35 -13 -35 -4 -33 15 3 14 28 17 29 45 20
32 -12 37 -26 18 -49 -7 -8 -3 -6 9 4 39 32 95 -3 72 -46 l-12 -23 22 19 c22
20 22 20 53 -12 31 -31 31 -32 13 -52 -21 -23 -10 -27 15 -5 16 15 20 13 44
-16 l27 -32 -22 -23 c-12 -13 -18 -24 -12 -24 6 0 16 7 23 15 17 21 23 19 43
-16 14 -26 15 -34 5 -47 -11 -13 -10 -15 4 -9 13 5 25 -4 43 -31 30 -44 30
-49 8 -55 -14 -4 -13 -5 4 -6 29 -1 35 -23 9 -39 -21 -13 -21 -13 2 -8 18 3
26 -3 42 -34 11 -22 20 -43 20 -48 0 -5 -17 -16 -37 -25 -34 -14 -34 -15 -8
-10 48 9 49 9 52 -7 2 -9 -11 -22 -34 -32 -21 -10 -30 -16 -20 -13 60 16 67
17 67 3 0 -7 -30 -28 -67 -45 -38 -18 -81 -44 -98 -58 l-30 -26 45 26 c55 32
97 51 133 60 24 6 27 4 27 -19 0 -38 -2 -40 -40 -37 -50 3 -135 -55 -242 -165
-81 -83 -148 -161 -148 -171 0 -3 64 56 143 130 164 154 213 190 253 185 15
-2 29 -8 31 -14 2 -7 -8 -9 -27 -6 -24 3 -44 -4 -86 -33 -59 -41 -187 -172
-233 -239 -47 -69 -148 -266 -177 -346 -31 -88 -104 -262 -113 -271 -3 -4 -76
-12 -161 -18 -164 -11 -344 -40 -423 -67 -26 -9 -47 -17 -45 -19 2 -1 31 2 65
7 34 6 74 7 90 3 l28 -8 -34 -9 c-18 -5 -31 -11 -29 -14 3 -2 27 3 54 11 51
15 164 37 319 60 50 8 99 17 109 21 14 5 17 3 14 -7 -3 -8 -27 -20 -54 -26
l-49 -13 44 4 c67 7 38 -13 -128 -89 -79 -35 -147 -67 -150 -71 -3 -3 10 -3
29 1 32 6 33 6 15 -7 -54 -38 -268 -122 -415 -163 -231 -63 -268 -75 -329
-101 -29 -13 -55 -24 -56 -24 -6 0 24 121 33 132 6 7 13 31 17 53 21 139 101
382 210 640 18 44 65 177 103 295 39 118 84 249 100 290 17 41 42 116 57 165
15 50 43 124 62 165 54 115 131 304 169 415 46 132 46 132 50 119 3 -6 18 -8
34 -6z m-772 -3 c-2 -3 -22 -11 -44 -19 -57 -21 -24 -19 68 5 44 11 82 18 84
16 5 -5 -102 -53 -138 -62 -16 -4 -28 -11 -28 -15 0 -5 12 -4 28 1 65 22 236
69 239 66 3 -3 -164 -70 -305 -122 -40 -15 -72 -29 -70 -30 2 -3 229 69 362
115 45 15 42 5 -7 -24 -46 -27 -62 -32 -52 -17 3 6 -17 0 -44 -12 -27 -12 -45
-23 -40 -25 5 -2 23 4 40 12 38 19 42 20 33 5 -7 -13 23 -5 71 18 28 13 27 11
-10 -22 l-40 -37 60 40 c33 21 78 45 100 53 22 7 44 17 49 21 6 4 14 8 20 8
17 0 -156 -131 -289 -218 -71 -47 -202 -130 -290 -183 -479 -294 -618 -396
-768 -563 l-57 -65 -38 42 c-80 88 -95 114 -88 153 29 150 289 485 463 597
143 92 359 189 524 236 92 26 182 40 167 26z m-333 -24 c-6 -5 -35 -19 -65
-32 -305 -130 -526 -321 -701 -606 -24 -40 -47 -73 -50 -73 -13 0 -18 61 -7
92 35 101 149 242 261 322 130 92 328 203 487 272 83 36 88 38 75 25z m-3175
-130 c0 -29 81 -182 154 -289 42 -62 76 -116 76 -121 0 -4 -42 -20 -92 -35
-51 -16 -130 -44 -176 -63 -45 -20 -85 -33 -88 -30 -11 10 -26 153 -20 192 3
22 30 102 61 178 31 76 59 154 62 173 4 25 8 31 14 22 5 -7 9 -19 9 -27z
m3906 14 c-11 -8 -25 -15 -30 -15 -6 0 -4 -4 4 -10 9 -5 19 -5 27 2 8 6 16 8
19 5 7 -6 -76 -61 -143 -95 -57 -30 -72 -52 -21 -33 73 27 76 18 8 -21 -104
-60 -129 -78 -108 -78 10 0 41 9 69 20 102 41 54 1 -65 -53 -32 -15 -57 -29
-54 -32 4 -5 64 11 113 30 41 16 -1 -13 -80 -55 -44 -23 -84 -46 -89 -50 -13
-13 80 17 141 45 30 13 51 20 48 16 -11 -18 -114 -81 -127 -78 -7 2 -10 2 -5
0 14 -8 7 -18 -20 -30 -16 -7 -41 -24 -58 -38 l-30 -26 42 21 c23 11 51 20 63
20 11 0 20 4 20 9 0 5 12 14 28 19 15 5 35 13 45 17 26 11 21 -14 -5 -26 -25
-11 -53 -26 -140 -77 -32 -19 -58 -35 -58 -36 0 -2 16 2 35 8 19 6 35 14 35
18 0 5 9 8 20 8 20 0 60 18 70 32 3 4 12 3 20 -2 11 -7 8 -11 -13 -19 -16 -6
-33 -11 -38 -11 -5 0 -9 -4 -9 -9 0 -5 -24 -23 -52 -40 -47 -27 -55 -46 -10
-22 9 5 24 12 32 15 8 4 33 17 55 31 49 30 62 32 35 5 -11 -11 -24 -20 -30
-20 -5 0 -10 -4 -10 -10 0 -5 -5 -10 -11 -10 -6 0 -28 -13 -49 -30 -21 -16
-43 -30 -49 -30 -6 0 -11 -4 -11 -10 0 -5 3 -10 8 -10 12 0 97 44 104 55 4 6
12 10 18 10 6 0 15 7 20 15 5 8 10 11 10 7 0 -5 15 1 33 13 21 15 15 6 -19
-27 -29 -26 -81 -68 -118 -93 -57 -40 -78 -60 -60 -60 3 0 31 17 62 38 71 48
102 65 102 55 0 -15 -75 -90 -110 -112 -19 -11 -31 -21 -27 -21 17 0 84 40
115 69 30 28 33 29 26 9 -4 -13 -28 -42 -53 -65 -53 -49 -50 -59 3 -12 l35 30
-15 -45 c-9 -25 -21 -46 -27 -46 -9 0 -9 -2 -1 -8 8 -5 1 -39 -23 -114 -29
-94 -36 -108 -56 -108 -29 0 -148 -38 -122 -39 11 0 42 6 69 14 58 18 66 18
66 5 0 -5 -10 -10 -22 -11 -21 0 -21 -1 -4 -8 17 -7 16 -9 -10 -19 -16 -7 -63
-19 -104 -27 l-75 -14 93 3 c106 4 112 -9 11 -24 -184 -28 -183 -27 -64 -29
150 -3 106 -20 -72 -28 -232 -11 -145 -27 132 -25 l40 1 -40 -9 c-22 -4 -105
-11 -184 -15 -85 -5 -138 -11 -130 -16 8 -5 58 -6 112 -2 70 4 97 3 97 -5 0
-8 -28 -12 -87 -12 -103 -1 -95 -14 18 -29 l74 -10 -75 3 c-71 2 -82 6 -215
72 -77 39 -189 101 -249 138 -130 80 -296 203 -296 219 0 18 184 190 290 271
98 74 233 159 565 356 104 62 241 146 305 188 106 69 221 131 245 131 6 0 1
-6 -9 -14z m-2406 -22 c0 -4 -10 -37 -22 -74 -24 -75 -15 -73 -125 -30 -67 27
-68 19 -2 -15 61 -30 59 -44 -3 -16 -57 25 -192 112 -185 119 4 3 46 -11 94
-30 48 -20 102 -38 118 -42 29 -6 29 -6 11 9 -11 9 -26 16 -34 16 -7 0 -11 4
-7 9 3 6 -14 14 -37 19 -41 9 -40 10 37 13 l80 2 -67 6 c-107 10 -91 21 30 21
62 0 112 -3 112 -7z m-762 -85 c9 -9 12 -9 12 0 0 18 37 15 44 -3 3 -9 1 -15
-7 -14 -35 4 -39 -3 -9 -21 17 -11 32 -24 32 -29 0 -10 -46 -6 -85 9 -53 20
-9 -16 55 -44 33 -15 60 -29 60 -30 0 -3 -84 14 -145 29 -46 12 -19 -8 48 -35
31 -12 57 -24 57 -26 0 -2 -33 -2 -72 1 -59 4 -68 3 -45 -6 34 -13 26 -29 -16
-30 l-32 -2 35 -6 c35 -7 34 -7 -25 -20 -33 -7 -118 -26 -189 -42 -152 -34
-168 -35 -188 -11 -24 27 -139 194 -136 197 13 11 242 60 350 74 162 22 240
25 256 9z m699 -120 c-10 -41 -21 -123 -18 -132 15 -56 -219 -190 -479 -277
-163 -54 -175 -63 -25 -20 172 49 286 100 433 194 74 48 93 50 45 5 -95 -88
-341 -205 -498 -238 -31 -6 -55 -14 -53 -16 10 -10 166 29 241 60 86 36 273
140 313 175 17 15 24 17 24 7 0 -23 -101 -108 -181 -152 -225 -124 -494 -216
-974 -330 -60 -14 -176 -48 -257 -75 -80 -27 -148 -49 -151 -49 -9 0 -76 148
-96 214 -40 129 -25 174 80 243 175 113 465 190 1024 272 209 31 398 75 493
116 74 30 86 31 79 3z m-687 -78 c12 -8 9 -10 -13 -10 -16 0 -26 4 -22 10 8
12 16 12 35 0z m3010 -159 c0 -5 -7 -12 -16 -15 -14 -5 -15 -4 -4 9 14 17 20
19 20 6z m-3951 -132 c-13 -10 -25 -16 -27 -15 -1 2 5 34 15 72 l17 69 9 -54
c8 -51 7 -56 -14 -72z m1715 -93 c-3 -21 -8 -35 -11 -32 -2 2 -1 20 3 40 3 21
8 35 11 32 2 -2 1 -20 -3 -40z m41 -72 c-9 -23 -23 -48 -32 -56 -14 -11 -15
-11 -10 2 3 8 16 47 28 85 20 59 24 65 27 41 2 -16 -4 -48 -13 -72z m63 -15
c-16 -29 -98 -133 -98 -125 0 3 20 36 45 73 25 37 45 74 45 82 0 11 3 12 11 4
8 -8 7 -17 -3 -34z m768 -112 c72 -75 119 -114 234 -194 78 -54 353 -215 525
-308 68 -37 236 -134 244 -140 1 -2 -15 -59 -37 -127 -23 -68 -48 -151 -58
-185 -9 -35 -20 -63 -24 -63 -17 0 -222 87 -330 141 -238 117 -393 217 -518
333 -94 86 -127 127 -143 173 -14 42 -18 384 -6 457 l9 49 21 -36 c12 -20 49
-64 83 -100z m-722 94 c6 -10 -28 -53 -120 -154 -54 -59 -55 -60 -28 -17 16
25 49 70 74 100 25 30 50 60 55 67 12 15 13 15 19 4z m36 -60 c0 -11 -31 -53
-69 -93 -37 -40 -81 -86 -95 -103 -45 -49 -18 -7 67 108 44 59 84 107 89 107
4 0 8 -9 8 -19z m-1945 -136 c52 -107 190 -283 380 -485 253 -269 381 -435
520 -677 52 -90 135 -316 135 -366 0 -23 -24 -69 -86 -164 l-86 -132 -24 45
c-36 68 -97 156 -203 293 -605 780 -709 933 -771 1140 -28 90 -24 132 26 302
21 68 39 137 42 154 l5 30 10 -25 c5 -14 29 -65 52 -115z m1061 -55 c86 -173
118 -254 63 -160 -17 30 -39 66 -49 80 -9 14 -20 38 -24 53 -3 15 -10 26 -15
23 -7 -4 -111 143 -111 157 0 6 31 15 45 13 6 -1 47 -76 91 -166z m910 146 c6
-16 -16 -44 -134 -167 -46 -47 -92 -99 -103 -115 -10 -16 -19 -24 -19 -19 0 6
21 38 48 71 26 34 60 79 77 100 16 22 46 58 67 81 21 24 38 47 38 53 0 15 20
12 26 -4z m-1021 -78 c21 -46 53 -107 71 -135 19 -29 31 -53 27 -53 -8 0 -23
20 -92 120 -53 77 -101 133 -101 117 0 -4 14 -22 31 -42 35 -39 35 -57 1 -25
-25 24 -33 25 -26 6 3 -8 13 -16 23 -19 18 -4 182 -237 168 -237 -2 0 -30 35
-62 78 -32 42 -65 82 -72 88 -7 6 -11 14 -8 17 3 4 2 5 -2 2 -4 -3 -25 12 -47
32 l-40 38 31 -40 c42 -56 49 -70 32 -60 -8 4 5 -12 27 -36 23 -24 60 -73 83
-109 45 -70 39 -64 -74 66 -33 38 -76 90 -94 117 -40 55 -63 64 -26 10 14 -21
28 -45 32 -53 4 -8 32 -53 63 -100 100 -151 93 -147 -32 15 -78 100 -117 142
-188 200 -14 11 0 -7 31 -41 50 -55 149 -194 149 -209 0 -10 -205 198 -229
233 -27 38 -35 33 124 67 65 14 121 28 124 31 2 2 12 4 21 4 12 0 29 -26 55
-82z m4157 -25 c-50 -75 -78 -129 -160 -303 l-12 -25 6 25 c11 48 124 273 166
331 66 90 66 70 0 -28z m-3144 11 c-56 -60 -75 -60 -23 1 27 31 51 52 53 46 2
-6 -11 -27 -30 -47z m55 -6 c6 -23 12 -18 -168 -183 -54 -49 -111 -103 -126
-119 -16 -16 -29 -25 -29 -19 0 5 21 30 48 55 50 48 127 138 127 149 0 3 25
32 55 63 30 31 58 63 63 72 10 18 23 11 30 -18z m-1382 -91 c42 -56 97 -133
122 -172 24 -38 75 -117 113 -175 81 -123 93 -144 64 -110 -28 33 -66 80 -85
105 -8 12 -14 15 -15 7 0 -7 -5 -10 -12 -6 -12 8 56 -89 129 -182 28 -37 73
-105 62 -94 -3 3 -41 46 -84 95 -88 100 -206 222 -184 189 74 -111 150 -216
192 -267 77 -92 87 -109 28 -47 -29 30 -85 96 -125 145 -77 95 -126 144 -95
95 9 -14 42 -65 73 -115 32 -49 78 -119 104 -155 27 -36 58 -83 71 -105 l23
-40 -24 30 c-97 125 -181 225 -189 225 -5 0 -36 28 -69 63 -68 71 -83 57 -21
-20 184 -226 289 -363 278 -363 -2 0 -44 51 -94 113 -82 101 -261 287 -276
287 -4 0 40 -57 98 -127 57 -71 123 -155 146 -188 46 -66 41 -64 -16 5 -21 25
-157 167 -303 315 -244 249 -423 447 -423 469 0 15 360 125 411 125 20 0 40
-20 101 -102z m1348 -31 c-163 -151 -186 -176 -161 -176 4 0 54 47 112 104 57
58 108 102 112 100 19 -12 5 -43 -34 -80 -78 -74 -174 -138 -197 -132 -5 2
-37 -23 -70 -56 -84 -80 -77 -53 11 41 178 192 273 284 277 266 2 -10 -17 -35
-50 -67z m87 -52 c-3 -8 -1 -26 4 -40 20 -51 40 -226 40 -341 0 -238 -32 -330
-197 -577 -63 -94 -126 -183 -140 -197 -13 -14 -72 -48 -131 -75 -158 -71
-383 -183 -414 -206 -21 -14 -26 -16 -22 -4 8 22 80 77 144 112 147 81 202
114 185 114 -25 -1 -135 -44 -192 -75 -55 -30 -63 -32 -63 -17 0 47 84 140
200 220 59 41 192 166 160 151 -14 -7 -59 -38 -100 -69 -127 -96 -173 -125
-161 -102 6 11 18 22 26 26 9 3 14 10 11 15 -6 9 11 28 29 31 24 6 34 13 29
21 -3 5 2 9 11 9 9 0 14 3 12 8 -4 6 181 166 241 207 12 9 22 22 22 30 0 7 17
27 37 44 48 40 28 41 -22 1 -21 -16 -43 -30 -48 -30 -6 0 16 19 49 43 64 46
134 109 134 121 0 3 -25 -12 -55 -34 -30 -22 -93 -61 -141 -86 -48 -25 -106
-58 -128 -72 -28 -17 -36 -20 -26 -7 17 21 185 135 198 135 5 0 15 7 22 15 15
18 35 20 24 3 -4 -7 -3 -8 5 -4 6 4 9 11 7 15 -3 4 5 13 17 21 21 12 21 12 7
-6 -8 -10 1 -5 20 12 19 18 63 57 97 88 35 31 59 56 54 56 -4 0 -16 -10 -27
-21 -25 -27 -237 -169 -253 -169 -14 0 -144 -82 -180 -114 l-25 -21 23 32 c12
18 85 74 166 127 140 93 308 217 321 237 3 6 -36 -19 -87 -55 -52 -36 -132
-87 -177 -113 -46 -27 -106 -63 -134 -80 -57 -38 -59 -38 -52 -18 3 8 70 55
147 104 78 49 170 113 204 143 66 57 78 80 15 30 -79 -63 -352 -220 -352 -203
0 5 35 30 78 57 42 26 86 55 97 65 11 10 31 24 45 31 69 36 256 185 245 196
-2 3 -14 -7 -25 -21 -11 -14 -37 -36 -58 -48 -20 -13 -63 -43 -96 -66 -32 -24
-62 -43 -68 -43 -5 0 -33 -15 -62 -34 -29 -18 -62 -36 -73 -40 -11 -4 -28 -15
-38 -26 -19 -21 -35 -26 -35 -12 0 10 82 71 145 107 73 43 224 157 265 200 42
45 24 37 -45 -20 -27 -23 -90 -66 -140 -95 -49 -29 -116 -70 -149 -92 -32 -21
-60 -37 -62 -35 -8 7 92 85 186 145 111 70 200 143 237 192 l27 35 -46 -40
c-84 -74 -127 -105 -220 -162 -51 -31 -108 -68 -127 -82 -33 -25 -34 -25 -20
-3 8 13 43 44 79 69 145 103 290 217 305 239 23 35 5 29 -35 -12 -19 -19 -73
-61 -120 -92 -145 -97 -161 -88 -25 13 39 29 98 77 131 108 55 51 82 64 70 31z
m1607 -141 c-7 -2 -21 -2 -30 0 -10 3 -4 5 12 5 17 0 24 -2 18 -5z m-3855 -55
c21 -66 104 -226 162 -313 63 -94 118 -168 301 -405 252 -326 392 -520 376
-520 -2 0 -21 25 -41 55 -20 30 -39 55 -42 55 -6 0 75 -153 108 -205 11 -16
-6 -3 -37 30 -32 34 -50 47 -40 31 17 -28 17 -29 -1 -22 -12 5 -6 -7 17 -31
36 -38 88 -105 104 -133 5 -8 -21 16 -59 53 -37 38 -70 66 -73 63 -4 -3 3 -16
14 -29 30 -31 123 -169 123 -180 0 -6 -13 8 -29 29 -29 41 -121 128 -121 116
0 -4 23 -38 50 -76 61 -84 64 -106 8 -54 -53 49 -73 50 -25 0 40 -41 51 -68
15 -35 -50 45 -50 32 1 -20 65 -67 64 -95 -2 -37 -57 51 -62 41 -7 -15 40 -41
40 -42 27 -75 l-15 -33 -13 24 c-7 13 -12 29 -11 35 1 6 -5 17 -13 24 -18 15
-20 -1 -3 -18 9 -9 9 -12 0 -12 -8 0 -4 -12 10 -30 26 -36 29 -28 -66 -159
-237 -325 -388 -486 -536 -569 -53 -30 -96 -49 -99 -43 -20 31 -142 42 -172
15 -16 -14 -20 -12 -58 29 -119 128 -169 248 -202 477 -13 89 -8 318 11 480 5
47 16 177 25 290 18 227 32 310 76 449 37 116 52 189 74 356 10 72 28 168 41
213 23 79 91 232 103 232 4 0 12 -19 19 -42z m2828 -98 c50 -47 143 -121 208
-164 112 -75 590 -326 621 -326 21 0 20 -7 -20 -160 -19 -74 -47 -187 -61
-250 -14 -63 -37 -155 -50 -205 -43 -155 -132 -506 -154 -605 -66 -304 -209
-750 -248 -774 -25 -15 -63 123 -102 374 -12 74 -53 268 -91 430 -145 610
-173 784 -189 1195 -6 132 -17 305 -25 385 -8 80 -14 168 -15 195 l0 50 18
-30 c11 -16 59 -68 108 -115z m-896 64 c-17 -19 -50 -37 -50 -27 0 4 12 15 28
25 35 21 37 21 22 2z m-209 -295 c-41 -172 -81 -288 -156 -454 -90 -201 -235
-489 -315 -625 -37 -63 -79 -135 -93 -160 -14 -25 -66 -100 -116 -168 -51 -67
-104 -144 -120 -170 -95 -161 -348 -474 -463 -574 -107 -93 -283 -202 -315
-196 -10 2 13 18 58 40 89 45 210 135 298 220 102 100 330 387 411 518 33 52
90 132 188 265 24 33 58 87 74 120 17 33 51 91 75 129 44 67 222 422 315 627
43 95 103 277 95 286 -2 2 -19 -43 -37 -99 -39 -125 -325 -701 -412 -830 -32
-48 -58 -91 -58 -97 0 -11 -116 -189 -139 -213 -28 -30 -41 -47 -41 -55 0 -4
-10 -20 -23 -35 -13 -14 -32 -43 -42 -62 -11 -20 -25 -36 -32 -36 -7 0 -17
-10 -24 -21 -9 -17 -8 -20 3 -14 8 4 7 2 -2 -7 -8 -7 -24 -30 -35 -52 -11 -21
-29 -45 -40 -55 -11 -9 -31 -32 -45 -51 -44 -63 -108 -139 -113 -134 -3 3 -4
-3 -4 -13 1 -11 -4 -17 -13 -15 -8 2 -12 0 -8 -3 11 -11 -11 -47 -24 -39 -6 4
-8 3 -5 -3 8 -12 -17 -36 -26 -26 -4 3 -7 -1 -7 -11 0 -22 -27 -49 -40 -41 -5
3 -10 -3 -10 -13 0 -20 -25 -37 -33 -24 -2 4 -2 2 -1 -5 3 -12 -154 -134 -211
-164 -16 -9 -47 -25 -67 -37 -41 -23 -47 -20 -67 37 -6 19 -11 35 -11 36 0 2
46 28 103 59 189 104 302 231 701 789 123 172 384 563 478 717 120 196 285
552 345 743 39 123 41 71 4 -84z m2984 -119 c-3 -5 -12 -10 -18 -10 -7 0 -6 4
3 10 19 12 23 12 15 0z m-11 -80 c-5 -5 -68 -37 -139 -70 -72 -33 -124 -60
-118 -60 15 0 150 53 206 81 29 14 37 16 27 6 -20 -21 -147 -83 -300 -147
-173 -72 -396 -187 -425 -218 -27 -29 -25 -44 2 -20 36 30 156 85 343 154 63
24 115 42 117 41 1 -2 -32 -21 -73 -42 -42 -22 -78 -44 -81 -49 -7 -10 -11
-12 105 46 51 26 102 50 115 54 12 4 44 17 71 30 27 13 51 22 53 21 3 -4 -326
-194 -402 -232 -60 -31 -135 -76 -135 -82 0 -3 29 12 65 32 36 20 65 34 65 32
0 -2 -31 -25 -70 -51 -38 -27 -70 -50 -70 -52 0 -7 89 45 129 74 19 14 113 68
210 120 97 52 185 101 195 111 15 12 18 13 11 1 -19 -33 -56 -66 -190 -167
-77 -59 -180 -139 -230 -178 -93 -74 -225 -198 -225 -211 0 -5 16 7 35 26 19
19 35 30 35 25 0 -5 23 13 50 40 28 27 50 46 50 43 0 -4 51 31 113 77 61 46
114 80 116 74 2 -6 -7 -18 -20 -27 -13 -9 -53 -39 -89 -66 -36 -27 -112 -85
-170 -129 -158 -119 -160 -126 -11 -29 46 31 90 55 97 55 7 0 11 4 9 8 -8 11
23 31 36 23 8 -4 9 -3 5 4 -4 6 6 19 21 29 15 9 49 34 74 55 25 21 48 38 51
38 2 0 -51 -55 -120 -122 -68 -68 -169 -172 -224 -233 -104 -114 -283 -346
-312 -402 -17 -33 -33 -46 -22 -17 3 9 2 12 -5 9 -6 -4 -8 -14 -5 -22 4 -8
-12 -48 -35 -89 -22 -41 -38 -74 -36 -74 3 0 33 42 68 93 138 203 248 322 425
457 59 46 244 207 255 223 4 5 12 6 19 2 8 -5 11 -4 7 2 -6 9 12 29 57 63 18
14 19 14 6 -10 -31 -58 -112 -154 -246 -290 -102 -103 -164 -177 -218 -258
-78 -116 -104 -173 -40 -86 21 27 55 69 78 92 68 72 356 311 356 295 0 -13
-146 -176 -156 -175 -14 2 -74 -60 -68 -70 8 -13 -127 -149 -140 -141 -6 3 -8
3 -5 -1 4 -4 -21 -34 -55 -67 -33 -34 -54 -58 -46 -53 26 14 183 150 245 213
33 34 63 61 67 61 4 0 28 23 54 50 26 28 49 48 52 46 4 -5 -81 -170 -100 -193
-5 -7 -7 -17 -3 -23 4 -6 1 -9 -6 -8 -6 2 -14 -3 -17 -11 -3 -9 0 -11 7 -7 13
8 -35 -82 -54 -100 -20 -20 -98 -144 -93 -149 2 -3 17 15 32 40 16 24 43 61
62 82 19 21 47 67 64 102 17 35 33 62 35 59 5 -5 -23 -61 -99 -196 -32 -57
-56 -105 -54 -107 2 -2 34 43 72 100 38 58 75 110 82 116 27 22 14 -9 -34 -82
-62 -96 -102 -163 -102 -175 0 -9 13 9 164 228 54 78 103 148 108 153 28 30
-94 -258 -167 -395 -49 -93 -113 -235 -112 -250 0 -3 -5 -16 -12 -29 -52 -96
114 131 209 287 34 56 64 102 65 102 7 0 -33 -106 -84 -220 -27 -63 -43 -105
-33 -92 9 13 27 35 40 50 l23 27 -17 -35 c-9 -19 -32 -60 -50 -91 -42 -70 -45
-88 -4 -28 59 88 71 93 31 14 l-41 -80 36 40 36 40 -25 -45 c-14 -25 -25 -49
-26 -55 -1 -5 -16 -32 -34 -60 -17 -27 -40 -63 -50 -80 l-18 -30 23 25 c13 14
38 43 57 65 43 51 34 35 -59 -105 -89 -135 -101 -156 -65 -115 153 170 219
254 250 315 32 63 63 167 71 239 4 34 8 60 9 59 2 -2 11 -58 20 -125 27 -189
8 -259 -118 -435 -126 -176 -287 -428 -287 -451 0 -8 232 289 368 471 30 39
56 72 58 72 9 0 -12 -84 -37 -144 -16 -37 -29 -71 -29 -75 0 -7 44 61 46 71 1
5 2 13 3 18 0 6 5 10 10 10 5 0 9 -21 9 -47 0 -41 -7 -57 -51 -121 -75 -106
-84 -122 -42 -77 20 22 51 63 68 90 27 42 33 46 35 28 3 -23 -34 -90 -77 -137
-21 -23 -22 -26 -6 -18 26 13 48 39 71 82 17 32 19 33 22 12 2 -16 -9 -38 -35
-69 -21 -25 -53 -66 -71 -92 -33 -46 -17 -31 46 44 41 49 52 41 12 -10 -43
-54 -36 -58 10 -5 22 24 35 47 30 50 -6 4 -4 14 5 26 14 19 14 19 15 -3 0 -12
3 -28 6 -37 4 -11 -16 -39 -62 -86 -81 -84 -77 -93 7 -13 71 68 80 49 12 -28
-26 -30 -54 -63 -62 -74 -15 -19 -15 -19 4 -5 11 8 41 37 67 64 30 32 47 45
48 35 0 -14 -15 -37 -80 -122 -12 -15 -17 -27 -12 -27 12 0 82 79 82 92 0 4 5
8 10 8 26 0 5 -46 -51 -110 -34 -39 -59 -73 -57 -75 5 -6 86 73 106 103 l17
26 7 -40 c13 -71 10 -81 -39 -128 -26 -25 -42 -46 -36 -46 7 0 28 16 49 35 43
41 44 41 44 16 0 -17 -45 -65 -96 -101 -20 -15 -40 -40 -30 -40 2 0 11 6 18
13 7 7 29 24 48 37 19 13 39 30 43 37 12 19 27 16 27 -6 0 -11 -23 -40 -52
-65 -29 -25 -48 -46 -42 -46 6 0 32 18 58 41 43 38 46 39 46 18 0 -16 -25 -47
-77 -97 -43 -40 -64 -65 -48 -54 17 11 50 41 75 66 25 25 48 46 53 46 4 0 7
-11 7 -25 0 -27 -12 -41 -95 -114 l-50 -43 45 30 c25 17 59 44 76 61 17 17 34
28 38 24 15 -16 2 -40 -61 -106 -66 -69 -66 -70 -18 -32 28 22 59 51 70 64
l19 24 8 -29 c7 -26 3 -33 -34 -64 -23 -19 -54 -45 -68 -58 -22 -20 -19 -19
20 4 25 16 54 36 66 46 25 22 34 23 34 3 0 -9 -17 -31 -37 -49 -21 -19 -51
-46 -68 -61 l-30 -27 35 23 c19 12 52 36 73 52 59 46 56 23 -5 -38 -66 -66
-59 -74 9 -10 25 25 48 45 50 45 9 0 1 -26 -14 -44 -17 -20 -17 -20 0 -7 9 8
20 11 23 8 4 -3 -23 -25 -60 -48 -36 -23 -66 -43 -66 -45 0 -2 32 13 70 33 39
19 73 33 77 30 10 -11 -19 -38 -69 -63 -26 -13 -48 -27 -48 -29 0 -3 13 1 29
9 16 9 32 12 35 8 4 -3 10 -2 14 4 4 6 16 15 26 21 17 9 22 7 33 -14 7 -14 13
-29 13 -33 0 -5 -32 -29 -72 -54 -39 -25 -68 -46 -64 -46 11 0 88 40 119 62
27 20 29 20 42 2 8 -11 15 -23 15 -27 0 -14 -53 -56 -132 -103 -43 -25 -78
-48 -78 -51 0 -7 150 76 188 104 25 19 37 22 45 14 39 -39 -300 -240 -544
-322 -120 -40 -274 -51 -343 -25 -79 30 -176 143 -325 380 -102 160 -185 319
-261 496 -89 207 -252 702 -236 717 3 3 7 0 10 -8 16 -55 39 -109 46 -109 5 0
20 4 34 10 30 11 33 35 10 68 -8 12 -13 23 -10 23 3 1 9 2 14 3 25 5 34 21 29
56 -4 33 1 48 39 104 87 129 225 517 304 851 17 72 39 157 49 190 10 33 29
103 40 155 12 52 31 122 41 155 32 100 70 256 81 329 10 73 64 243 83 263 13
13 168 63 196 63 38 0 434 121 539 165 117 49 119 49 105 35z m-2824 -24 c0
-2 -8 -10 -17 -17 -16 -13 -17 -12 -4 4 13 16 21 21 21 13z m-50 -40 c0 -2 -8
-10 -17 -17 -16 -13 -17 -12 -4 4 13 16 21 21 21 13z m4 -37 c-29 -31 -164
-133 -164 -125 0 3 35 32 78 64 42 33 83 67 91 76 7 9 16 16 19 16 3 0 -7 -14
-24 -31z m2621 -335 c-59 -53 -90 -73 -83 -53 4 12 116 98 128 98 3 0 -17 -20
-45 -45z m-2543 -101 c-17 -21 -63 -69 -102 -108 -79 -78 -89 -92 -126 -197
-44 -122 -82 -165 -299 -344 -66 -54 -173 -145 -237 -201 -111 -97 -139 -118
-122 -91 4 7 3 8 -5 4 -6 -4 -9 -11 -6 -16 3 -4 -32 -40 -78 -78 -102 -87
-182 -170 -148 -152 13 7 76 54 140 105 64 50 154 120 201 154 47 34 114 85
150 113 84 66 54 37 -88 -87 -62 -54 -110 -100 -108 -102 7 -7 116 76 147 112
15 17 70 59 121 94 51 34 77 48 58 31 -19 -17 -65 -51 -102 -76 -60 -41 -109
-84 -83 -73 19 8 78 44 127 77 28 19 47 29 44 23 -12 -18 6 -12 33 12 14 12 8
1 -14 -24 -22 -25 -43 -44 -47 -42 -5 2 -8 -1 -8 -7 0 -6 -4 -9 -8 -6 -5 3
-24 -8 -43 -25 l-34 -31 35 24 c19 12 38 24 43 24 4 1 12 2 17 3 6 0 31 20 57
44 28 26 42 34 35 20 -7 -12 -54 -56 -104 -99 -108 -89 -137 -116 -90 -85 18
13 38 24 45 25 7 1 27 16 45 34 18 17 39 29 46 26 7 -3 16 2 19 10 3 8 16 20
29 26 24 12 -24 -37 -121 -122 -29 -27 -51 -48 -49 -48 2 0 33 22 68 49 35 27
67 49 70 48 4 -1 18 12 33 28 31 35 37 20 7 -18 -18 -22 -99 -91 -195 -165
l-30 -23 35 17 c19 9 77 45 128 80 50 35 92 59 92 54 0 -14 -91 -119 -166
-191 -38 -36 -147 -123 -241 -193 -95 -70 -173 -130 -173 -132 0 -6 158 74
190 95 42 29 120 72 120 67 0 -3 -27 -23 -59 -46 -100 -67 -79 -63 76 16 81
41 135 64 119 51 -15 -14 -51 -36 -79 -51 -28 -14 -44 -26 -35 -26 9 0 51 18
94 39 43 22 80 38 82 36 10 -9 -136 -94 -207 -120 -20 -8 -29 -14 -21 -14 34
-2 138 32 189 60 62 35 77 33 28 -5 -48 -37 -114 -70 -170 -86 -26 -7 -50 -17
-53 -21 -7 -12 -8 -12 75 6 80 17 137 38 163 62 10 9 18 12 18 6 0 -17 -34
-42 -102 -73 -84 -37 -143 -59 -188 -70 -31 -7 -32 -8 -8 -9 46 -2 200 38 247
64 51 29 58 31 41 9 -32 -37 -213 -113 -275 -114 -18 -1 -18 -2 -3 -10 26 -16
228 35 244 61 3 5 12 9 21 9 56 0 -120 -88 -236 -118 -41 -10 -70 -21 -65 -24
22 -12 176 25 278 67 14 6 18 4 14 -6 -5 -17 -145 -74 -243 -99 -60 -16 -65
-18 -33 -19 50 -1 171 25 224 49 50 22 59 9 13 -19 -34 -21 -196 -69 -274 -82
-38 -6 -29 -7 40 -4 81 5 215 31 244 49 6 4 11 2 11 -4 0 -17 -80 -49 -177
-70 -150 -33 -159 -40 -48 -34 55 4 124 14 153 24 50 16 66 13 40 -7 -19 -15
-105 -41 -178 -54 -141 -24 -148 -28 -40 -24 58 2 130 11 160 19 30 8 57 12
59 10 16 -15 -44 -34 -249 -77 l-65 -14 100 4 c55 2 122 8 148 14 26 6 51 9
54 5 14 -13 -117 -47 -234 -61 -37 -4 -60 -11 -57 -17 7 -11 154 -3 227 14 26
5 51 8 54 5 12 -12 -68 -34 -202 -56 -77 -12 -147 -24 -155 -26 -8 -1 26 -3
75 -4 85 0 218 12 257 25 26 8 22 -10 -4 -24 -27 -14 -244 -52 -303 -53 -32 0
-36 -2 -20 -9 27 -11 116 -12 190 -1 151 23 150 23 135 12 -35 -25 -245 -70
-334 -72 -35 -1 -32 -3 29 -14 89 -17 87 -17 80 -5 -4 6 11 10 38 10 46 0 128
13 162 26 17 7 18 6 7 -8 -11 -14 -81 -33 -162 -42 -19 -2 8 -3 60 -1 68 2 88
0 70 -7 -31 -12 -210 -26 -270 -21 -40 3 -42 2 -20 -8 29 -13 242 -18 283 -6
15 4 27 3 27 -2 0 -16 -99 -33 -230 -40 -106 -6 -119 -8 -85 -16 52 -11 207
-12 265 -1 33 6 42 5 34 -3 -17 -19 -144 -41 -234 -41 -56 0 -80 -3 -70 -10
26 -16 133 -22 210 -11 79 11 94 9 62 -8 -20 -11 -126 -25 -277 -37 -84 -7
-87 -8 -50 -16 22 -5 106 -8 188 -6 81 2 142 1 135 -3 -7 -4 -78 -15 -158 -24
-80 -9 -146 -18 -148 -19 -10 -10 118 -14 193 -6 111 12 105 12 105 2 0 -13
-188 -42 -269 -42 -38 0 -72 -4 -75 -9 -9 -14 165 -20 252 -7 86 13 110 4 42
-14 -35 -9 -185 -26 -275 -31 l-30 -1 30 -8 c40 -10 198 -11 258 -1 33 6 47 5
44 -3 -4 -14 -109 -31 -241 -41 -63 -4 -94 -10 -85 -16 19 -12 226 -11 268 1
37 10 51 6 35 -10 -11 -11 -122 -29 -239 -40 l-80 -7 60 -3 c33 -2 105 -2 160
-1 65 1 95 -1 85 -7 -23 -15 -199 -42 -276 -43 -60 -1 -65 -2 -34 -10 48 -12
162 -14 240 -5 43 5 62 5 55 -2 -16 -16 -108 -32 -233 -39 -101 -6 -112 -8
-77 -16 22 -5 102 -7 178 -5 89 3 132 1 121 -5 -22 -13 -196 -37 -266 -37 -32
0 -58 -4 -58 -9 0 -13 179 -22 250 -11 35 5 66 7 69 5 13 -14 -123 -41 -274
-53 l-80 -7 70 -7 c39 -3 116 -3 170 2 55 5 101 7 103 5 8 -8 -77 -24 -203
-40 -71 -9 -131 -18 -133 -19 -9 -9 167 -13 232 -6 44 5 82 8 84 5 13 -13 -59
-27 -193 -39 -188 -16 -159 -31 47 -24 190 7 165 -10 -49 -32 -149 -15 -162
-18 -119 -25 26 -4 105 -5 175 -2 138 7 130 -4 -17 -22 -229 -28 -229 -28 -92
-29 69 -1 144 3 168 7 42 8 61 -4 20 -14 -55 -12 -150 -24 -238 -31 l-95 -8
70 -8 c65 -7 247 6 269 19 5 3 7 0 4 -8 -6 -19 -47 -28 -201 -40 -75 -7 -135
-14 -132 -17 8 -8 248 -2 288 7 22 5 37 5 37 0 0 -14 -12 -17 -190 -38 l-165
-20 174 4 c95 2 171 2 169 -1 -10 -10 -204 -34 -274 -34 -43 0 -76 -5 -80 -11
-8 -13 281 -7 326 6 17 5 22 4 15 -3 -16 -16 -110 -32 -230 -39 -86 -5 -104
-8 -80 -15 29 -9 197 -3 263 8 17 4 32 2 32 -3 0 -11 -122 -31 -262 -43 -84
-7 -78 -8 62 -6 85 1 163 6 173 10 10 5 17 4 17 -3 0 -17 -75 -32 -213 -40
l-132 -8 159 -2 c137 -1 157 -3 146 -15 -50 -61 -275 -68 -565 -18 -219 37
-245 40 -412 51 -158 10 -176 19 -218 113 -16 35 -52 160 -82 278 -66 266
-216 1009 -239 1185 -24 185 -23 464 5 745 19 197 61 453 76 468 3 3 5 -24 5
-59 0 -128 61 -418 109 -519 32 -66 121 -164 174 -191 39 -20 39 -21 18 -35
-28 -20 -27 -33 9 -75 32 -40 66 -55 74 -33 9 23 67 18 73 -6 3 -11 9 -20 14
-20 5 0 6 -7 3 -15 -6 -14 -8 -13 -20 2 -13 17 -13 17 -14 -4 0 -12 7 -29 16
-37 14 -15 14 -17 -1 -22 -30 -12 -49 48 -23 74 9 9 9 15 0 24 -15 15 -22 8
-33 -39 -8 -34 -6 -40 17 -60 34 -31 50 -29 69 7 17 33 20 66 5 75 -17 11 -11
23 20 42 18 10 34 30 38 48 6 20 15 31 30 33 13 2 22 -2 22 -10 0 -20 -59 -88
-77 -88 -8 0 -13 -6 -10 -12 5 -15 50 -12 56 3 10 30 71 74 149 109 108 48
182 102 292 210 121 120 318 371 414 527 41 66 141 199 190 251 60 64 147 130
266 202 131 79 282 183 301 206 11 15 9 15 -16 -3 -16 -11 -97 -54 -180 -95
-82 -41 -174 -89 -202 -106 -29 -17 -53 -28 -53 -24 0 14 46 81 95 137 47 54
64 65 270 165 121 59 240 121 265 138 60 41 68 39 32 -5z m2148 -157 c0 -2 -8
-10 -17 -17 -16 -13 -17 -12 -4 4 13 16 21 21 21 13z m-395 -199 c-20 -78 -61
-241 -92 -362 -110 -441 -260 -865 -342 -965 l-21 -25 0 24 c0 13 13 39 30 57
56 64 86 136 190 459 37 116 86 287 109 380 23 94 52 206 63 250 11 44 34 130
49 190 16 61 29 124 29 140 1 25 2 27 11 12 7 -13 1 -54 -26 -160z m-4039 6
c-22 -275 -26 -393 -16 -508 14 -152 39 -260 84 -360 37 -79 130 -206 166
-225 24 -13 25 -35 5 -83 -14 -34 -17 -35 -43 -26 -46 16 -140 117 -172 185
-65 135 -106 385 -96 579 6 110 65 515 75 515 2 0 1 -35 -3 -77z m4564 -228
c-13 -14 -28 -25 -34 -25 -5 0 3 13 19 30 16 16 31 28 33 25 3 -3 -5 -16 -18
-30z m94 -160 c-4 -8 -11 -15 -16 -15 -6 0 -5 6 2 15 7 8 14 15 16 15 2 0 1
-7 -2 -15z m-1234 -740 c22 -54 22 -58 6 -91 -9 -19 -16 -42 -17 -52 0 -9 -7
6 -15 33 -7 28 -13 91 -13 140 1 64 3 81 9 58 4 -18 18 -57 30 -88z m-3003 30
c12 -8 29 -38 38 -66 15 -43 15 -53 4 -60 -22 -13 -23 -12 -44 43 -29 76 -46
70 -20 -7 15 -43 20 -76 16 -97 -9 -42 -31 -49 -31 -11 0 48 -22 143 -33 143
-6 0 -7 -20 -3 -52 20 -145 19 -134 2 -117 -9 8 -22 44 -30 80 l-13 64 -7 -42
c-5 -25 -3 -50 3 -62 21 -39 10 -45 -19 -11 -19 23 -30 46 -30 68 0 37 23 97
47 124 20 22 90 24 120 3z m3099 -162 c47 -61 70 -185 38 -197 -14 -5 -15 -4
-5 8 8 10 9 16 2 21 -6 3 -18 29 -26 58 -17 56 -31 84 -39 76 -3 -3 4 -34 15
-69 11 -36 19 -78 17 -93 -2 -15 2 -31 9 -35 20 -13 34 -60 19 -65 -19 -8 -34
5 -38 33 -2 14 -7 31 -11 38 -5 7 -4 12 2 12 8 0 8 5 1 18 -6 9 -17 44 -25 77
l-15 60 5 -60 5 -60 -20 30 c-26 39 -28 139 -3 167 24 26 37 23 69 -19z
m-3271 -13 c29 -55 9 -83 -30 -40 -16 18 -17 23 -5 45 7 14 15 25 16 25 2 0
10 -13 19 -30z m4682 -342 c-3 -7 -5 -2 -5 12 0 14 2 19 5 13 2 -7 2 -19 0
-25z m30 -210 c-3 -8 -6 -5 -6 6 -1 11 2 17 5 13 3 -3 4 -12 1 -19z m10 -65
c-3 -10 -5 -4 -5 12 0 17 2 24 5 18 2 -7 2 -21 0 -30z m40 -245 c-3 -8 -6 -5
-6 6 -1 11 2 17 5 13 3 -3 4 -12 1 -19z m10 -50 c-3 -8 -6 -5 -6 6 -1 11 2 17
5 13 3 -3 4 -12 1 -19z m10 -40 c-3 -8 -6 -5 -6 6 -1 11 2 17 5 13 3 -3 4 -12
1 -19z m10 -40 c-3 -8 -6 -5 -6 6 -1 11 2 17 5 13 3 -3 4 -12 1 -19z m-1192
-349 c4 -6 5 -12 4 -13 -5 -4 -559 -14 -1134 -21 -225 -3 -553 -7 -727 -10
-266 -4 -318 -2 -318 9 0 21 103 25 945 34 1179 13 1223 13 1230 1z m1350 -64
c6 -30 6 -30 -10 4 -17 38 -19 49 -6 36 5 -6 12 -23 16 -40z m-1318 9 c4 -12
-181 -15 -1624 -30 -433 -5 -593 -3 -593 5 0 8 54 11 178 11 273 0 961 11
1212 20 342 11 823 7 827 -6z m33 -53 c0 -6 -133 -9 -322 -9 -178 0 -618 -5
-978 -11 -878 -14 -973 -14 -968 2 4 9 139 13 614 17 1170 10 1654 10 1654 1z
m22 -49 c7 -7 -155 -11 -493 -12 -277 -1 -522 -4 -544 -5 -76 -6 -1257 -6
-1263 -1 -3 3 -3 8 -1 11 3 2 410 7 905 11 494 4 901 9 904 12 10 9 482 -6
492 -16z m24 -44 c7 -8 -597 -17 -1553 -23 -551 -4 -793 -3 -793 5 0 5 1 10 3
10 1 1 459 3 1017 7 558 3 1017 7 1019 9 7 6 300 -2 307 -8z m1329 -38 l60 -7
-70 0 c-38 -1 -83 3 -100 7 -28 7 -28 8 10 8 22 0 67 -4 100 -8z m188 -7 c-24
-2 -62 -2 -85 0 -24 2 -5 4 42 4 47 0 66 -2 43 -4z m-2004 -7 c-10 -9 -1869
-15 -1869 -6 0 6 344 10 937 10 515 0 934 -2 932 -4z m149 -3 c-10 -2 -28 -2
-40 0 -13 2 -5 4 17 4 22 1 32 -1 23 -4z m365 0 c-7 -2 -19 -2 -25 0 -7 3 -2
5 12 5 14 0 19 -2 13 -5z m1705 0 c-27 -2 -69 -2 -95 0 -27 2 -5 3 47 3 52 0
74 -1 48 -3z m-2740 -38 c-6 -6 -1349 -7 -1356 0 -3 3 302 5 678 5 376 0 681
-2 678 -5z m95 -2 c-7 -2 -19 -2 -25 0 -7 3 -2 5 12 5 14 0 19 -2 13 -5z m320
0 c-40 -2 -106 -2 -145 0 -40 1 -8 3 72 3 80 0 112 -2 73 -3z m230 0 c-13 -2
-33 -2 -45 0 -13 2 -3 4 22 4 25 0 35 -2 23 -4z m-1650 -50 c-62 -2 -164 -2
-225 0 -62 1 -12 3 112 3 124 0 174 -2 113 -3z m-110 -30 c-29 -2 -77 -2 -105
0 -29 2 -6 3 52 3 58 0 81 -1 53 -3z m2105 -10 c-64 -2 -172 -2 -240 0 -68 1
-15 3 117 3 132 0 187 -2 123 -3z m147 -43 c11 -5 -181 -8 -450 -7 -315 1
-409 3 -285 7 301 9 713 9 735 0z m55 -40 c0 -4 -15 -10 -32 -13 -42 -6 -1290
12 -1297 19 -3 3 295 4 662 3 367 -1 667 -5 667 -9z"/>
<path d="M6137 8910 c3 -11 7 -20 9 -20 2 0 4 9 4 20 0 11 -4 20 -9 20 -5 0
-7 -9 -4 -20z"/>
<path d="M6086 8772 c-7 -12 22 -38 31 -28 4 3 0 14 -9 22 -9 10 -18 12 -22 6z"/>
<path d="M5973 8341 c-1 -11 5 -22 13 -25 15 -6 18 3 8 28 -8 22 -19 20 -21
-3z"/>
<path d="M5660 7730 c-9 -6 -10 -10 -3 -10 6 0 15 5 18 10 8 12 4 12 -15 0z"/>
<path d="M6670 7586 c0 -3 26 -13 58 -22 31 -9 70 -23 85 -31 16 -8 31 -12 34
-9 8 8 -95 53 -139 60 -21 4 -38 5 -38 2z"/>
<path d="M6680 7544 c19 -9 51 -18 70 -20 31 -4 30 -3 -10 9 -83 25 -95 27
-60 11z"/>
<path d="M6820 7466 c104 -41 139 -52 125 -39 -16 15 -168 73 -190 73 -11 -1
18 -16 65 -34z"/>
<path d="M5516 7415 c-11 -8 -16 -15 -10 -15 5 0 18 7 28 15 11 8 16 15 10 15
-5 0 -18 -7 -28 -15z"/>
<path d="M6888 7409 c23 -4 48 -11 55 -14 6 -4 3 1 -7 9 -11 9 -36 16 -55 15
l-36 -1 43 -9z"/>
<path d="M5443 6948 c-23 -28 -39 -57 -36 -65 5 -12 7 -12 14 -2 4 7 6 16 4
19 -2 3 12 26 31 49 31 41 38 51 32 51 -2 0 -22 -23 -45 -52z"/>
<path d="M3580 7420 c0 -5 5 -10 11 -10 5 0 7 5 4 10 -3 6 -8 10 -11 10 -2 0
-4 -4 -4 -10z"/>
<path d="M4460 7050 c8 -5 22 -9 30 -9 10 0 8 3 -5 9 -27 12 -43 12 -25 0z"/>
<path d="M4525 7030 c11 -5 27 -9 35 -9 9 0 8 4 -5 9 -11 5 -27 9 -35 9 -9 0
-8 -4 5 -9z"/>
<path d="M4611 7006 c8 -9 181 -67 186 -62 3 2 -33 16 -79 31 -46 16 -90 30
-98 33 -8 3 -12 2 -9 -2z"/>
<path d="M4728 6713 c7 -3 16 -2 19 1 4 3 -2 6 -13 5 -11 0 -14 -3 -6 -6z"/>
<path d="M4670 6625 c46 -18 64 -17 25 0 -16 8 -37 14 -45 14 -8 0 1 -7 20
-14z"/>
<path d="M6660 7339 c14 -7 46 -23 73 -36 26 -13 47 -21 47 -19 0 9 -88 55
-116 61 -29 5 -29 5 -4 -6z"/>
<path d="M6823 7133 c15 -2 39 -2 55 0 15 2 2 4 -28 4 -30 0 -43 -2 -27 -4z"/>
<path d="M6851 7065 c-30 -8 -71 -21 -90 -29 -20 -8 -62 -23 -94 -32 -32 -9
-57 -18 -55 -20 5 -5 113 21 173 42 28 9 84 25 125 35 62 14 68 17 35 17 -22
0 -64 -6 -94 -13z"/>
<path d="M6683 7040 c-39 -10 -85 -26 -101 -34 -16 -8 -50 -20 -76 -27 -26 -6
-45 -13 -43 -16 7 -7 101 17 142 37 22 10 63 24 90 31 28 6 54 16 60 20 11 11
14 12 -72 -11z"/>
<path d="M6858 7015 c-42 -7 -91 -17 -110 -23 -18 -6 -53 -13 -78 -17 -53 -7
-222 -56 -216 -62 2 -3 37 4 78 15 40 11 154 37 253 56 99 20 185 38 190 40
21 9 -43 3 -117 -9z"/>
<path d="M6488 7013 c7 -3 16 -2 19 1 4 3 -2 6 -13 5 -11 0 -14 -3 -6 -6z"/>
<path d="M6860 6983 c-130 -24 -421 -110 -439 -129 -7 -8 12 -2 154 42 61 19
164 47 230 63 103 25 134 38 55 24z"/>
<path d="M6560 6810 c-18 -12 -2 -12 25 0 13 6 15 9 5 9 -8 0 -22 -4 -30 -9z"/>
<path d="M6490 6790 c-11 -8 -7 -9 15 -4 37 8 45 14 19 14 -10 0 -26 -5 -34
-10z"/>
<path d="M5512 5980 c0 -14 2 -19 5 -12 2 6 2 18 0 25 -3 6 -5 1 -5 -13z"/>
<path d="M3483 7063 c9 -2 23 -2 30 0 6 3 -1 5 -18 5 -16 0 -22 -2 -12 -5z"/>
<path d="M4348 6593 c12 -2 30 -2 40 0 9 3 -1 5 -23 4 -22 0 -30 -2 -17 -4z"/>
<path d="M8120 6469 c0 -5 5 -7 10 -4 6 3 10 8 10 11 0 2 -4 4 -10 4 -5 0 -10
-5 -10 -11z"/>
<path d="M8195 6390 c-3 -5 -2 -10 4 -10 5 0 13 5 16 10 3 6 2 10 -4 10 -5 0
-13 -4 -16 -10z"/>
<path d="M8310 6230 c0 -5 7 -7 15 -4 8 4 15 8 15 10 0 2 -7 4 -15 4 -8 0 -15
-4 -15 -10z"/>
<path d="M7885 5460 l-80 -6 87 -2 c49 -1 89 2 93 8 3 6 0 9 -7 8 -7 -1 -49
-5 -93 -8z"/>
<path d="M7793 5393 c26 -2 68 -2 95 0 26 2 4 3 -48 3 -52 0 -74 -1 -47 -3z"/>
<path d="M7715 5350 c-13 -6 10 -9 68 -9 56 -1 86 3 82 9 -7 12 -122 12 -150
0z"/>
<path d="M7720 5300 l-65 -7 92 -1 c52 -1 94 2 98 8 7 11 -18 11 -125 0z"/>
<path d="M7708 5243 c17 -2 47 -2 65 0 17 2 3 4 -33 4 -36 0 -50 -2 -32 -4z"/>
<path d="M7677 5203 c18 -2 50 -2 70 0 21 2 7 4 -32 4 -38 0 -55 -2 -38 -4z"/>
<path d="M7610 5084 l-45 -14 49 5 c27 3 91 5 143 5 60 0 92 4 88 10 -9 15
-182 10 -235 -6z"/>
<path d="M7637 5024 c-158 -17 -164 -22 -27 -23 85 0 129 5 170 19 l55 18 -40
0 c-22 -1 -93 -7 -158 -14z"/>
<path d="M6670 6600 c-8 -5 -10 -10 -5 -10 6 0 17 5 25 10 8 5 11 10 5 10 -5
0 -17 -5 -25 -10z"/>
<path d="M6770 6550 c-8 -5 -10 -10 -5 -10 6 0 17 5 25 10 8 5 11 10 5 10 -5
0 -17 -5 -25 -10z"/>
<path d="M7125 6500 c-3 -6 1 -7 9 -4 18 7 21 14 7 14 -6 0 -13 -4 -16 -10z"/>
<path d="M3950 6430 c0 -5 7 -10 16 -10 8 0 12 5 9 10 -3 6 -10 10 -16 10 -5
0 -9 -4 -9 -10z"/>
<path d="M4650 6300 c-26 -18 -199 -68 -394 -115 -105 -25 -192 -48 -195 -51
-7 -7 1 -6 204 36 168 36 345 90 390 120 17 11 26 20 20 20 -5 0 -17 -5 -25
-10z"/>
<path d="M4620 6250 c-40 -21 -144 -52 -375 -110 -208 -53 -225 -58 -200 -59
11 -1 61 10 110 23 50 14 128 32 175 41 113 23 256 69 305 100 47 29 36 33
-15 5z"/>
<path d="M4623 6209 c-32 -20 -189 -67 -373 -112 -106 -26 -268 -83 -200 -71
19 4 41 10 50 15 16 9 220 59 240 59 36 0 273 84 297 105 33 29 29 30 -14 4z"/>
<path d="M4625 6165 c-16 -13 -39 -24 -50 -23 -11 1 -54 -11 -95 -26 -41 -15
-107 -33 -146 -41 -75 -14 -298 -85 -291 -92 3 -2 64 14 137 36 72 23 139 41
149 41 28 0 132 29 184 51 79 33 76 16 -4 -23 -162 -79 -238 -112 -341 -146
-59 -20 -106 -37 -104 -39 9 -10 230 67 349 122 132 61 160 78 230 137 40 34
23 36 -18 3z"/>
<path d="M4008 6063 c7 -3 16 -2 19 1 4 3 -2 6 -13 5 -11 0 -14 -3 -6 -6z"/>
<path d="M4260 6015 c-102 -35 -159 -59 -125 -51 55 12 165 47 205 65 70 30
25 23 -80 -14z"/>
<path d="M4065 5950 c-13 -5 -14 -9 -5 -9 8 0 24 4 35 9 13 5 14 9 5 9 -8 0
-24 -4 -35 -9z"/>
<path d="M4038 5813 c7 -3 16 -2 19 1 4 3 -2 6 -13 5 -11 0 -14 -3 -6 -6z"/>
<path d="M4070 5790 c-18 -12 -2 -12 25 0 13 6 15 9 5 9 -8 0 -22 -4 -30 -9z"/>
<path d="M3684 4678 c66 -81 78 -94 47 -48 -42 61 -57 80 -66 80 -4 0 5 -15
19 -32z"/>
<path d="M3790 4540 c6 -11 13 -20 16 -20 2 0 0 9 -6 20 -6 11 -13 20 -16 20
-2 0 0 -9 6 -20z"/>
<path d="M3812 4430 c12 -16 23 -30 25 -30 2 0 -4 14 -14 30 -9 17 -21 30 -25
30 -5 0 1 -13 14 -30z"/>
<path d="M3798 4372 c13 -17 28 -35 34 -39 7 -3 2 8 -10 25 -13 17 -28 35 -34
39 -7 3 -2 -8 10 -25z"/>
<path d="M3770 4346 c0 -2 8 -10 18 -17 15 -13 16 -12 3 4 -13 16 -21 21 -21
13z"/>
<path d="M3790 4286 c0 -9 89 -126 96 -126 6 0 -59 94 -83 120 -7 8 -13 11
-13 6z"/>
<path d="M3767 4240 c42 -67 96 -140 100 -136 2 2 -17 34 -43 72 -55 82 -100
132 -57 64z"/>
<path d="M3634 4245 c19 -30 79 -108 103 -133 7 -8 34 -42 59 -78 25 -35 48
-64 50 -64 10 0 -43 72 -167 230 -59 75 -70 87 -45 45z"/>
<path d="M3680 4261 c0 -6 4 -13 10 -16 6 -3 7 1 4 9 -7 18 -14 21 -14 7z"/>
<path d="M3740 4218 c0 -11 67 -122 87 -144 21 -23 17 -15 -18 41 -15 22 -36
56 -47 75 -12 19 -22 32 -22 28z"/>
<path d="M3641 4160 c13 -19 34 -46 47 -60 13 -14 37 -44 54 -67 17 -24 35
-43 40 -43 12 0 -38 64 -137 175 l-27 30 23 -35z"/>
<path d="M3739 5014 c11 -23 43 -66 71 -95 59 -63 42 -26 -29 61 -64 78 -65
79 -42 34z"/>
<path d="M3675 4880 c10 -11 20 -20 23 -20 3 0 -3 9 -13 20 -10 11 -20 20 -23
20 -3 0 3 -9 13 -20z"/>
<path d="M5049 5053 c-13 -16 -12 -17 4 -4 16 13 21 21 13 21 -2 0 -10 -8 -17
-17z"/>
<path d="M4346 4114 c-5 -14 -4 -15 9 -4 17 14 19 20 6 20 -5 0 -12 -7 -15
-16z"/>
<path d="M7353 4368 c-13 -6 -23 -15 -23 -20 0 -5 11 -1 25 8 37 24 35 30 -2
12z"/>
<path d="M7291 4320 c-13 -11 -19 -20 -14 -20 6 0 18 9 28 20 23 25 17 25 -14
0z"/>
<path d="M7023 4308 c-24 -12 -41 -23 -39 -25 4 -4 96 36 96 42 0 9 -15 5 -57
-17z"/>
<path d="M6920 4259 l-25 -20 33 16 c17 8 32 18 32 20 0 10 -16 4 -40 -16z"/>
<path d="M6860 4219 c-22 -18 -22 -19 -3 -10 12 6 25 16 28 21 9 15 3 12 -25
-11z"/>
<path d="M6949 3983 c-13 -16 -12 -17 4 -4 16 13 21 21 13 21 -2 0 -10 -8 -17
-17z"/>
<path d="M6922 3483 c-20 -20 -28 -29 -16 -20 43 34 37 15 -11 -35 l-50 -53
57 54 c32 30 55 57 53 59 -3 3 0 11 6 19 23 27 -3 12 -39 -24z"/>
<path d="M6584 3095 c-15 -20 -25 -38 -22 -40 2 -3 16 13 31 35 32 49 27 52
-9 5z"/>
<path d="M7195 2598 c-16 -24 -22 -38 -14 -31 15 12 53 73 46 73 -2 0 -17 -19
-32 -42z"/>
<path d="M7245 2619 c-4 -6 -5 -12 -2 -15 2 -3 7 2 10 11 7 17 1 20 -8 4z"/>
<path d="M7266 2425 c-9 -26 -7 -32 5 -12 6 10 9 21 6 23 -2 3 -7 -2 -11 -11z"/>
<path d="M7285 2331 c-8 -17 -19 -31 -24 -31 -12 0 -85 -110 -78 -117 3 -2 18
14 33 36 14 23 29 41 33 41 10 0 64 90 58 96 -3 3 -13 -8 -22 -25z"/>
<path d="M7225 2324 c-9 -14 -15 -27 -13 -30 2 -2 12 10 22 26 21 37 15 40 -9
4z"/>
<path d="M7325 1791 l-50 -56 43 34 c38 30 69 68 60 76 -2 1 -25 -23 -53 -54z"/>
<path d="M7498 1144 c-41 -26 -52 -42 -15 -22 12 7 25 11 28 11 4 -1 15 7 24
17 24 27 8 24 -37 -6z"/>
<path d="M7565 1079 c-26 -17 -27 -19 -9 -19 12 0 27 7 34 15 19 23 9 25 -25
4z"/>
<path d="M7498 1044 c-38 -20 -36 -28 2 -9 17 9 30 18 30 20 0 7 -1 6 -32 -11z"/>
<path d="M4275 3870 c-3 -5 -2 -10 4 -10 5 0 13 5 16 10 3 6 2 10 -4 10 -5 0
-13 -4 -16 -10z"/>
<path d="M4350 3863 c-83 -28 -171 -82 -196 -121 -15 -22 -11 -21 27 10 24 20
80 54 124 76 71 36 89 50 45 35z"/>
<path d="M4450 3795 c-13 -14 -71 -57 -129 -97 -126 -87 -380 -296 -326 -269
77 39 512 391 483 391 -2 0 -15 -11 -28 -25z"/>
<path d="M3665 490 c-38 -4 -101 -5 -140 -3 -63 3 -66 2 -35 -8 43 -14 237 -7
265 9 24 13 27 13 -90 2z"/>
<path d="M5931 2484 c0 -11 3 -14 6 -6 3 7 2 16 -1 19 -3 4 -6 -2 -5 -13z"/>
<path d="M5996 10208 c-9 -43 -2 -45 11 -3 6 19 8 35 3 35 -4 0 -10 -14 -14
-32z"/>
<path d="M5970 10120 c-15 -55 -7 -63 9 -9 7 22 10 43 7 46 -2 3 -10 -14 -16
-37z"/>
<path d="M5936 10025 c-3 -9 -6 -22 -5 -28 0 -7 5 -1 10 12 5 13 8 26 5 28 -2
2 -6 -3 -10 -12z"/>
<path d="M5921 9964 c0 -11 3 -14 6 -6 3 7 2 16 -1 19 -3 4 -6 -2 -5 -13z"/>
<path d="M5905 9919 c-4 -6 -5 -12 -2 -15 2 -3 7 2 10 11 7 17 1 20 -8 4z"/>
<path d="M5811 9644 c0 -11 3 -14 6 -6 3 7 2 16 -1 19 -3 4 -6 -2 -5 -13z"/>
<path d="M5606 9103 c-6 -14 -5 -15 5 -6 7 7 10 15 7 18 -3 3 -9 -2 -12 -12z"/>
<path d="M5570 9015 c0 -14 5 -25 10 -25 6 0 10 11 10 25 0 14 -4 25 -10 25
-5 0 -10 -11 -10 -25z"/>
<path d="M5532 8951 c16 -26 50 -35 46 -13 -2 9 -8 17 -15 17 -6 0 -15 3 -19
8 -15 15 -24 6 -12 -12z"/>
<path d="M5493 8866 c10 -20 47 -44 47 -31 0 22 -23 55 -39 55 -17 0 -18 -3
-8 -24z"/>
<path d="M4845 7880 c3 -5 8 -10 11 -10 2 0 4 5 4 10 0 6 -5 10 -11 10 -5 0
-7 -4 -4 -10z"/>
<path d="M4915 7850 c3 -5 13 -10 21 -10 8 0 12 5 9 10 -3 6 -13 10 -21 10 -8
0 -12 -4 -9 -10z"/>
<path d="M4810 7789 c0 -5 5 -7 10 -4 6 3 10 8 10 11 0 2 -4 4 -10 4 -5 0 -10
-5 -10 -11z"/>
<path d="M4650 7540 c0 -5 5 -10 10 -10 6 0 10 5 10 10 0 6 -4 10 -10 10 -5 0
-10 -4 -10 -10z"/>
<path d="M4690 7530 c0 -5 5 -10 11 -10 5 0 7 5 4 10 -3 6 -8 10 -11 10 -2 0
-4 -4 -4 -10z"/>
<path d="M4620 7448 c0 -6 3 -8 7 -5 3 4 12 2 20 -4 10 -9 13 -8 13 3 0 7 -9
14 -20 15 -11 1 -20 -3 -20 -9z"/>
<path d="M4585 7320 c10 -11 22 -20 27 -20 4 0 8 9 8 20 0 15 -7 20 -27 20
-25 0 -26 0 -8 -20z"/>
<path d="M4450 7216 c0 -2 7 -7 16 -10 8 -3 12 -2 9 4 -6 10 -25 14 -25 6z"/>
<path d="M7798 1083 c17 -2 47 -2 65 0 17 2 3 4 -33 4 -36 0 -50 -2 -32 -4z"/>
<path d="M2098 1063 c56 -2 148 -2 205 0 56 1 10 3 -103 3 -113 0 -159 -2
-102 -3z"/>
<path d="M2080 1020 c0 -5 4 -10 9 -10 6 0 13 5 16 10 3 6 -1 10 -9 10 -9 0
-16 -4 -16 -10z"/>
<path d="M1878 983 c12 -2 30 -2 40 0 9 3 -1 5 -23 4 -22 0 -30 -2 -17 -4z"/>
<path d="M1698 933 c12 -2 32 -2 45 0 12 2 2 4 -23 4 -25 0 -35 -2 -22 -4z"/>
<path d="M1818 933 c7 -3 16 -2 19 1 4 3 -2 6 -13 5 -11 0 -14 -3 -6 -6z"/>
<path d="M8058 683 c12 -2 30 -2 40 0 9 3 -1 5 -23 4 -22 0 -30 -2 -17 -4z"/>
<path d="M1978 663 c7 -3 16 -2 19 1 4 3 -2 6 -13 5 -11 0 -14 -3 -6 -6z"/>
</g>
</svg>
